<svg width="27" height="27" viewBox="0 0 27 27" fill="none" xmlns="http://www.w3.org/2000/svg">
<g clip-path="url(#clip0_322_10127)">
<path d="M14.9874 2.91885C14.9874 4.53084 14.3151 5.83526 13.4872 5.83526C12.6593 5.83526 11.9871 4.52841 11.9871 2.91885C11.9871 1.30928 13.4994 0 13.4994 0C13.4994 0 14.9874 1.30321 14.9874 2.91885Z" fill="#8D1F56"/>
<path d="M16.8671 8.14765C15.728 9.28676 14.3312 9.73534 13.755 9.14939C13.1787 8.56465 13.6091 7.16661 14.7445 6.03102C15.88 4.89543 17.8567 5.02929 17.8567 5.02929C17.8567 5.02929 18.0062 7.00842 16.8671 8.14765Z" fill="#8D1F56"/>
<path d="M16.8674 12.5348C15.7283 13.6739 14.3315 14.1225 13.7553 13.5366C13.179 12.9518 13.6179 11.5538 14.757 10.4244C15.8961 9.29507 17.8691 9.41906 17.8691 9.41906C17.8691 9.42027 18.0065 11.3957 16.8674 12.5348Z" fill="#8D1F56"/>
<path d="M10.1327 8.14773C11.2718 9.28683 12.6686 9.73542 13.2448 9.14946C13.821 8.56472 13.3822 7.16669 12.2431 6.03732C11.104 4.90796 9.13092 5.03559 9.13092 5.03559C9.13092 5.03559 8.99355 7.00862 10.1327 8.14773Z" fill="#8D1F56"/>
<path d="M10.1327 12.5348C11.2718 13.6739 12.6686 14.1225 13.2448 13.5366C13.821 12.9518 13.3822 11.5538 12.2431 10.4244C11.104 9.29507 9.13092 9.41906 9.13092 9.41906C9.13092 9.42027 8.99355 11.3957 10.1327 12.5348Z" fill="#8D1F56"/>
<path d="M13.2512 5.71973H13.7241V15.8718H13.2512V5.71973Z" fill="#8D1F56"/>
<path d="M7.66455 15.8721H19.3351V25.7749C19.3351 26.0995 19.2062 26.4119 18.9765 26.6417C18.7455 26.8715 18.4343 27.0003 18.1085 27.0003H8.89123C8.21409 27.0003 7.66461 26.452 7.66461 25.7749L7.66455 15.8721Z" fill="#8D1F56"/>
<path d="M6.34204 15.8721H20.6579V18.2876H6.34204V15.8721Z" fill="#8D1F56"/>
</g>
<defs>
<clipPath id="clip0_322_10127">
<rect width="27" height="27" fill="white"/>
</clipPath>
</defs>
</svg>
