<svg width="24" height="24" viewBox="0 0 24 24" fill="none" xmlns="http://www.w3.org/2000/svg">
<path d="M21 10.2067C20.9911 10.4187 20.879 10.6608 20.6616 10.852C19.791 11.6167 18.9199 12.3808 18.0484 13.1441C17.6415 13.5012 17.234 13.8577 16.826 14.2136C16.7677 14.2643 16.7528 14.3092 16.7708 14.3879C17.084 15.7566 17.3947 17.126 17.7028 18.4959C17.7652 18.7712 17.8266 19.047 17.894 19.3214C17.9923 19.7277 17.8668 20.1292 17.5501 20.3565C17.2017 20.6064 16.8317 20.6227 16.4634 20.4043C15.2903 19.7069 14.1187 19.0067 12.9486 18.3037C12.6754 18.1405 12.3989 17.9811 12.1303 17.8119C12.0404 17.7553 11.9751 17.7548 11.8829 17.8102C10.4599 18.6644 9.03387 19.5133 7.61258 20.3672C7.31073 20.5484 7.00243 20.6165 6.6688 20.4795C6.22738 20.2984 5.99675 19.8343 6.10645 19.352C6.41666 17.9868 6.72735 16.6217 7.03852 15.2566C7.104 14.9698 7.16256 14.6809 7.23354 14.3962C7.25409 14.314 7.23975 14.2655 7.17737 14.2112C6.64267 13.7462 6.10932 13.2795 5.57732 12.8112C4.8319 12.1569 4.08362 11.507 3.3425 10.8479C3.03994 10.5793 2.92522 10.2363 3.04926 9.84414C3.1733 9.45195 3.45053 9.21583 3.86399 9.17329C4.59674 9.09825 5.33068 9.03539 6.06415 8.96823C6.78973 8.90179 7.51531 8.83583 8.24089 8.77035C8.48275 8.7486 8.72461 8.72422 8.96671 8.70582C9.04462 8.70008 9.08621 8.66591 9.11536 8.59493C9.77259 7.05056 10.4309 5.50683 11.0904 3.96374C11.2725 3.53713 11.5978 3.29886 12.0112 3.30961C12.4247 3.32037 12.723 3.52232 12.8869 3.90208C13.3331 4.93524 13.7736 5.97079 14.2159 7.00587C14.4411 7.53165 14.6667 8.05887 14.888 8.58704C14.9219 8.6683 14.9704 8.69985 15.0553 8.70654C15.6384 8.75593 16.2214 8.80771 16.8042 8.86188C17.6528 8.939 18.5013 9.01675 19.3497 9.09514C19.6193 9.11904 19.8891 9.14294 20.158 9.17305C20.647 9.23089 21.0038 9.63885 21 10.2067Z" stroke="#EAC538" stroke-linecap="round" stroke-linejoin="round"/>
</svg>
