<svg width="65" height="62" viewBox="0 0 65 62" fill="none" xmlns="http://www.w3.org/2000/svg">
<rect x="0.75" y="0.75" width="63.5" height="60" rx="4.25" fill="white" stroke="#8CB85B" stroke-width="1.5"/>
<path d="M34.8906 14.0002C34.8906 16.5901 33.8105 18.6858 32.4805 18.6858C31.1504 18.6858 30.0703 16.5862 30.0703 14.0002C30.0703 11.4143 32.5 9.31079 32.5 9.31079C32.5 9.31079 34.8906 11.4045 34.8906 14.0002Z" fill="#8CB85B"/>
<path d="M37.9101 22.4006C36.08 24.2307 33.8359 24.9514 32.9101 24.01C31.9843 23.0706 32.6758 20.8245 34.5 19C36.3242 17.1756 39.5 17.3906 39.5 17.3906C39.5 17.3906 39.7402 20.5703 37.9101 22.4006Z" fill="#8CB85B"/>
<path d="M37.91 29.4493C36.0799 31.2794 33.8358 32.0001 32.91 31.0587C31.9842 30.1193 32.6893 27.8732 34.5194 26.0587C36.3495 24.2443 39.5194 24.4435 39.5194 24.4435C39.5194 24.4454 39.7401 27.6191 37.91 29.4493Z" fill="#8CB85B"/>
<path d="M27.0899 22.4008C28.92 24.2309 31.1641 24.9516 32.0899 24.0102C33.0157 23.0707 32.3106 20.8246 30.4805 19.0102C28.6504 17.1957 25.4805 17.4008 25.4805 17.4008C25.4805 17.4008 25.2598 20.5707 27.0899 22.4008Z" fill="#8CB85B"/>
<path d="M27.0899 29.4493C28.92 31.2794 31.1641 32.0001 32.0899 31.0587C33.0157 30.1193 32.3106 27.8732 30.4805 26.0587C28.6504 24.2443 25.4805 24.4435 25.4805 24.4435C25.4805 24.4454 25.2598 27.6191 27.0899 29.4493Z" fill="#8CB85B"/>
<path d="M32.0996 18.5002H32.8594V34.8107H32.0996V18.5002Z" fill="#8CB85B"/>
<path d="M23.125 34.8108H41.875V50.7208C41.875 51.2423 41.668 51.7442 41.2988 52.1134C40.9278 52.4825 40.4277 52.6895 39.9043 52.6895H25.0958C24.0079 52.6895 23.1251 51.8087 23.1251 50.7208L23.125 34.8108Z" fill="#8CB85B"/>
<path d="M21 34.8108H44V38.6916H21V34.8108Z" fill="#8CB85B"/>
</svg>
