<svg width="66" height="63" viewBox="0 0 66 63" fill="none" xmlns="http://www.w3.org/2000/svg">
<rect x="0.75" y="0.75" width="64.5" height="60.9462" rx="4.25" fill="white" stroke="#EAC538" stroke-width="1.5"/>
<g clip-path="url(#clip0_357_11072)">
<path fill-rule="evenodd" clip-rule="evenodd" d="M32.9999 47.9463H38.1189C40.108 47.9463 40.7177 47.1167 41.6615 44.7721C41.8214 44.3752 42.0756 43.7312 42.3826 42.9144H23.6188C23.9244 43.7298 24.1785 44.3752 24.3399 44.7721C25.2823 47.1138 25.892 47.9463 27.8825 47.9463H33.0015H32.9999ZM42.898 41.5022C44.423 37.2258 46.5077 30.3833 45.5324 27.2049C45.5053 27.1135 45.4753 27.0236 45.4453 26.9336H20.5558C20.5244 27.0236 20.4958 27.1135 20.4687 27.2049C19.4935 30.3834 21.5767 37.2258 23.1032 41.5022H42.9007H42.898ZM44.8514 25.5198C43.2364 22.3256 40.432 20.555 39.9893 19.3769C39.4753 18.0061 43.0736 12.9785 43.0736 12.9785H22.9218C22.9218 12.9785 26.5215 18.0061 26.006 19.3769C25.5634 20.5563 22.759 22.3241 21.144 25.5198H44.8514Z" fill="#EAC538"/>
</g>
<defs>
<clipPath id="clip0_357_11072">
<rect width="36.5538" height="36.5538" fill="white" transform="translate(14.7231 12.1846)"/>
</clipPath>
</defs>
</svg>
