<svg width="14" height="15" viewBox="0 0 14 15" fill="none" xmlns="http://www.w3.org/2000/svg">
<g clip-path="url(#clip0_333_3040)">
<path d="M11.6016 12.3276L11.7191 12.3276L11.6391 12.2415L11.1062 11.6675C10.9647 11.5151 10.9647 11.2726 11.1062 11.1202C11.2457 10.9699 11.4646 10.9699 11.6041 11.1202L12.8298 12.4401C12.9704 12.5916 12.9725 12.8341 12.8286 13.0024L11.6036 14.3216C11.5339 14.3966 11.4409 14.4341 11.3481 14.4341C11.2553 14.4341 11.1628 14.3972 11.0927 14.3216C10.9511 14.1692 10.9511 13.9266 11.0927 13.7742L11.6256 13.2003L11.7056 13.1141L11.5881 13.1141L1.98185 13.1147C1.78677 13.1147 1.61984 12.9401 1.61984 12.7209V2.34662V2.21612L1.53104 2.31175L0.998087 2.8857C0.858582 3.03593 0.639666 3.03593 0.50016 2.8857C0.358638 2.73329 0.358638 2.49073 0.50016 2.33832L1.72585 1.01835C1.86535 0.868118 2.08427 0.868118 2.22377 1.01835L3.44946 2.33832C3.59098 2.49073 3.59098 2.73329 3.44946 2.8857L3.44946 2.8857C3.37977 2.96075 3.2868 2.99823 3.194 2.99823C3.10114 2.99823 3.00871 2.96128 2.93853 2.8857L2.40558 2.31175L2.31678 2.21612V2.34662V12.2758V12.3271L2.36802 12.3271L11.6016 12.3276Z" fill="#8D1F56" stroke="white" stroke-width="0.102491"/>
<path d="M5.35287 2.18004H4.93962C4.74446 2.18004 4.57761 2.00592 4.57761 1.78681C4.57761 1.56704 4.74455 1.39301 4.9391 1.39301H5.35235C5.54702 1.39301 5.71441 1.56719 5.71488 1.78636L5.76612 1.78625H5.71488C5.71488 2.00593 5.5475 2.18004 5.35287 2.18004Z" fill="#8D1F56" stroke="white" stroke-width="0.102491"/>
<path d="M10.0292 2.18004H9.36296C9.16828 2.18004 9.00095 2.00588 9.00095 1.78681C9.00095 1.56712 9.16833 1.39301 9.36296 1.39301H10.0292C10.2237 1.39301 10.3907 1.5671 10.3912 1.78636L10.4424 1.78625H10.3912C10.3912 2.00593 10.2238 2.18004 10.0292 2.18004Z" fill="#8D1F56" stroke="white" stroke-width="0.102491"/>
<path d="M7.68394 2.18004H7.01774C6.82316 2.18004 6.65621 2.00596 6.65574 1.7867L6.60449 1.78681H6.65574C6.65574 1.56712 6.82312 1.39301 7.01774 1.39301H7.68394C7.87862 1.39301 8.04594 1.56718 8.04594 1.78625C8.04594 2.00593 7.87856 2.18004 7.68394 2.18004Z" fill="#8D1F56" stroke="white" stroke-width="0.102491"/>
<path d="M11.2808 1.78681H11.332C11.332 1.56712 11.4994 1.39301 11.694 1.39301H12.1073C12.3024 1.39301 12.4693 1.56709 12.4693 1.78681L12.4693 1.78687L12.4698 2.23129C12.4698 2.45097 12.3024 2.62508 12.1078 2.62508C11.9127 2.62508 11.7458 2.45049 11.7458 2.23129V2.18004H11.6945C11.5119 2.18004 11.3325 2.0048 11.332 1.7867L11.2808 1.78681ZM11.2808 1.78681C11.2808 1.54242 11.4676 1.34177 11.694 1.34177H12.1073C12.3342 1.34177 12.5205 1.54243 12.5205 1.78681L11.6945 2.23129C11.4811 2.23129 11.2813 2.03062 11.2808 1.78681Z" fill="#8D1F56" stroke="white" stroke-width="0.102491"/>
<path d="M12.1071 6.15674C12.3022 6.15674 12.4691 6.33134 12.4691 6.55054V7.26798C12.4691 7.48766 12.3017 7.66177 12.1071 7.66177C11.912 7.66177 11.7451 7.48718 11.7451 7.26798V6.55054C11.7451 6.33086 11.9125 6.15674 12.1071 6.15674Z" fill="#8D1F56" stroke="white" stroke-width="0.102491"/>
<path d="M12.1071 3.63151C12.3022 3.63151 12.4691 3.8061 12.4691 4.0253V4.74274C12.4691 4.96242 12.3017 5.13653 12.1071 5.13653C11.912 5.13653 11.7451 4.96194 11.7451 4.74274V4.0253C11.7451 3.80562 11.9125 3.63151 12.1071 3.63151Z" fill="#8D1F56" stroke="white" stroke-width="0.102491"/>
<path d="M11.7456 9.07584C11.7456 8.85616 11.913 8.68204 12.1076 8.68204C12.3037 8.68204 12.4696 8.8432 12.4696 9.07584V9.52088C12.4696 9.74056 12.3022 9.91468 12.1076 9.91468C11.9125 9.91468 11.7456 9.74008 11.7456 9.52088V9.07584Z" fill="#8D1F56" stroke="white" stroke-width="0.102491"/>
</g>
<defs>
<clipPath id="clip0_333_3040">
<rect width="13.3238" height="14.3487" fill="white" transform="translate(-0.00390625 0.481384)"/>
</clipPath>
</defs>
</svg>
