<svg width="17" height="16" viewBox="0 0 17 16" fill="none" xmlns="http://www.w3.org/2000/svg">
<g clip-path="url(#clip0_333_3035)">
<path d="M5.61568 13.9183L5.28713 15.0684C5.2519 15.1909 5.1174 15.2641 4.98676 15.2317L3.60981 14.8858C3.47915 14.8528 3.40103 14.7266 3.4356 14.6041L3.75646 13.4811C3.17046 13.2301 2.64016 12.8824 2.18992 12.4602C1.22413 11.5546 0.624023 10.3044 0.624023 8.92845C0.624023 8.80114 0.734181 8.69785 0.869956 8.69785H2.00098V2.81327C2.00098 2.32743 2.21298 1.88606 2.55369 1.56596C2.89568 1.24648 3.36705 1.0477 3.88391 1.0477C4.39435 1.0477 4.85994 1.24107 5.20002 1.55395L5.21475 1.56656C5.48246 1.81759 5.6701 2.14308 5.73927 2.5064C6.12226 2.42293 6.51486 2.45716 6.86646 2.58868C7.31414 2.75683 7.69457 3.08472 7.89823 3.53151L7.96676 3.68165C8.01928 3.79815 7.96164 3.93327 7.83739 3.98311L4.82603 5.19139C4.70178 5.24063 4.55769 5.18658 4.50453 5.07008L4.436 4.91994C4.23234 4.47376 4.24195 3.98972 4.42127 3.56995C4.5801 3.19762 4.87343 2.87514 5.26923 2.67396C5.23401 2.37068 5.08734 2.09805 4.86831 1.89267L4.85678 1.88126C4.60638 1.65185 4.26309 1.50953 3.88586 1.50953C3.50224 1.50953 3.15447 1.65606 2.90341 1.89207C2.65107 2.12988 2.4948 2.45597 2.4948 2.81449V8.69906H15.553C15.6888 8.69906 15.7989 8.80236 15.7989 8.92967C15.7989 10.3049 15.1988 11.5552 14.233 12.4615C13.7828 12.8836 13.2525 13.2313 12.6665 13.4824L12.9873 14.6054C13.0226 14.7279 12.9444 14.8546 12.8131 14.887L11.4362 15.2329C11.3055 15.2659 11.1704 15.1927 11.1358 15.0696L10.8073 13.9195C10.6945 13.9268 10.5812 13.9298 10.4672 13.9298H5.95843C5.84379 13.9298 5.73043 13.9268 5.61772 13.9195L5.61568 13.9183ZM5.63809 3.01687C5.62657 3.02287 5.61376 3.02767 5.60031 3.03188C5.25831 3.17421 5.00597 3.43484 4.87595 3.73991C4.75171 4.03117 4.73762 4.36387 4.85994 4.67614L7.41666 3.65042C7.26103 3.35136 6.99396 3.13096 6.68333 3.01446C6.35798 2.89195 5.98397 2.88414 5.63748 3.01746L5.63809 3.01687ZM4.21565 13.653L3.97356 14.5003L4.87595 14.7273L5.12188 13.8674C4.80999 13.8211 4.50705 13.7491 4.21565 13.6536V13.653ZM12.2058 13.653C11.9144 13.7479 11.6109 13.8205 11.2996 13.8668L11.5455 14.7267L12.4479 14.4997L12.2058 13.6524V13.653ZM15.2992 9.15926H1.12215C1.18492 10.3159 1.71521 11.3626 2.53754 12.1344C3.41433 12.9565 4.62469 13.4676 5.95633 13.4676H10.4651C11.7959 13.4676 13.0064 12.9565 13.8839 12.1344C14.7062 11.3627 15.237 10.3166 15.2992 9.15926Z" fill="#8D1F56" stroke="#8D1F56" stroke-width="0.204982"/>
</g>
<defs>
<clipPath id="clip0_333_3035">
<rect width="16.3955" height="15.3737" fill="white" transform="translate(0.0131836 0.456085)"/>
</clipPath>
</defs>
</svg>
