<svg width="22" height="21" viewBox="0 0 22 21" fill="none" xmlns="http://www.w3.org/2000/svg">
<path d="M2.56771 5.06943C2.39076 5.07024 2.24823 5.21436 2.24903 5.39132V15.919C2.24823 16.096 2.39075 16.2401 2.56771 16.2409H4.42616C4.51184 16.2409 4.59351 16.2073 4.65437 16.1472C4.71442 16.0863 4.74805 16.0047 4.74805 15.919V13.8956H15.657V15.919C15.6562 16.0959 15.7995 16.2401 15.9765 16.2409H17.8365C17.9214 16.2409 18.0031 16.2064 18.0631 16.1464C18.1232 16.0855 18.1568 16.0039 18.156 15.919V8.80938C18.1568 8.72451 18.1232 8.64283 18.0631 8.58277C18.0031 8.52192 17.9214 8.48829 17.8365 8.48829H15.9765C15.7995 8.48909 15.6562 8.63242 15.657 8.80937V10.4765H9.14799V10.458C9.14799 9.25456 8.16953 8.27539 6.96596 8.27539H4.74805V5.39129C4.74805 5.30561 4.71442 5.22394 4.65437 5.16308C4.59351 5.10303 4.51184 5.0694 4.42616 5.0694L2.56771 5.06943ZM2.8872 5.71H4.10668V8.58447C4.10588 8.58847 4.10668 8.59248 4.10668 8.59648V10.764C4.10588 10.7744 4.10508 10.7848 4.10508 10.796V13.5745C4.10508 13.5881 4.10588 13.6009 4.10748 13.6138V15.6003H2.8872L2.8872 5.71ZM4.74725 8.91695H6.96515C7.82511 8.91695 8.50652 9.59835 8.50652 10.4583V10.4767H4.74796L4.74725 8.91695ZM16.2976 9.12915H17.5147V15.6004H16.2976V9.12915ZM4.74807 11.1173H15.657V13.2545H4.74807V11.1173Z" fill="#8D1F56"/>
</svg>
