<svg width="31" height="30" viewBox="0 0 31 30" fill="none" xmlns="http://www.w3.org/2000/svg">
<path d="M15.2964 0C12.3531 0 9.47596 0.872774 7.02874 2.50795C4.58152 4.14313 2.67416 6.46728 1.54782 9.18648C0.421494 11.9057 0.126785 14.8978 0.700984 17.7845C1.27518 20.6712 2.69249 23.3228 4.77368 25.404C6.85487 27.4852 9.50647 28.9025 12.3932 29.4767C15.2799 30.0509 18.272 29.7562 20.9912 28.6298C23.7104 27.5035 26.0345 25.5961 27.6697 23.1489C29.3049 20.7017 30.1777 17.8246 30.1777 14.8813C30.1777 10.9345 28.6098 7.14942 25.819 4.35863C23.0282 1.56785 19.2431 0 15.2964 0ZM23.4793 18.4349C23.4782 19.6715 22.9864 20.8572 22.112 21.7316C21.2376 22.6061 20.0519 23.0978 18.8152 23.0989H11.7081C10.4715 23.0978 9.28581 22.6061 8.41137 21.7316C7.53694 20.8572 7.04519 19.6715 7.0441 18.4349V11.3278C7.04519 10.0911 7.53694 8.90544 8.41137 8.031C9.28581 7.15656 10.4715 6.66482 11.7081 6.66373H18.8144C20.051 6.66482 21.2367 7.15656 22.1112 8.031C22.9856 8.90544 23.4773 10.0911 23.4784 11.3278L23.4793 18.4349Z" fill="white"/>
<path d="M18.8161 7.99593H11.709C11.2706 7.99296 10.8361 8.07711 10.4306 8.24348C10.025 8.40985 9.65661 8.65513 9.34666 8.96508C9.03672 9.27503 8.79144 9.64346 8.62507 10.049C8.4587 10.4545 8.37455 10.8891 8.37752 11.3274V18.4345C8.37455 18.8728 8.4587 19.3073 8.62507 19.7129C8.79144 20.1184 9.03672 20.4868 9.34666 20.7968C9.65661 21.1067 10.025 21.352 10.4306 21.5184C10.8361 21.6847 11.2706 21.7689 11.709 21.7659H18.8161C19.2544 21.7689 19.6889 21.6847 20.0945 21.5184C20.5 21.352 20.8684 21.1067 21.1784 20.7968C21.4883 20.4868 21.7336 20.1184 21.9 19.7129C22.0663 19.3073 22.1505 18.8728 22.1475 18.4345V11.3274C22.1505 10.8891 22.0663 10.4545 21.9 10.049C21.7336 9.64346 21.4883 9.27503 21.1784 8.96508C20.8684 8.65513 20.5 8.40985 20.0945 8.24348C19.6889 8.07711 19.2544 7.99296 18.8161 7.99593ZM15.2658 19.3229C14.3873 19.3229 13.5285 19.0623 12.798 18.5743C12.0675 18.0862 11.4982 17.3924 11.162 16.5808C10.8258 15.7691 10.7378 14.876 10.9092 14.0143C11.0806 13.1527 11.5037 12.3612 12.1249 11.74C12.7461 11.1188 13.5376 10.6957 14.3992 10.5243C15.2609 10.3529 16.154 10.4409 16.9657 10.7771C17.7773 11.1133 18.4711 11.6826 18.9591 12.4131C19.4472 13.1436 19.7077 14.0024 19.7077 14.8809C19.7051 16.0582 19.2363 17.1865 18.4038 18.019C17.5714 18.8514 16.4431 19.3202 15.2658 19.3229ZM19.7077 11.1053C19.532 11.1053 19.3603 11.0532 19.2142 10.9556C19.0681 10.8579 18.9542 10.7192 18.887 10.5569C18.8197 10.3945 18.8022 10.2159 18.8364 10.0436C18.8707 9.87125 18.9553 9.71295 19.0796 9.58871C19.2038 9.46447 19.3621 9.37986 19.5344 9.34558C19.7068 9.3113 19.8854 9.32889 20.0477 9.39613C20.2101 9.46337 20.3488 9.57724 20.4464 9.72333C20.544 9.86943 20.5961 10.0412 20.5961 10.2169C20.5962 10.3336 20.5733 10.4492 20.5287 10.557C20.4841 10.6648 20.4187 10.7628 20.3362 10.8453C20.2537 10.9278 20.1557 10.9933 20.0479 11.0379C19.94 11.0825 19.8244 11.1054 19.7077 11.1053Z" fill="white"/>
<path d="M15.2612 11.7715C14.6462 11.7715 14.0451 11.9539 13.5337 12.2955C13.0224 12.6372 12.6239 13.1228 12.3885 13.691C12.1532 14.2591 12.0916 14.8843 12.2116 15.4875C12.3316 16.0906 12.6277 16.6446 13.0626 17.0795C13.4974 17.5143 14.0514 17.8105 14.6546 17.9305C15.2578 18.0504 15.883 17.9889 16.4511 17.7535C17.0193 17.5182 17.5049 17.1196 17.8465 16.6083C18.1882 16.097 18.3706 15.4958 18.3706 14.8809C18.3718 14.4722 18.2922 14.0673 18.1363 13.6895C17.9805 13.3118 17.7515 12.9685 17.4625 12.6795C17.1736 12.3906 16.8303 12.1616 16.4525 12.0057C16.0747 11.8499 15.6699 11.7703 15.2612 11.7715Z" fill="white"/>
</svg>
