<svg width="26" height="26" viewBox="0 0 26 26" fill="none" xmlns="http://www.w3.org/2000/svg">
<path d="M19.297 13.9427C19.3427 13.898 19.3874 13.8523 19.4311 13.8066L20.7392 17.3644L18.8075 21.7896L17.8223 21.3255L19.1355 17.5698L17.9442 15.2521L19.297 13.9427ZM10.4651 15.0111H15.2132L15.6702 22.3236H16.7671L17.4069 15.0111L18.9152 13.5486C19.4697 13.0114 19.8617 12.3278 20.0445 11.5773L20.7687 8.61279H20.2314C18.4571 8.61279 16.7823 7.96887 15.4711 6.7938L14.4626 7.69873H3.02154C2.07092 7.69873 1.30005 8.46958 1.30005 9.42022V16.8393H2.94536V9.34404C2.94536 9.19169 3.00629 9.05559 3.10582 8.95606C3.20434 8.85653 3.34145 8.79559 3.4938 8.79559V11.7206L4.22505 15.0112L3.4938 16.8393L4.15295 22.3237H5.24984V17.5706L6.01257 16.8455L7.64672 15.2367C8.33838 14.5563 8.73547 13.6087 8.73547 12.6377V11.7206H9.28392V12.6377C9.28392 13.7549 8.8279 14.8437 8.03165 15.6277L6.24618 17.3858L8.38611 22.3237H9.483L8.0205 17.5706L10.4651 15.0111ZM23.6031 8.06419V4.77363L24.0063 4.63956C24.2135 4.5705 24.3872 4.43949 24.5081 4.26987C24.631 4.10128 24.7 3.89511 24.7 3.67676H21.314C19.7896 3.67676 18.3181 4.23942 17.1824 5.25808L15.8824 6.42402C17.0859 7.48331 18.6134 8.06426 20.2314 8.06426L23.6031 8.06419ZM21.4886 9.70442C21.5983 9.9827 21.8664 10.1655 22.1671 10.1655H22.875C23.2771 10.1655 23.6032 9.83949 23.6032 9.4373V8.61159H21.0601L21.4886 9.70442Z" fill="#8D1F56"/>
</svg>
