<svg width="30" height="30" viewBox="0 0 30 30" fill="none" xmlns="http://www.w3.org/2000/svg">
<path d="M14.8813 0C11.9381 0 9.06092 0.872774 6.6137 2.50795C4.16648 4.14313 2.25911 6.46728 1.13278 9.18648C0.00644784 11.9057 -0.288252 14.8978 0.285947 17.7845C0.860146 20.6712 2.27745 23.3228 4.35864 25.404C6.43983 27.4852 9.09143 28.9025 11.9781 29.4767C14.8648 30.0509 17.8569 29.7562 20.5761 28.6298C23.2954 27.5035 25.6195 25.5961 27.2547 23.1489C28.8899 20.7017 29.7626 17.8246 29.7626 14.8813C29.7626 10.9345 28.1948 7.14942 25.404 4.35863C22.6132 1.56785 18.8281 0 14.8813 0ZM19.2861 8.75177H17.2063C16.4715 8.75177 16.3188 9.0523 16.3188 9.81189V11.6473H19.2861L19.0004 14.8673H16.3188V24.4967H12.4754V14.9127H10.4774V11.6506H12.4754V9.08202C12.4754 6.67116 13.7651 5.41206 16.6251 5.41206H19.2861V8.75177Z" fill="white"/>
</svg>
