<svg width="86" height="89" viewBox="0 0 86 89" fill="none" xmlns="http://www.w3.org/2000/svg">
<g clip-path="url(#clip0_336_9705)">
<path d="M84 87C56.6663 87 29.3337 87 2 87C2 58.6663 2 30.3337 2 2C29.3337 2 56.6663 2 84 2C84 30.3337 84 58.6663 84 87ZM33.86 16.6216C33.7262 16.4829 33.633 16.2989 33.5328 16.2948C32.814 16.2701 32.0931 16.2814 31.3346 16.2814V32.3986C30.9935 32.4181 30.6891 32.4356 30.3847 32.453V34.5518C30.7069 34.5693 30.9985 34.5847 31.3415 34.6042C31.3415 34.8098 31.3415 34.9938 31.3415 35.1778C31.3415 36.5304 31.3336 37.884 31.3445 39.2366C31.3544 40.3918 31.992 41.4371 33.0133 41.7095C33.7748 41.913 34.5918 41.8924 35.4058 41.9747V39.6086C35.0925 39.6086 34.8159 39.6097 34.5382 39.6086C33.9265 39.6045 33.8085 39.4976 33.8035 38.8635C33.7946 37.6815 33.8005 36.4995 33.8005 35.3186C33.8005 35.0863 33.8005 34.854 33.8005 34.5765C34.2844 34.5765 34.6959 34.596 35.1034 34.5641C35.2214 34.5549 35.4217 34.4069 35.4267 34.3144C35.4554 33.7049 35.4415 33.0933 35.4415 32.4253H33.8392V25.5461C33.9622 25.5975 34.0375 25.6273 34.1109 25.6602C36.3765 26.6716 38.5183 25.5379 38.8911 23.0146C39.0666 21.8285 39.0557 20.5869 38.9486 19.3885C38.783 17.5343 37.9025 16.5343 36.3379 16.2321C35.4792 16.0666 34.6235 16.1345 33.861 16.6206L33.86 16.6216ZM62.6433 18.3103C62.3677 18.5406 62.1168 18.7359 61.8808 18.9486C60.5591 20.1398 60.1526 21.7237 60.7158 23.4556C61.1897 24.913 62.5055 25.8432 64.1931 25.9634C65.5921 26.0631 66.8722 25.7609 67.9956 24.8411C68.1493 25.0302 68.2693 25.1936 68.4051 25.3416C68.5717 25.5235 68.7452 25.8349 68.9277 25.8442C69.9053 25.8946 70.8869 25.8678 72.0004 25.8678C71.1794 24.8431 70.4477 23.9304 69.713 23.0136C70.5726 21.7525 70.7709 20.3547 70.7967 18.8633H68.4745C68.3684 19.5776 68.2663 20.2611 68.1652 20.9436C68.1106 20.9426 68.0561 20.9405 68.0026 20.9395C67.3967 20.1851 66.7909 19.4317 66.1653 18.6516C66.9991 18.0739 67.7636 17.5107 68.0244 16.5148C68.2822 15.5291 68.1027 14.6051 67.4969 13.8003C66.4468 12.4056 64.1435 12.1651 62.7504 13.2823C61.277 14.4632 61.2314 16.3246 62.6453 18.3103H62.6433ZM40.2455 16.3205V29.4045H42.6708V25.5245C42.8344 25.5944 42.9524 25.6407 43.0674 25.6931C45.113 26.6305 47.222 25.5965 47.7257 23.3404C48.0786 21.7576 48.0658 20.1409 47.6781 18.5611C47.3677 17.2969 46.5725 16.4849 45.2994 16.2444C44.3991 16.0748 43.5285 16.1519 42.7164 16.6247C42.5479 16.228 41.7993 16.1417 40.2455 16.3205ZM13.3055 41.5471C13.5554 41.654 13.719 41.728 13.8855 41.7938C15.8468 42.5708 17.8477 41.5615 18.3385 39.4617C18.7153 37.8501 18.7004 36.2015 18.3068 34.5847C17.9786 33.2383 17.109 32.4417 15.7883 32.2351C14.9623 32.1056 14.1414 32.1735 13.485 32.5784C12.5975 32.0347 11.724 32.4191 10.8594 32.2773V45.4456H13.3065V41.5461L13.3055 41.5471ZM9.16781 16.2599V29.4261H11.5872V25.5348C11.7408 25.5955 11.8162 25.6222 11.8886 25.6551C14.1661 26.6664 16.3029 25.5533 16.6757 23.0321C16.8582 21.7977 16.8562 20.4996 16.7154 19.257C16.5072 17.4161 15.6475 16.5076 14.1017 16.2249C13.2589 16.0707 12.422 16.154 11.8152 16.5189C10.8792 16.0841 10.0245 16.3852 9.16781 16.2609V16.2599ZM73.9438 28.7313V32.6411C73.7406 32.5496 73.6087 32.488 73.4748 32.4314C71.3847 31.5383 69.1646 32.7141 68.8632 35.0205C68.6857 36.3752 68.7155 37.7884 68.8602 39.1523C69.0318 40.7649 69.9767 41.7033 71.4065 41.949C72.2642 42.097 73.1179 42.0384 73.8427 41.5738C73.9924 41.7064 74.1045 41.8904 74.2225 41.8955C74.9265 41.9233 75.6314 41.9089 76.3503 41.9089V28.7323H73.9429L73.9438 28.7313ZM23.1891 25.8401H25.5787C25.5787 23.5306 25.6927 21.2499 25.542 18.9877C25.424 17.2209 24.0815 16.1509 22.377 16.193C21.7534 16.2085 21.1327 16.4058 20.4525 16.5312V12.716H18.0321V25.8257H20.4693C20.4693 25.503 20.4693 25.2296 20.4693 24.9562C20.4713 23.2778 20.4545 21.5993 20.4832 19.9219C20.4981 19.0596 20.9691 18.5765 21.7157 18.5447C22.5942 18.5077 23.0582 18.8787 23.1386 19.7996C23.205 20.5643 23.1822 21.3383 23.1861 22.1081C23.1921 23.3374 23.1881 24.5677 23.1881 25.8411L23.1891 25.8401ZM51.8723 41.8842C51.8842 41.693 51.9 41.5584 51.9 41.4248C51.9 39.4904 51.9139 37.5571 51.8951 35.6228C51.8643 32.4921 49.089 31.6369 47.1773 32.4941C47.0524 32.5507 46.9225 32.5959 46.7133 32.6781V28.7365H44.3425V41.8606H46.745C46.745 40.0187 46.7411 38.2242 46.749 36.4286C46.75 36.1233 46.7748 35.8109 46.8372 35.5138C46.9503 34.9742 47.3469 34.6382 47.8823 34.5744C48.8986 34.4531 49.4549 34.9958 49.4628 36.1531C49.4747 37.8819 49.4668 39.6107 49.4688 41.3385C49.4688 41.5183 49.4846 41.6982 49.4946 41.8842H51.8733H51.8723ZM60.451 41.8256C60.4639 41.7835 60.4907 41.7372 60.4907 41.69C60.4927 39.549 60.5383 37.4071 60.4748 35.2692C60.4362 33.9516 59.8006 32.9752 58.5463 32.4993C57.6033 32.1416 56.6306 32.1303 55.6619 32.2403C54.5643 32.3657 53.6769 32.9073 53.0433 33.9043C53.6025 34.4439 54.1419 34.965 54.7319 35.5344C55.2276 34.5477 56.0427 34.3915 56.9529 34.4963C57.7917 34.594 58.1328 35.0955 57.9444 35.9887C57.4625 35.9887 56.9697 35.9712 56.4779 35.9938C55.9852 36.0154 55.4834 36.0257 55.0035 36.1305C53.6461 36.4286 52.8341 37.5006 52.839 38.9159C52.845 40.4586 53.6392 41.5769 55.0075 41.8791C56.007 42.1001 57.0094 42.1031 57.9543 41.616C58.1784 41.913 59.4516 42.0168 60.45 41.8256H60.451ZM48.2046 24.3765C48.2472 24.4289 48.3077 24.5091 48.3721 24.5841C49.9179 26.39 53.6223 26.3016 54.9996 25.208C55.9524 24.4525 56.2717 23.4463 56.123 22.2643C55.9861 21.1738 55.3585 20.4605 54.358 20.1388C53.9069 19.9939 53.422 19.9559 52.9511 19.8849C52.4791 19.814 51.9962 19.8007 51.5371 19.6835C51.3616 19.6393 51.1227 19.3772 51.1217 19.2117C51.1197 19.0062 51.2972 18.7554 51.4657 18.6053C51.5986 18.4871 51.8326 18.4635 52.025 18.447C52.8916 18.3751 53.7046 18.5241 54.3352 19.1439C54.8955 18.5981 55.4309 18.0781 55.9504 17.5713C55.9098 17.483 55.9019 17.447 55.882 17.4244C55.8374 17.374 55.7888 17.3278 55.7373 17.2846C54.2867 16.0851 52.6308 15.9289 50.9134 16.3822C49.3686 16.7892 48.5685 18.0493 48.7112 19.6352C48.8362 21.0248 49.8059 21.8953 51.4023 22.0567C51.9932 22.1163 52.5901 22.1451 53.1702 22.2664C53.3774 22.3096 53.6759 22.5737 53.6888 22.7546C53.7046 22.9797 53.5182 23.2952 53.3259 23.4412C53.1176 23.6005 52.8063 23.6529 52.5336 23.6765C51.4826 23.767 50.5337 23.5172 49.8119 22.6487C49.2705 23.2305 48.7588 23.7804 48.2056 24.3755L48.2046 24.3765ZM43.4383 40.4628C42.9127 39.8265 42.42 39.2314 41.8548 38.5469C41.6436 38.808 41.5206 38.9909 41.3699 39.143C40.4756 40.0424 39.0874 39.7197 38.6928 38.4976C38.3973 37.5839 38.3963 36.6311 38.6819 35.7184C39.0745 34.4655 40.4865 34.1438 41.3868 35.077C41.5335 35.2291 41.6178 35.446 41.7675 35.6927C42.4438 34.9496 42.9703 34.3719 43.4968 33.7943C41.6803 31.453 38.0661 31.6657 36.6819 34.2106C36.0236 35.4224 35.975 36.7493 36.1029 38.0998C36.2744 39.9047 37.3473 41.3343 38.9228 41.8205C40.6907 42.3663 42.414 41.8246 43.4393 40.4638L43.4383 40.4628ZM19.8457 41.8709H22.2571C22.2571 41.6519 22.2571 41.468 22.2571 41.283C22.2571 39.6415 22.2541 37.9991 22.26 36.3577C22.26 36.1203 22.2779 35.8767 22.3304 35.6475C22.5813 34.5539 23.7077 34.2003 24.5148 34.9527C24.6239 35.0544 24.7389 35.1479 24.8341 35.2302C25.4359 34.6011 26.0229 33.9865 26.6119 33.3698C25.6878 32.1221 24.372 31.9001 22.3235 32.6432C22.2174 32.5188 22.1272 32.3153 22.029 32.3112C21.3102 32.2834 20.5903 32.2968 19.8467 32.2968V41.8709H19.8457ZM64.4558 41.8791C64.4737 41.7681 64.4896 41.7187 64.4896 41.6684C64.4915 39.9232 64.4876 38.179 64.4975 36.4337C64.4995 36.1285 64.5183 35.8119 64.6006 35.5221C64.8753 34.5559 65.9679 34.2414 66.7017 34.8972C66.8345 35.0154 66.9674 35.1346 67.0378 35.1963C67.6565 34.5518 68.2425 33.9413 68.8464 33.3123C67.597 31.9155 66.1028 31.9401 64.5828 32.6349C64.4499 32.5013 64.3517 32.3143 64.2466 32.3112C63.5298 32.2855 62.8109 32.2978 62.094 32.2978V41.8791H64.4568H64.4558ZM29.5052 16.3133H27.1077V25.8391H29.5052V16.3133ZM29.4983 41.8811V32.3544H27.1156V41.8811H29.4983ZM27.0502 12.6862V15.2536H29.534V12.6862H27.0502ZM29.5459 28.6984C28.7655 28.6984 28.0268 28.6892 27.2891 28.7108C27.1949 28.7138 27.0283 28.8773 27.0264 28.9698C27.0045 29.7324 27.0145 30.495 27.0145 31.2906H29.5459V28.6995V28.6984Z" fill="#8D1F56"/>
<path d="M33.8601 16.6217C34.6236 16.1356 35.4783 16.0667 36.337 16.2332C37.9016 16.5354 38.7811 17.5354 38.9477 19.3896C39.0548 20.588 39.0657 21.8296 38.8902 23.0157C38.5174 25.539 36.3746 26.6727 34.11 25.6613C34.0366 25.6284 33.9612 25.5986 33.8383 25.5472V32.4264H35.4406C35.4406 33.0945 35.4545 33.706 35.4257 34.3155C35.4218 34.408 35.2205 34.556 35.1025 34.5653C34.695 34.5961 34.2835 34.5776 33.7996 34.5776C33.7996 34.8561 33.7996 35.0874 33.7996 35.3197C33.7996 36.5016 33.7937 37.6836 33.8026 38.8646C33.8076 39.4987 33.9246 39.6056 34.5373 39.6098C34.815 39.6118 35.0916 39.6098 35.4049 39.6098V41.9758C34.5919 41.8946 33.7738 41.9141 33.0123 41.7106C31.9911 41.4372 31.3535 40.3929 31.3436 39.2377C31.3327 37.8851 31.3406 36.5315 31.3406 35.1789C31.3406 34.9949 31.3406 34.8109 31.3406 34.6053C30.9966 34.5868 30.706 34.5704 30.3838 34.5529V32.4541C30.6882 32.4367 30.9926 32.4192 31.3337 32.3997V16.2825C32.0932 16.2825 32.8131 16.2712 33.5319 16.2959C33.6321 16.299 33.7263 16.484 33.8591 16.6228L33.8601 16.6217ZM33.7788 20.8758C33.8046 21.4082 33.8125 21.7669 33.8423 22.1236C33.8561 22.2922 33.9018 22.4587 33.9454 22.6221C34.1278 23.2963 34.4957 23.5954 35.1471 23.6067C35.8749 23.6191 36.2329 23.3837 36.4183 22.6642C36.6909 21.6076 36.688 20.5325 36.4222 19.476C36.2418 18.7585 35.86 18.5232 35.0936 18.5458C34.456 18.5643 34.0723 18.8809 33.9355 19.5787C33.8413 20.0598 33.8145 20.5562 33.7768 20.8769L33.7788 20.8758Z" fill="white"/>
<path d="M62.6433 18.3102C61.2294 16.3235 61.275 14.4631 62.7484 13.2822C64.1415 12.1649 66.4448 12.4065 67.4949 13.8002C68.1007 14.6039 68.2802 15.529 68.0224 16.5146C67.7616 17.5096 66.9971 18.0728 66.1632 18.6515C66.7899 19.4305 67.3957 20.185 68.0006 20.9394C68.0551 20.9404 68.1096 20.9424 68.1632 20.9435C68.2653 20.26 68.3664 19.5765 68.4725 18.8632H70.7947C70.7689 20.3545 70.5706 21.7534 69.711 23.0135C70.4457 23.9303 71.1774 24.843 71.9984 25.8677C70.8859 25.8677 69.9043 25.8944 68.9257 25.8441C68.7432 25.8348 68.5697 25.5234 68.4031 25.3415C68.2673 25.1935 68.1473 25.0301 67.9936 24.8409C66.8702 25.7608 65.5901 26.063 64.1911 25.9633C62.5035 25.8431 61.1877 24.9129 60.7138 23.4554C60.1506 21.7236 60.5581 20.1397 61.8788 18.9485C62.1148 18.7357 62.3657 18.5405 62.6413 18.3102H62.6433ZM64.1147 20.0791C62.9437 20.8356 62.5967 22.0042 63.2471 22.886C63.9263 23.807 65.4612 23.844 66.4478 22.9385C65.7756 22.1059 65.1033 21.2713 64.4291 20.4378C64.3349 20.3217 64.2317 20.2127 64.1147 20.0791ZM64.7404 16.8949C65.6873 16.3286 65.9402 15.8281 65.5822 15.27C65.3433 14.8969 64.6859 14.8116 64.3577 15.1117C63.9164 15.5146 64.0513 16.1662 64.7404 16.8939V16.8949Z" fill="white"/>
<path d="M40.2456 16.3206C41.8003 16.1417 42.548 16.2281 42.7165 16.6248C43.5286 16.152 44.3991 16.0749 45.2995 16.2445C46.5726 16.485 47.3678 17.297 47.6782 18.5612C48.0658 20.1399 48.0797 21.7577 47.7258 23.3405C47.2221 25.5976 45.1131 26.6306 43.0675 25.6932C42.9525 25.6408 42.8345 25.5935 42.6709 25.5246V29.4046H40.2456V16.3206ZM42.6104 21.0454C42.6927 21.5994 42.7363 22.1627 42.8682 22.7043C43.0259 23.3529 43.4046 23.6016 44.0709 23.6088C44.7293 23.616 45.1289 23.3673 45.2925 22.728C45.5761 21.622 45.5721 20.4966 45.2886 19.3917C45.1279 18.7647 44.7333 18.5365 44.0442 18.5448C43.4116 18.552 43.0298 18.8017 42.8732 19.4225C42.7413 19.9457 42.6967 20.4925 42.6104 21.0454Z" fill="white"/>
<path d="M13.3055 41.5472V45.4467H10.8584V32.2784C11.722 32.4202 12.5966 32.0348 13.484 32.5796C14.1414 32.1746 14.9624 32.1068 15.7873 32.2363C17.108 32.4439 17.9786 33.2404 18.3058 34.5858C18.6995 36.2026 18.7143 37.8502 18.3376 39.4628C17.8467 41.5626 15.8458 42.5719 13.8846 41.7949C13.718 41.7291 13.5544 41.6551 13.3045 41.5482L13.3055 41.5472ZM16.1423 37.1297C16.0828 36.5921 16.064 36.0772 15.9628 35.5797C15.824 34.8962 15.4244 34.5797 14.7879 34.5571C14.0759 34.5324 13.6803 34.776 13.4929 35.478C13.2024 36.5654 13.2014 37.6724 13.5068 38.7588C13.6912 39.4145 14.0858 39.655 14.7819 39.6334C15.4264 39.6139 15.8062 39.3354 15.947 38.6745C16.056 38.1626 16.0818 37.6302 16.1423 37.1286V37.1297Z" fill="white"/>
<path d="M9.16797 16.2595C10.0247 16.3838 10.8794 16.0827 11.8154 16.5175C12.4222 16.1526 13.259 16.0683 14.1019 16.2235C15.6467 16.5072 16.5073 17.4147 16.7155 19.2555C16.8563 20.4982 16.8583 21.7963 16.6759 23.0307C16.3031 25.5519 14.1663 26.665 11.8887 25.6537C11.8154 25.6208 11.741 25.5941 11.5873 25.5334V29.4247H9.16797V16.2585V16.2595ZM11.5338 21.1477C11.6171 21.6596 11.6607 22.2588 11.8233 22.8221C11.9978 23.4264 12.3538 23.6114 13.0032 23.6032C13.6497 23.596 14.0027 23.3904 14.1742 22.7984C14.4975 21.6802 14.4915 20.5372 14.199 19.4159C14.0215 18.7386 13.6219 18.5186 12.8773 18.5443C12.2844 18.5649 11.8887 18.8619 11.7509 19.4909C11.6389 20.0028 11.6111 20.5331 11.5348 21.1467L11.5338 21.1477Z" fill="white"/>
<path d="M73.944 28.7313H76.3514V41.9078C75.6326 41.9078 74.9276 41.9222 74.2236 41.8944C74.1046 41.8893 73.9936 41.7053 73.8438 41.5727C73.119 42.0383 72.2653 42.0959 71.4076 41.9479C69.9778 41.7012 69.0329 40.7638 68.8614 39.1512C68.7166 37.7883 68.6878 36.3751 68.8643 35.0194C69.1658 32.713 71.3858 31.5372 73.476 32.4303C73.6098 32.4879 73.7417 32.5485 73.945 32.64V28.7302L73.944 28.7313ZM74.0114 37.0956C73.9291 36.5272 73.8875 35.9629 73.7586 35.4213C73.6207 34.8416 73.2231 34.5774 72.6213 34.5548C71.9877 34.5302 71.5514 34.7645 71.3759 35.3411C71.0269 36.4912 71.0328 37.665 71.365 38.8161C71.5405 39.4246 71.9371 39.6497 72.5816 39.6394C73.2053 39.6302 73.6049 39.3691 73.7556 38.7565C73.8885 38.2159 73.9291 37.6516 74.0104 37.0956H74.0114Z" fill="white"/>
<path d="M23.1892 25.84C23.1892 24.5665 23.1941 23.3373 23.1872 22.107C23.1832 21.3372 23.206 20.5632 23.1396 19.7985C23.0593 18.8776 22.5953 18.5066 21.7168 18.5436C20.9691 18.5754 20.4982 19.0575 20.4843 19.9208C20.4565 21.5982 20.4724 23.2777 20.4704 24.955C20.4704 25.2284 20.4704 25.5018 20.4704 25.8246H18.0332V12.7148H20.4535V16.5301C21.1347 16.4047 21.7544 16.2073 22.3781 16.1919C24.0816 16.1508 25.4251 17.2197 25.5431 18.9865C25.6938 21.2477 25.5798 23.5284 25.5798 25.839H23.1902L23.1892 25.84Z" fill="white"/>
<path d="M51.872 41.8843H49.4933C49.4844 41.6983 49.4685 41.5184 49.4675 41.3386C49.4646 39.6098 49.4735 37.881 49.4616 36.1533C49.4537 34.9949 48.8974 34.4533 47.8811 34.5745C47.3447 34.6383 46.949 34.9744 46.836 35.514C46.7735 35.812 46.7497 36.1235 46.7478 36.4287C46.7398 38.2243 46.7438 40.0199 46.7438 41.8607H44.3413V28.7366H46.7121V32.6782C46.9213 32.595 47.0512 32.5498 47.1761 32.4943C49.0888 31.6371 51.8631 32.4922 51.8938 35.6229C51.9127 37.5562 51.8998 39.4906 51.8988 41.4249C51.8988 41.5595 51.8829 41.6932 51.871 41.8843H51.872Z" fill="white"/>
<path d="M60.4509 41.8261C59.4534 42.0162 58.1793 41.9124 57.9552 41.6164C57.0093 42.1036 56.0078 42.1005 55.0084 41.8795C53.64 41.5763 52.8458 40.458 52.8399 38.9163C52.8349 37.501 53.646 36.429 55.0044 36.1309C55.4843 36.0261 55.986 36.0158 56.4788 35.9942C56.9706 35.9727 57.4644 35.9891 57.9453 35.9891C58.1337 35.0959 57.7926 34.5944 56.9537 34.4967C56.0435 34.3909 55.2285 34.5481 54.7327 35.5348C54.1427 34.9654 53.6033 34.4453 53.0441 33.9047C53.6777 32.9077 54.5651 32.3661 55.6628 32.2407C56.6315 32.1297 57.6042 32.141 58.5471 32.4997C59.8004 32.9756 60.437 33.953 60.4757 35.2696C60.5381 37.4085 60.4935 39.5505 60.4915 41.6904C60.4915 41.7377 60.4648 41.7849 60.4519 41.8261H60.4509ZM57.9572 37.9481C57.2691 37.9882 56.5651 37.9944 55.87 38.0817C55.4417 38.1352 55.2374 38.4713 55.2453 38.9287C55.2533 39.3809 55.5111 39.6183 55.9017 39.6964C56.1575 39.7478 56.4263 39.7488 56.689 39.7396C57.7757 39.6995 58.1585 39.1846 57.9562 37.9471L57.9572 37.9481Z" fill="white"/>
<path d="M48.2046 24.3767C48.7579 23.7816 49.2695 23.2318 49.8109 22.65C50.5337 23.5185 51.4816 23.7683 52.5327 23.6778C52.8053 23.6542 53.1167 23.6018 53.3249 23.4425C53.5163 23.2965 53.7037 22.981 53.6878 22.7559C53.6749 22.574 53.3765 22.3108 53.1692 22.2677C52.5902 22.1464 51.9923 22.1176 51.4013 22.058C49.8049 21.8966 48.8352 21.0261 48.7103 19.6365C48.5675 18.0506 49.3677 16.7915 50.9125 16.3835C52.6298 15.9302 54.2847 16.0864 55.7363 17.2859C55.7879 17.328 55.8365 17.3753 55.8811 17.4257C55.9019 17.4493 55.9098 17.4842 55.9495 17.5726C55.4289 18.0793 54.8945 18.5994 54.3343 19.1452C53.7027 18.5254 52.8906 18.3764 52.024 18.4483C51.8316 18.4637 51.5976 18.4874 51.4648 18.6066C51.2962 18.7556 51.1187 19.0075 51.1207 19.213C51.1217 19.3775 51.3617 19.6396 51.5362 19.6848C51.9952 19.802 52.4791 19.8153 52.9501 19.8862C53.4221 19.9572 53.9059 19.9952 54.3571 20.1401C55.3565 20.4618 55.9852 21.1751 56.122 22.2656C56.2698 23.4476 55.9515 24.4528 54.9986 25.2093C53.6214 26.3018 49.917 26.3902 48.3712 24.5854C48.3067 24.5093 48.2462 24.4302 48.2036 24.3778L48.2046 24.3767Z" fill="white"/>
<path d="M43.4383 40.4627C42.413 41.8246 40.6897 42.3652 38.9218 41.8194C37.3463 41.3333 36.2734 39.9036 36.1019 38.0987C35.974 36.7472 36.0226 35.4203 36.6809 34.2095C38.0651 31.6646 41.6793 31.4529 43.4958 33.7932C42.9693 34.3709 42.4428 34.9495 41.7665 35.6916C41.6168 35.4449 41.5325 35.2281 41.3858 35.0759C40.4855 34.1427 39.0735 34.4644 38.6809 35.7173C38.3953 36.63 38.3963 37.5818 38.6918 38.4965C39.0864 39.7196 40.4746 40.0413 41.3689 39.142C41.5206 38.9899 41.6436 38.8069 41.8538 38.5458C42.42 39.2304 42.9118 39.8255 43.4373 40.4617L43.4383 40.4627Z" fill="white"/>
<path d="M19.8457 41.8712V32.2971C20.5894 32.2971 21.3092 32.2848 22.0281 32.3115C22.1263 32.3156 22.2175 32.5181 22.3226 32.6435C24.3711 31.9004 25.6869 32.1224 26.611 33.3702C26.022 33.9868 25.434 34.6005 24.8331 35.2305C24.7389 35.1483 24.6229 35.0547 24.5139 34.953C23.7068 34.2006 22.5804 34.5542 22.3295 35.6478C22.277 35.878 22.2601 36.1216 22.2591 36.358C22.2532 37.9994 22.2561 39.6419 22.2561 41.2833C22.2561 41.4673 22.2561 41.6523 22.2561 41.8712H19.8447H19.8457Z" fill="white"/>
<path d="M64.4556 41.8792H62.0928V32.298C62.8097 32.298 63.5285 32.2856 64.2454 32.3113C64.3505 32.3154 64.4497 32.5025 64.5815 32.6351C66.1015 31.9403 67.5958 31.9156 68.8451 33.3124C68.2413 33.9414 67.6553 34.5519 67.0366 35.1964C66.9662 35.1337 66.8333 35.0155 66.7004 34.8973C65.9657 34.2405 64.873 34.555 64.5994 35.5222C64.5171 35.812 64.4982 36.1296 64.4963 36.4339C64.4863 38.1781 64.4903 39.9233 64.4883 41.6685C64.4883 41.7189 64.4735 41.7682 64.4546 41.8792H64.4556Z" fill="white"/>
<path d="M29.5054 16.3132V25.839H27.1079V16.3132H29.5054Z" fill="white"/>
<path d="M29.4984 41.881H27.1157V32.3542H29.4984V41.881Z" fill="white"/>
<path d="M27.0503 12.6865H29.5341V15.254H27.0503V12.6865Z" fill="white"/>
<path d="M29.546 28.6983V31.2894H27.0146C27.0146 30.4949 27.0057 29.7313 27.0265 28.9686C27.0295 28.8761 27.1951 28.7127 27.2893 28.7096C28.027 28.688 28.7647 28.6973 29.546 28.6973V28.6983Z" fill="white"/>
<path d="M33.7788 20.8755C33.8165 20.5548 33.8423 20.0594 33.9375 19.5774C34.0743 18.8795 34.458 18.5629 35.0956 18.5444C35.862 18.5218 36.2438 18.7572 36.4242 19.4746C36.69 20.5312 36.6929 21.6063 36.4203 22.6629C36.2348 23.3823 35.8769 23.6177 35.1491 23.6054C34.4977 23.5941 34.1288 23.295 33.9474 22.6207C33.9028 22.4573 33.8571 22.2898 33.8443 22.1222C33.8155 21.7656 33.8066 21.4069 33.7808 20.8745L33.7788 20.8755Z" fill="#8D1F56"/>
<path d="M64.1148 20.0791C64.2318 20.2127 64.335 20.3217 64.4292 20.4378C65.1034 21.2703 65.7757 22.1049 66.4479 22.9385C65.4613 23.844 63.9265 23.807 63.2472 22.8861C62.5968 22.0042 62.9438 20.8366 64.1148 20.0791Z" fill="#8D1F56"/>
<path d="M64.7405 16.8947C64.0513 16.167 63.9165 15.5154 64.3577 15.1125C64.6869 14.8124 65.3433 14.8966 65.5823 15.2708C65.9402 15.8289 65.6874 16.3284 64.7405 16.8957V16.8947Z" fill="#8D1F56"/>
<path d="M42.6104 21.0458C42.6966 20.4928 42.7402 19.946 42.8731 19.4229C43.0298 18.8021 43.4125 18.5523 44.0441 18.5451C44.7332 18.5369 45.1269 18.7651 45.2885 19.3921C45.5721 20.4969 45.576 21.6224 45.2925 22.7283C45.1279 23.3676 44.7283 23.6164 44.0709 23.6092C43.4036 23.602 43.0258 23.3532 42.8682 22.7047C42.7363 22.1641 42.6936 21.5998 42.6104 21.0458Z" fill="#8D1F56"/>
<path d="M16.1424 37.1299C16.0819 37.6315 16.0571 38.1629 15.9471 38.6757C15.8063 39.3356 15.4265 39.6141 14.782 39.6347C14.086 39.6563 13.6913 39.4158 13.5069 38.76C13.2015 37.6736 13.2035 36.5667 13.493 35.4792C13.6804 34.7772 14.0761 34.5337 14.788 34.5583C15.4245 34.5799 15.8241 34.8965 15.9629 35.581C16.0631 36.0785 16.0829 36.5934 16.1424 37.1309V37.1299Z" fill="#8D1F56"/>
<path d="M11.5337 21.1481C11.6101 20.5345 11.6378 20.0042 11.7499 19.4923C11.8877 18.8623 12.2823 18.5662 12.8762 18.5457C13.6209 18.52 14.0205 18.7399 14.198 19.4173C14.4915 20.5386 14.4974 21.6815 14.1732 22.7998C14.0016 23.3918 13.6487 23.5974 13.0022 23.6046C12.3537 23.6118 11.9968 23.4268 11.8222 22.8234C11.6596 22.2602 11.617 21.66 11.5327 21.1491L11.5337 21.1481Z" fill="#8D1F56"/>
<path d="M74.011 37.0952C73.9297 37.6513 73.8891 38.2156 73.7562 38.7562C73.6055 39.3688 73.2059 39.6298 72.5822 39.6391C71.9387 39.6483 71.5421 39.4243 71.3656 38.8158C71.0324 37.6647 71.0275 36.4909 71.3765 35.3408C71.552 34.7631 71.9873 34.5298 72.6219 34.5545C73.2237 34.5781 73.6223 34.8413 73.7592 35.4209C73.8881 35.9626 73.9297 36.5269 74.012 37.0952H74.011Z" fill="#8D1F56"/>
<path d="M57.9572 37.9473C58.1594 39.1837 57.7757 39.6997 56.69 39.7398C56.4282 39.749 56.1585 39.748 55.9027 39.6966C55.512 39.6175 55.2542 39.3811 55.2463 38.9288C55.2384 38.4714 55.4416 38.1354 55.871 38.0819C56.5661 37.9956 57.27 37.9884 57.9582 37.9483L57.9572 37.9473Z" fill="#8D1F56"/>
</g>
<rect x="1" y="1" width="84" height="87" stroke="white" stroke-width="2"/>
<defs>
<clipPath id="clip0_336_9705">
<rect x="2" y="2" width="82" height="85" fill="white"/>
</clipPath>
</defs>
</svg>
