<svg width="14" height="20" viewBox="0 0 14 20" fill="none" xmlns="http://www.w3.org/2000/svg">
<path fill-rule="evenodd" clip-rule="evenodd" d="M7.00018 19.5658H9.80098C10.8893 19.5658 11.2229 19.1119 11.7393 17.8291C11.8268 17.6119 11.9658 17.2595 12.1338 16.8127H1.8674C2.03459 17.2588 2.17364 17.6119 2.26194 17.8291C2.77756 19.1103 3.11116 19.5658 4.20022 19.5658H7.00102H7.00018ZM12.4158 16.04C13.2502 13.7002 14.3908 9.95639 13.8572 8.21739C13.8423 8.16739 13.8259 8.11818 13.8095 8.06896H0.191527C0.174339 8.11817 0.158715 8.16739 0.143871 8.21739C-0.389729 9.95645 0.750111 13.7002 1.58527 16.04H12.4173H12.4158ZM13.4845 7.29539C12.6009 5.54773 11.0665 4.57899 10.8243 3.93439C10.5431 3.18439 12.5118 0.433594 12.5118 0.433594H1.48604C1.48604 0.433594 3.45558 3.18439 3.17354 3.93439C2.93136 4.57971 1.39698 5.54689 0.513343 7.29539H13.4845Z" fill="#8D1F56"/>
</svg>
