<svg width="23" height="19" viewBox="0 0 23 19" fill="none" xmlns="http://www.w3.org/2000/svg">
<path fill-rule="evenodd" clip-rule="evenodd" d="M20.875 7.41698V9.49998H19.8037C19.8154 9.32712 19.833 9.15525 19.833 8.97948C19.833 4.66297 15.8692 1.16697 10.9795 1.16697C10.0596 1.16697 9.17382 1.291 8.34074 1.51952C7.57707 0.669925 6.48234 0.125 5.24999 0.125V3.02825C4.07227 3.91205 3.16602 5.0634 2.63974 6.375H0.0419922V9.5C0.0419922 10.0762 0.506842 10.542 1.08302 10.542H2.30274C2.70509 12.2871 3.76857 13.8182 5.24999 14.9307V18.875H8.37499V16.4473C9.19922 16.6709 10.0732 16.792 10.9795 16.792C11.8857 16.792 12.7598 16.6709 13.583 16.4473V18.875H16.708V14.9307C17.8867 14.046 18.7929 12.8946 19.3182 11.583H20.8749C22.0243 11.583 22.9579 10.6494 22.9579 9.5C22.9579 8.3506 22.0244 7.41698 20.875 7.41698Z" fill="#8D1F56"/>
</svg>
