<svg width="50" height="47" viewBox="0 0 50 47" fill="none" xmlns="http://www.w3.org/2000/svg">
<g clip-path="url(#clip0_357_11190)">
<path d="M25.0659 19.8544V17.9112C24.5559 17.6801 24.0643 17.5317 23.6598 17.2555C23.1246 16.8906 22.9105 16.3069 22.9098 15.6581C22.9098 15.2985 22.9335 14.9466 23.3861 14.9344C23.2286 14.5121 23.0214 14.115 22.9373 13.6935C22.8073 13.0424 22.9335 12.8466 23.4213 12.6538C22.7278 11.1275 22.7148 10.6662 23.3425 10.4291C23.2034 10.0289 23.0038 9.63954 22.9388 9.22871C22.8272 8.52334 22.9273 8.38411 23.4564 8.20891C23.3945 8.11099 23.3165 8.0276 23.2859 7.93044C23.1544 7.51273 22.9709 7.09654 22.9319 6.66889C22.8799 6.10658 23.0153 6.01631 23.5948 6.00713C23.734 6.00483 23.8747 6.01707 24.013 6.03467C24.1499 6.0515 24.2852 6.08363 24.4473 6.11423C24.4473 5.89466 24.4473 5.69575 24.4473 5.49761C24.4473 4.82284 24.7539 4.30721 25.2624 3.88643C25.4902 3.69823 25.6829 3.70971 25.9008 3.89867C26.4329 4.35999 26.725 4.92536 26.6921 5.64067C26.6853 5.78985 26.6776 5.93827 26.6707 6.08133C27.037 6.05762 27.3757 6.02319 27.7136 6.01707C28.0477 6.01095 28.1968 6.17237 28.2213 6.52888C28.2641 7.15163 28.0661 7.6795 27.6937 8.15C27.8681 8.27394 28.1349 8.36804 28.151 8.49351C28.1984 8.86379 28.19 9.25472 28.1181 9.62118C28.0646 9.8943 27.878 10.1406 27.7343 10.4336C28.2129 10.4696 28.2114 10.8032 28.2251 11.1451C28.2481 11.7113 28.021 12.1833 27.6807 12.6133C28.167 12.8703 28.164 12.8695 28.0164 13.4364C27.8918 13.9138 27.7748 14.3927 27.6402 14.9252C28.3046 14.9313 28.229 15.4003 28.2152 15.8203C28.1823 16.8447 27.4621 17.5623 26.2051 17.7895V20.5444C28.2504 18.2952 30.2559 16.0896 32.2828 13.861C34.8586 16.1217 37.4062 18.3572 39.9538 20.5934L39.9171 20.7043C39.4515 20.7043 38.9859 20.7043 38.521 20.7043C38.1517 20.7043 37.7725 20.6515 37.4146 20.7166C36.7036 20.8466 36.1951 20.5911 35.6959 20.0969C34.7822 19.1934 33.8096 18.3488 32.8608 17.4797C32.7774 17.4032 32.6895 17.332 32.5702 17.231C32.3707 17.4445 32.1788 17.6411 31.996 17.8469C30.1297 19.9546 28.2687 22.0669 26.3932 24.1669C26.1539 24.4347 26.0422 24.707 26.0637 25.0597C26.0835 25.3856 26.0682 25.7138 26.0682 26.1445C26.2082 26.0091 26.2884 25.9441 26.3542 25.866C27.8627 24.0889 29.3812 22.3209 30.8675 20.5253C31.1978 20.1267 31.5228 19.9332 32.0534 19.9706C32.7752 20.0219 33.503 19.9837 34.3418 19.9837C31.3951 23.3628 28.508 26.6739 25.585 30.0256C22.6666 26.6387 19.7704 23.2779 16.8023 19.8337C17.1494 19.8337 17.4071 19.8337 17.6647 19.8337C18.2764 19.8352 18.8888 19.8176 19.499 19.8505C19.6863 19.8605 19.9225 19.9607 20.041 20.1007C21.5419 21.8672 23.0244 23.6497 24.5131 25.4261C24.6308 25.5669 24.7593 25.6993 24.8824 25.8354C24.9191 25.824 24.9565 25.8125 24.9932 25.801C24.9932 25.2234 24.9978 24.645 24.9871 24.0674C24.9856 23.9917 24.9137 23.9083 24.8556 23.8448C22.9044 21.7287 20.9509 19.6141 18.9974 17.5003C18.9385 17.4368 18.8666 17.3856 18.6587 17.2066C18.5746 17.3557 18.5211 17.5294 18.4071 17.6434C17.4376 18.6196 16.4597 19.5874 15.4773 20.5505C15.3855 20.6408 15.2464 20.7372 15.1278 20.7387C13.8296 20.7518 12.5321 20.7472 11.1772 20.6622C13.7975 18.3625 16.4185 16.0636 19.0777 13.7294C21.0511 15.8042 23.0076 17.8607 24.9642 19.9179C24.9986 19.8964 25.0322 19.8758 25.0666 19.8544H25.0659Z" fill="white"/>
<path d="M14.0881 16.3279C13.9291 15.517 13.7601 14.8032 13.6523 14.081C13.3212 11.87 13.4183 9.68737 14.147 7.55367C15.0041 5.04357 16.5883 3.10343 18.8996 1.84646C23.0704 -0.422646 27.3758 -0.505271 31.6827 1.43411C34.283 2.60462 35.9406 4.68477 36.8543 7.36623C37.8253 10.2137 37.8322 13.1186 37.3482 16.0502C37.3406 16.0976 37.3115 16.142 37.2756 16.2254C36.5615 15.6172 35.8581 15.0335 35.1791 14.4222C35.0904 14.3419 35.0942 14.1177 35.1111 13.967C35.3404 11.9664 35.147 10.0247 34.3235 8.16876C33.4496 6.19878 31.9549 4.81176 30.1122 3.78584C26.9828 2.04461 23.9054 2.37128 20.8944 4.12093C19.6742 4.83012 18.5625 5.66937 17.752 6.85595C16.9224 8.07084 16.414 9.41731 16.2962 10.8686C16.2052 11.9909 16.2939 13.127 16.2985 14.2577C16.2985 14.3495 16.3016 14.4803 16.2473 14.527C15.563 15.1092 14.8688 15.6799 14.0874 16.3279H14.0881Z" fill="white"/>
<path d="M37.049 46.1992C37.1323 46.4654 37.0604 46.5802 36.7905 46.5794C35.0068 46.5748 33.223 46.5817 31.4392 46.5695C31.3482 46.5695 31.258 46.4302 31.1678 46.356C31.2527 46.2887 31.3284 46.1846 31.4239 46.1617C31.6204 46.115 31.8276 46.1181 32.0295 46.0905C32.5027 46.0255 32.7413 45.7838 32.6075 45.3416C32.3949 44.6385 32.0891 43.9637 31.8032 43.2844C31.7749 43.2163 31.6135 43.1719 31.5134 43.1711C30.303 43.1643 29.0927 43.1612 27.8824 43.1765C27.7616 43.178 27.5743 43.2783 27.5345 43.3792C27.2975 43.9829 27.0712 44.5926 26.8884 45.2138C26.75 45.6835 26.9526 45.9651 27.4328 46.076C27.5689 46.1074 27.7088 46.1257 27.848 46.1426C27.9848 46.1594 28.1225 46.1678 28.254 46.1793C28.3572 46.457 28.2937 46.5802 27.9986 46.5794C24.9785 46.5756 21.9592 46.5756 18.9391 46.5809C18.6424 46.5809 18.6317 46.431 18.6952 46.1854C18.9605 46.1548 19.2357 46.1257 19.5094 46.0905C19.9957 46.0278 20.2113 45.7585 20.0844 45.2658C19.9705 44.8252 19.7365 44.4151 19.6226 43.9744C19.4437 43.2821 19.0316 43.1015 18.3465 43.1482C17.3954 43.2132 16.4358 43.1727 15.4809 43.1597C15.211 43.1558 15.0619 43.2392 14.9778 43.5055C14.8019 44.0632 14.5741 44.6064 14.4127 45.1679C14.2637 45.6881 14.4548 45.9681 14.9839 46.0791C15.2431 46.1334 15.5092 46.1533 15.7989 46.1923C15.805 46.304 15.8112 46.4119 15.818 46.5503H12.1763C12.1213 46.3399 12.093 46.1808 12.3774 46.1227C12.8469 46.027 13.1749 45.7172 13.3691 45.2964C13.8707 44.2101 14.36 43.1168 14.8348 42.0182C15.8448 39.6795 16.8388 37.3347 17.8518 34.9975C17.9092 34.8659 18.0674 34.7404 18.2066 34.6899C18.4413 34.6042 18.5308 34.797 18.6141 34.9822C20.0164 38.1081 21.4209 41.2341 22.83 44.357C22.9921 44.7165 23.1947 45.057 23.366 45.412C23.8905 46.4983 25.2339 46.3208 25.7224 45.4839C26.0229 44.969 26.2775 44.4235 26.5153 43.8757C27.799 40.9196 29.0698 37.9574 30.3566 35.0028C30.4147 34.8697 30.5729 34.7412 30.7129 34.6907C30.943 34.608 31.0401 34.794 31.1242 34.9814C32.1029 37.1526 33.08 39.3253 34.0701 41.4919C34.652 42.7657 35.2407 44.0364 35.8562 45.2941C36.1735 45.9429 36.3723 46.0569 37.0482 46.1992H37.049ZM29.7212 38.47C29.6654 38.47 29.6096 38.4684 29.5538 38.4677C29.0033 39.7927 28.4535 41.1185 27.8877 42.4811H31.5019C30.891 41.1048 30.3061 39.7874 29.7212 38.47ZM17.218 38.4654C17.1629 38.47 17.1071 38.4753 17.0521 38.4799C16.5069 39.8004 15.9618 41.1208 15.4021 42.4788H18.9895C18.3825 41.1032 17.8006 39.7843 17.2188 38.4654H17.218Z" fill="white"/>
<path d="M36.6623 34.9295C36.7318 34.9211 36.793 34.9066 36.8549 34.9066C38.7786 34.9051 40.7031 34.9028 42.6268 34.9135C42.7262 34.9135 42.8256 35.0305 42.9249 35.0925C42.8263 35.1629 42.7369 35.2662 42.6275 35.2952C42.4578 35.3411 42.2751 35.3434 42.0969 35.3518C41.3912 35.3847 41.1152 35.7275 41.4516 36.5445C41.8002 37.3914 42.2154 38.2116 42.6046 39.0416C43.1604 40.2297 43.7186 41.4171 44.2767 42.6037C44.3035 42.6603 44.3402 42.7115 44.4037 42.8179C44.4755 42.7123 44.5405 42.6442 44.5749 42.5624C45.3594 40.7094 46.1408 38.8542 46.9229 37.0005C46.9275 36.989 46.9329 36.9768 46.9375 36.9653C47.3962 35.7673 47.2035 35.3595 45.9366 35.3197C45.7172 35.3128 45.4687 35.3052 45.5949 34.9311H49.5172V35.2432C49.4835 35.2608 49.4529 35.2884 49.4193 35.2922C48.6257 35.3786 48.1845 35.8836 47.8932 36.5713C47.0193 38.6354 46.1431 40.6995 45.2684 42.7636C44.7416 44.0068 44.2171 45.2507 43.6888 46.4924C43.6123 46.6729 43.5733 46.8757 43.2874 46.8764C43.0113 46.8764 42.9517 46.6882 42.8668 46.5084C41.5433 43.6831 40.2237 40.8556 38.8971 38.031C38.5837 37.3631 38.2556 36.7006 37.9169 36.045C37.7059 35.6357 37.3588 35.3878 36.8947 35.3274C36.6745 35.2983 36.5682 35.2027 36.66 34.9288L36.6623 34.9295Z" fill="white"/>
<path d="M11.3011 34.7372V38.6604C11.0534 38.7659 10.9081 38.7109 10.7858 38.4638C10.337 37.5579 9.81556 36.7026 9.02957 36.0363C7.91634 35.0922 6.28931 34.956 5.20284 35.7318C4.56365 36.1878 4.25782 36.8664 4.06285 37.584C3.52764 39.5501 3.47183 41.5408 3.98715 43.5153C4.32051 44.7945 5.02622 45.8081 6.4407 46.0499C7.492 46.2297 8.51348 46.0461 9.40651 45.4493C10.0159 45.0423 10.5587 44.5367 11.1727 44.0417C11.279 44.1312 11.4181 44.2482 11.5833 44.3875C10.665 45.4723 9.66112 46.4087 8.27799 46.7132C6.3046 47.147 4.42679 46.8869 2.78064 45.5985C1.66818 44.7287 0.959409 43.601 0.749914 42.2063C0.489192 40.4766 0.603114 38.7889 1.6353 37.2879C3.14153 35.0983 5.7931 34.178 8.37127 34.9392C8.82313 35.0723 9.2643 35.2399 9.71081 35.3883C10.272 35.5742 10.5442 35.474 10.7858 34.94C10.8959 34.6959 11.0374 34.6539 11.3019 34.7388L11.3011 34.7372Z" fill="white"/>
</g>
<defs>
<clipPath id="clip0_357_11190">
<rect width="48.8889" height="46.8519" fill="white" transform="translate(0.629883 0.0556641)"/>
</clipPath>
</defs>
</svg>
