<svg width="16" height="16" viewBox="0 0 16 16" fill="none" xmlns="http://www.w3.org/2000/svg">
<g clip-path="url(#clip0_668_6166)">
<path d="M11.9203 16.0089C11.6278 15.9595 11.3335 15.9214 11.0428 15.8595C9.96033 15.5914 8.92219 15.1664 7.96283 14.5977C6.45283 13.7583 5.08411 12.6871 3.90715 11.4213C2.47528 9.8657 1.28395 8.15125 0.532749 6.15813C0.241501 5.44063 0.0739967 4.67938 0.0377407 3.90629C-0.0191345 3.1413 0.250861 2.38816 0.780237 1.83381C1.22836 1.37506 1.66148 0.898801 2.14398 0.480689C2.88897 -0.159935 3.70024 -0.159935 4.41966 0.510689C5.17966 1.22381 5.91403 1.97256 6.6203 2.73501V2.73438C7.15781 3.31376 7.15781 4.21002 6.6203 4.79006C6.24467 5.21694 5.82843 5.6057 5.43155 6.01318C5.3953 6.04756 5.35655 6.07693 5.29092 6.13693H5.2903C6.35092 8.05565 7.93398 9.63438 9.8559 10.6894L10.8034 9.73129H10.804C11.0365 9.45628 11.3284 9.23692 11.6578 9.09066C12.1865 8.86066 12.8009 8.97004 13.2178 9.36817C14.0134 10.125 14.789 10.9038 15.5447 11.7032C16.0747 12.272 16.0922 13.1482 15.5853 13.7376C15.1072 14.3014 14.5778 14.8345 14.0422 15.3514C13.6603 15.702 13.1747 15.9189 12.659 15.9682C12.6222 15.977 12.5853 15.9876 12.5497 16.0001L11.9203 16.0089ZM12.1572 15.0464V15.0458C12.6891 15.0752 13.2078 14.8708 13.5766 14.487C13.9353 14.1114 14.3022 13.7445 14.6653 13.3727C14.7122 13.3252 14.756 13.2752 14.7978 13.2233C14.9222 13.0977 14.991 12.9264 14.9872 12.7495C14.9835 12.5727 14.9085 12.4045 14.7785 12.2839C14.486 11.9683 14.1766 11.6689 13.8735 11.3639C13.4785 10.9689 13.0878 10.572 12.6891 10.1833L12.6885 10.1839C12.571 10.0514 12.4047 9.97391 12.2279 9.96954C12.051 9.96454 11.8804 10.0327 11.756 10.1583C11.696 10.2077 11.6429 10.2627 11.5872 10.3183C11.2072 10.6958 10.8316 11.0783 10.4497 11.4514C10.2222 11.7127 9.84222 11.7758 9.54222 11.6033C9.30973 11.4858 9.0791 11.3683 8.85472 11.2364L8.85534 11.2358C7.86846 10.6327 6.9747 9.88765 6.20414 9.02458C5.48978 8.29271 4.89726 7.45146 4.44974 6.53146C4.22349 6.03208 4.27286 5.78896 4.66349 5.40896C5.05411 5.02896 5.47224 4.62584 5.8585 4.21584C5.98475 4.10209 6.05787 3.94148 6.06099 3.7721C6.06349 3.6021 5.99599 3.43898 5.87349 3.32148C5.82661 3.26585 5.77724 3.2146 5.72849 3.16335L3.85409 1.28079C3.45284 0.885782 3.09658 0.881414 2.69534 1.28079C2.29409 1.68017 1.91596 2.03204 1.55097 2.43141C1.37097 2.61705 1.2266 2.83391 1.12409 3.07141C0.963464 3.58141 0.957208 4.12705 1.10471 4.64079C1.28284 5.43767 1.56222 6.20892 1.93721 6.93519C2.58095 8.21519 3.39659 9.40079 4.36217 10.4589C6.02345 12.3501 8.12649 13.8021 10.4841 14.6851C11.0203 14.8882 11.5847 15.007 12.1572 15.0376L12.1572 15.0464Z" fill="#8D1F56"/>
</g>
<defs>
<clipPath id="clip0_668_6166">
<rect width="16" height="16" fill="white"/>
</clipPath>
</defs>
</svg>
