<svg width="17" height="21" viewBox="0 0 17 21" fill="none" xmlns="http://www.w3.org/2000/svg">
<path fill-rule="evenodd" clip-rule="evenodd" d="M8.49984 0.078125C7.69395 0.078125 7.11175 0.685463 6.91321 1.43927H5.64283C5.5467 1.43837 5.45505 1.477 5.38767 1.54438C5.31938 1.61176 5.28165 1.7043 5.28165 1.79954V4.07797C5.28165 4.1741 5.31938 4.26574 5.38767 4.33403C5.45505 4.40141 5.54669 4.43915 5.64283 4.43915H11.3595C11.558 4.43825 11.718 4.27653 11.718 4.07798V1.79955C11.718 1.601 11.558 1.44018 11.3595 1.43928H10.0864C9.88873 0.6855 9.30574 0.078125 8.49984 0.078125ZM2.35815 2.45725C1.40492 2.45725 0.625977 3.23439 0.625977 4.18673V19.1915C0.625977 20.1438 1.40492 20.9219 2.35815 20.9219H14.6406C15.5938 20.9219 16.3728 20.1438 16.3728 19.1915L16.3737 4.18673C16.3737 3.23439 15.5947 2.45725 14.6415 2.45725H12.7961V4.07352C12.7988 4.85426 12.1457 5.51371 11.364 5.51641V5.5173H11.3595H5.64724C4.862 5.52 4.20075 4.85964 4.20346 4.07442V2.45814L2.35815 2.45725ZM3.45065 6.98802H5.87094C5.96618 6.98802 6.05872 7.02575 6.1261 7.09403C6.19439 7.16141 6.23212 7.25306 6.23122 7.34919V9.76603C6.23122 9.96459 6.0695 10.1245 5.87095 10.1236H3.45135C3.25369 10.1227 3.09377 9.96279 3.09287 9.76603V7.34919C3.09287 7.15064 3.25279 6.98892 3.45135 6.98802L3.45065 6.98802ZM3.81182 7.70677V9.40481H5.51256V7.70677H3.81182ZM7.80439 8.19731H13.5482C13.7458 8.19821 13.9058 8.35903 13.9067 8.55668C13.9067 8.65192 13.8689 8.74356 13.8024 8.81095C13.7351 8.87833 13.6434 8.91697 13.5482 8.91697H7.80439C7.70915 8.91786 7.61661 8.88013 7.54922 8.81185C7.48094 8.74446 7.44321 8.65193 7.44411 8.55669C7.44411 8.46055 7.48184 8.36981 7.55012 8.30242C7.61751 8.23504 7.70915 8.19731 7.80439 8.19731ZM3.45141 11.4334H5.87101V11.4343C5.96625 11.4334 6.05789 11.4711 6.12528 11.5385C6.19356 11.6059 6.23129 11.6975 6.23129 11.7928V14.2096C6.23219 14.3058 6.19446 14.3974 6.12618 14.4648C6.05879 14.5331 5.96625 14.5708 5.87101 14.5699H3.45141C3.25286 14.5699 3.09294 14.4082 3.09294 14.2096V11.7928C3.09383 11.5951 3.25376 11.4352 3.45141 11.4343L3.45141 11.4334ZM3.81258 12.1531L3.81168 13.8511H5.51242V12.154L3.81258 12.1531ZM7.80423 12.6418H13.548C13.6433 12.6418 13.7349 12.6804 13.8023 12.7478C13.8688 12.8152 13.9065 12.9068 13.9065 13.0021C13.9056 13.1997 13.7457 13.3597 13.548 13.3606H7.80424C7.709 13.3606 7.61736 13.3228 7.54997 13.2563C7.48259 13.189 7.44395 13.0973 7.44395 13.0021C7.44306 12.9068 7.48079 12.8143 7.54907 12.7469C7.61645 12.6786 7.70899 12.6409 7.80423 12.6418ZM3.45125 15.8779H5.87085C5.96608 15.8779 6.05863 15.9156 6.12601 15.983C6.19429 16.0504 6.23203 16.1429 6.23113 16.2382V18.655C6.23113 18.8536 6.06941 19.0144 5.87086 19.0135H3.45126C3.2536 19.0126 3.09368 18.8527 3.09278 18.655V16.2382C3.09278 16.0405 3.25269 15.8788 3.45125 15.8779ZM3.81242 16.5967V18.2947H5.51315V16.5967H3.81242ZM7.80499 17.0872H13.5488H13.5479C13.7455 17.0881 13.9055 17.248 13.9064 17.4457C13.9064 17.5409 13.8686 17.6326 13.8021 17.7008C13.7348 17.7682 13.6431 17.806 13.5479 17.8069H7.80409C7.70885 17.8069 7.61631 17.7691 7.54892 17.7017C7.48064 17.6335 7.44291 17.5418 7.44381 17.4457C7.44381 17.3504 7.48154 17.2588 7.54982 17.1914C7.61721 17.124 7.70885 17.0872 7.80409 17.0872L7.80499 17.0872Z" fill="#8D1F56"/>
</svg>
