<svg width="66" height="62" viewBox="0 0 66 62" fill="none" xmlns="http://www.w3.org/2000/svg">
<rect x="0.75" y="0.75" width="64.5" height="60.5" rx="4.25" fill="white" stroke="#5996C8" stroke-width="1.5"/>
<path fill-rule="evenodd" clip-rule="evenodd" d="M32.5001 13.7344C31.2037 13.7344 30.2671 14.7114 29.9477 15.924H27.9041C27.7494 15.9226 27.602 15.9847 27.4936 16.0931C27.3838 16.2015 27.3231 16.3504 27.3231 16.5036V20.1689C27.3231 20.3236 27.3838 20.471 27.4936 20.5808C27.602 20.6892 27.7494 20.7499 27.9041 20.7499H37.1004C37.4198 20.7485 37.6771 20.4883 37.6771 20.1689V16.5036C37.6771 16.1842 37.4198 15.9255 37.1004 15.9241H35.0524C34.7344 14.7115 33.7966 13.7344 32.5001 13.7344ZM22.62 17.5617C21.0866 17.5617 19.8335 18.8118 19.8335 20.3439V44.4819C19.8335 46.014 21.0866 47.2656 22.62 47.2656H42.3788C43.9122 47.2656 45.1653 46.014 45.1653 44.4819L45.1668 20.3439C45.1668 18.8118 43.9137 17.5617 42.3802 17.5617H39.4116V20.1618C39.4159 21.4177 38.3652 22.4786 37.1077 22.4829V22.4844H37.1005H27.9112C26.648 22.4887 25.5842 21.4264 25.5886 20.1632V17.5631L22.62 17.5617ZM24.3775 24.8503H28.271C28.4243 24.8503 28.5731 24.911 28.6815 25.0208C28.7914 25.1292 28.8521 25.2767 28.8506 25.4313V29.3193C28.8506 29.6387 28.5905 29.896 28.2711 29.8945H24.3787C24.0607 29.8931 23.8034 29.6358 23.802 29.3193V25.4313C23.802 25.1119 24.0592 24.8517 24.3787 24.8503L24.3775 24.8503ZM24.9586 26.0065V28.7382H27.6945V26.0065H24.9586ZM31.3814 26.7957H40.6214C40.9394 26.7971 41.1966 27.0558 41.1981 27.3738C41.1981 27.527 41.1374 27.6744 41.0304 27.7828C40.922 27.8912 40.7746 27.9534 40.6214 27.9534H31.3814C31.2282 27.9548 31.0793 27.8941 30.9709 27.7843C30.861 27.6759 30.8003 27.527 30.8018 27.3738C30.8018 27.2192 30.8625 27.0732 30.9723 26.9648C31.0807 26.8564 31.2282 26.7957 31.3814 26.7957ZM24.3788 32.0016H28.2712V32.003C28.4244 32.0016 28.5718 32.0623 28.6802 32.1707C28.79 32.2791 28.8507 32.4265 28.8507 32.5797V36.4677C28.8522 36.6223 28.7915 36.7697 28.6816 36.8781C28.5732 36.988 28.4244 37.0487 28.2712 37.0472H24.3788C24.0594 37.0472 23.8021 36.7871 23.8021 36.4677V32.5797C23.8035 32.2617 24.0608 32.0045 24.3788 32.003L24.3788 32.0016ZM24.9598 33.1593L24.9583 35.8909H27.6943V33.1607L24.9598 33.1593ZM31.3811 33.9455H40.6211C40.7743 33.9455 40.9218 34.0077 41.0302 34.1161C41.1371 34.2245 41.1978 34.3719 41.1978 34.5251C41.1964 34.8431 40.9391 35.1003 40.6211 35.1018H31.3811C31.2279 35.1018 31.0805 35.0411 30.9721 34.9341C30.8637 34.8257 30.8015 34.6783 30.8015 34.5251C30.8001 34.3719 30.8608 34.223 30.9706 34.1146C31.079 34.0048 31.2279 33.9441 31.3811 33.9455ZM24.3785 39.1514H28.2709C28.4241 39.1514 28.573 39.2121 28.6814 39.3205C28.7912 39.4289 28.8519 39.5778 28.8505 39.731V43.6189C28.8505 43.9384 28.5903 44.1971 28.2709 44.1956H24.3785C24.0605 44.1942 23.8033 43.9369 23.8018 43.6189V39.731C23.8018 39.413 24.0591 39.1529 24.3785 39.1514ZM24.9595 40.3077V43.0393H27.6955V40.3077H24.9595ZM31.3823 41.0968H40.6224H40.6209C40.9389 41.0982 41.1961 41.3555 41.1976 41.6735C41.1976 41.8267 41.1369 41.9741 41.0299 42.084C40.9215 42.1924 40.7741 42.2531 40.6209 42.2545H31.3809C31.2277 42.2545 31.0788 42.1938 30.9704 42.0854C30.8606 41.9756 30.7999 41.8281 30.8013 41.6735C30.8013 41.5203 30.862 41.3729 30.9719 41.2644C31.0803 41.156 31.2277 41.0968 31.3809 41.0968L31.3823 41.0968Z" fill="#5996C8"/>
</svg>
