<svg width="19" height="19" viewBox="0 0 19 19" fill="none" xmlns="http://www.w3.org/2000/svg">
<g clip-path="url(#clip0_668_6146)">
<path d="M17.5436 0H2.01166C1.6549 0 1.31276 0.141721 1.06049 0.393987C0.808225 0.646252 0.666504 0.988397 0.666504 1.34515V16.8771C0.666504 17.2338 0.808225 17.576 1.06049 17.8282C1.31276 18.0805 1.6549 18.2222 2.01166 18.2222H17.5436C17.9003 18.2222 18.2425 18.0805 18.4947 17.8282C18.747 17.576 18.8887 17.2338 18.8887 16.8771V1.34515C18.8887 0.988397 18.747 0.646252 18.4947 0.393987C18.2425 0.141721 17.9003 0 17.5436 0ZM6.09774 15.5231H3.35808V6.82068H6.09774V15.5231ZM4.72601 5.61472C4.41524 5.61297 4.11196 5.5192 3.85443 5.34525C3.59691 5.1713 3.39668 4.92496 3.27902 4.63732C3.16137 4.34968 3.13155 4.03363 3.19334 3.72907C3.25513 3.4245 3.40576 3.14506 3.62621 2.92602C3.84667 2.70698 4.12707 2.55815 4.43202 2.49831C4.73698 2.43848 5.05283 2.47032 5.33971 2.58982C5.62659 2.70932 5.87164 2.91113 6.04393 3.16976C6.21623 3.4284 6.30805 3.73228 6.3078 4.04306C6.31073 4.25112 6.27174 4.45764 6.19316 4.65031C6.11458 4.84299 5.99801 5.01787 5.8504 5.16453C5.70279 5.3112 5.52717 5.42664 5.33399 5.50398C5.14082 5.58133 4.93405 5.61899 4.72601 5.61472ZM16.1959 15.5306H13.4575V10.7764C13.4575 9.37432 12.8615 8.94154 12.0921 8.94154C11.2797 8.94154 10.4825 9.55401 10.4825 10.8119V15.5306H7.7428V6.82701H10.3774V8.03296H10.4129C10.6773 7.49769 11.6036 6.58278 13.0171 6.58278C14.5458 6.58278 16.1972 7.49009 16.1972 10.1475L16.1959 15.5306Z" fill="#602644"/>
</g>
<defs>
<clipPath id="clip0_668_6146">
<rect width="18.2222" height="18.2222" fill="white" transform="translate(0.666504)"/>
</clipPath>
</defs>
</svg>
