<svg width="19" height="19" viewBox="0 0 19 19" fill="none" xmlns="http://www.w3.org/2000/svg">
<g clip-path="url(#clip0_668_6137)">
<path d="M18.2222 9.11111C18.2222 4.07923 14.143 0 9.11111 0C4.07923 0 0 4.07923 0 9.11111C0 13.3839 2.9418 16.9693 6.91023 17.954V11.8955H5.03152V9.11111H6.91023V7.91136C6.91023 4.8103 8.31371 3.37293 11.3583 3.37293C11.9356 3.37293 12.9316 3.48628 13.339 3.59925V6.12303C13.124 6.10044 12.7505 6.08914 12.2865 6.08914C10.7927 6.08914 10.2154 6.65512 10.2154 8.12638V9.11111H13.1914L12.6801 11.8955H10.2154V18.1555C14.7268 17.6107 18.2226 13.7694 18.2226 9.11111H18.2222Z" fill="#602644"/>
<path d="M12.6798 11.8956L13.1912 9.11122H10.2151V8.1265C10.2151 6.65523 10.7924 6.08925 12.2862 6.08925C12.7502 6.08925 13.1237 6.10055 13.3388 6.12314V3.59937C12.9313 3.48602 11.9353 3.37305 11.358 3.37305C8.31344 3.37305 6.90996 4.81042 6.90996 7.91147V9.11122H5.03125V11.8956H6.90996V17.9541C7.6148 18.129 8.35207 18.2223 9.11084 18.2223C9.4844 18.2223 9.85285 18.1994 10.2147 18.1556V11.8956H12.6795H12.6798Z" fill="white"/>
</g>
<defs>
<clipPath id="clip0_668_6137">
<rect width="18.2222" height="18.2222" fill="white"/>
</clipPath>
</defs>
</svg>
