<svg width="19" height="19" viewBox="0 0 19 19" fill="none" xmlns="http://www.w3.org/2000/svg">
<g clip-path="url(#clip0_668_6142)">
<path d="M9.55545 1.64071C11.9898 1.64071 12.2781 1.65139 13.2355 1.6941C14.1252 1.73325 14.6057 1.88273 14.926 2.00729C15.3495 2.17101 15.6556 2.37031 15.9724 2.68707C16.2927 3.00738 16.4884 3.3099 16.6522 3.73342C16.7767 4.05373 16.9262 4.53776 16.9653 5.42396C17.0081 6.3849 17.0187 6.67318 17.0187 9.10399C17.0187 11.5384 17.0081 11.8266 16.9653 12.784C16.9262 13.6738 16.7767 14.1543 16.6522 14.4746C16.4884 14.8981 16.2891 15.2042 15.9724 15.5209C15.6521 15.8412 15.3495 16.037 14.926 16.2007C14.6057 16.3253 14.1217 16.4747 13.2355 16.5139C12.2745 16.5566 11.9863 16.5673 9.55545 16.5673C7.12107 16.5673 6.83279 16.5566 5.87541 16.5139C4.98566 16.4747 4.50519 16.3253 4.18487 16.2007C3.76135 16.037 3.45527 15.8377 3.13852 15.5209C2.81821 15.2006 2.62246 14.8981 2.45875 14.4746C2.33418 14.1543 2.1847 13.6702 2.14555 12.784C2.10284 11.8231 2.09217 11.5348 2.09217 9.10399C2.09217 6.66962 2.10284 6.38134 2.14555 5.42396C2.1847 4.5342 2.33418 4.05373 2.45875 3.73342C2.62246 3.3099 2.82177 3.00382 3.13852 2.68707C3.45883 2.36675 3.76135 2.17101 4.18487 2.00729C4.50519 1.88273 4.98922 1.73325 5.87541 1.6941C6.83279 1.65139 7.12107 1.64071 9.55545 1.64071ZM9.55545 0C7.08192 0 6.77229 0.0106771 5.80067 0.0533854C4.83262 0.0960937 4.16708 0.252691 3.59052 0.47691C2.98904 0.711805 2.4801 1.02144 1.97472 1.53038C1.46578 2.03576 1.15614 2.54471 0.921246 3.14262C0.697027 3.72274 0.54043 4.38472 0.497721 5.35278C0.455013 6.32795 0.444336 6.63759 0.444336 9.11111C0.444336 11.5846 0.455013 11.8943 0.497721 12.8659C0.54043 13.8339 0.697027 14.4995 0.921246 15.076C1.15614 15.6775 1.46578 16.1865 1.97472 16.6918C2.4801 17.1972 2.98904 17.5104 3.58696 17.7418C4.16708 17.966 4.82906 18.1226 5.79711 18.1653C6.76873 18.208 7.07836 18.2187 9.55189 18.2187C12.0254 18.2187 12.335 18.208 13.3067 18.1653C14.2747 18.1226 14.9403 17.966 15.5168 17.7418C16.1147 17.5104 16.6237 17.1972 17.1291 16.6918C17.6344 16.1865 17.9476 15.6775 18.179 15.0796C18.4032 14.4995 18.5598 13.8375 18.6025 12.8694C18.6452 11.8978 18.6559 11.5882 18.6559 9.11467C18.6559 6.64115 18.6452 6.33151 18.6025 5.3599C18.5598 4.39184 18.4032 3.7263 18.179 3.14974C17.9548 2.5447 17.6451 2.03576 17.1362 1.53038C16.6308 1.025 16.1219 0.711806 15.5239 0.480469C14.9438 0.25625 14.2818 0.0996528 13.3138 0.0569444C12.3386 0.0106771 12.029 0 9.55545 0Z" fill="#602644"/>
<path d="M9.55561 4.42969C6.97176 4.42969 4.87549 6.52595 4.87549 9.10981C4.87549 11.6937 6.97176 13.7899 9.55561 13.7899C12.1395 13.7899 14.2357 11.6937 14.2357 9.10981C14.2357 6.52595 12.1395 4.42969 9.55561 4.42969ZM9.55561 12.1457C7.87931 12.1457 6.51976 10.7861 6.51976 9.10981C6.51976 7.43351 7.87931 6.07396 9.55561 6.07396C11.2319 6.07396 12.5915 7.43351 12.5915 9.10981C12.5915 10.7861 11.2319 12.1457 9.55561 12.1457Z" fill="#602644"/>
<path d="M15.5134 4.24497C15.5134 4.85 15.0222 5.33759 14.4207 5.33759C13.8157 5.33759 13.3281 4.84644 13.3281 4.24497C13.3281 3.63993 13.8193 3.15234 14.4207 3.15234C15.0222 3.15234 15.5134 3.64349 15.5134 4.24497Z" fill="#602644"/>
</g>
<defs>
<clipPath id="clip0_668_6142">
<rect width="18.2222" height="18.2222" fill="white" transform="translate(0.444336)"/>
</clipPath>
</defs>
</svg>
