<svg width="205" height="59" viewBox="0 0 205 59" fill="none" xmlns="http://www.w3.org/2000/svg">
<path d="M203.096 52.1958C203.096 55.34 200.496 57.8869 197.281 57.8869H6.9581C3.74381 57.8869 1.13477 55.34 1.13477 52.1958V6.81174C1.13477 3.66904 3.74381 1.11328 6.9581 1.11328H197.279C200.496 1.11328 203.095 3.66904 203.095 6.81174L203.096 52.1958Z" fill="black"/>
<path d="M196.667 1.18185C200.169 1.18185 203.019 3.96038 203.019 7.37501V51.625C203.019 55.0396 200.169 57.8182 196.667 57.8182H7.5641C4.06192 57.8182 1.21215 55.0396 1.21215 51.625V7.37501C1.21215 3.96038 4.06192 1.18185 7.5641 1.18185H196.667ZM196.667 5.4802e-06H7.5641C3.40574 5.4802e-06 0 3.3206 0 7.37501V51.625C0 55.6794 3.40574 59 7.5641 59H196.667C200.825 59 204.231 55.6794 204.231 51.625V7.37501C204.231 3.3206 200.825 5.4802e-06 196.667 5.4802e-06Z" fill="#A6A6A6"/>
<path d="M45.578 29.1832C45.5341 24.4293 49.5703 22.1165 49.7549 22.0088C47.469 18.7594 43.926 18.3154 42.6809 18.28C39.7052 17.9747 36.8187 20.0161 35.3029 20.0161C33.7568 20.0161 31.4225 18.3095 28.9067 18.3596C25.6692 18.4083 22.6406 20.2358 20.9795 23.0737C17.5515 28.8602 20.1081 37.3635 23.3925 42.0408C25.0354 44.3314 26.9551 46.8891 29.4679 46.7991C31.9263 46.7003 32.8446 45.271 35.8112 45.271C38.7506 45.271 39.6129 46.7991 42.1756 46.7416C44.814 46.7003 46.4751 44.4406 48.0605 42.1293C49.9591 39.5038 50.7216 36.9181 50.7518 36.7853C50.6898 36.7647 45.6279 34.8811 45.578 29.1832Z" fill="white"/>
<path d="M40.7369 15.2031C42.0591 13.591 42.9638 11.3976 42.7127 9.17188C40.799 9.25447 38.4057 10.4625 37.0275 12.0393C35.8082 13.4287 34.7189 15.7061 35.0003 17.8478C37.15 18.0042 39.3572 16.7902 40.7369 15.2031Z" fill="white"/>
<path d="M81.1547 46.4691H77.7191L75.8372 40.7034H69.2957L67.503 46.4691H64.1582L70.6391 26.8398H74.642L81.1547 46.4691ZM75.2699 38.2844L73.5679 33.1587C73.3879 32.6351 73.0506 31.402 72.5528 29.4609H72.4923C72.2941 30.2958 71.9749 31.5289 71.5362 33.1587L69.8646 38.2844H75.2699Z" fill="white"/>
<path d="M97.8218 39.217C97.8218 41.6242 97.1546 43.527 95.8203 44.9238C94.6252 46.1672 93.1411 46.7882 91.3696 46.7882C89.4574 46.7882 88.0837 46.1185 87.2472 44.7792H87.1866V52.2354H83.9613V36.9735C83.9613 35.4602 83.9205 33.907 83.8418 32.314H86.6783L86.8584 34.5575H86.9189C87.9945 32.8671 89.6268 32.0234 91.8174 32.0234C93.5299 32.0234 94.9595 32.6828 96.1032 34.0029C97.2499 35.3245 97.8218 37.062 97.8218 39.217ZM94.5359 39.3321C94.5359 37.9544 94.2182 36.8187 93.5798 35.9248C92.8824 34.9926 91.946 34.5265 90.772 34.5265C89.9763 34.5265 89.2532 34.7861 88.6072 35.2979C87.9597 35.8142 87.5361 36.4883 87.3379 37.3231C87.2381 37.7125 87.1882 38.0311 87.1882 38.2819V40.6419C87.1882 41.6714 87.5119 42.5402 88.1594 43.2497C88.8069 43.9591 89.648 44.3131 90.6828 44.3131C91.8976 44.3131 92.8431 43.8559 93.5193 42.9443C94.1971 42.0313 94.5359 40.8277 94.5359 39.3321Z" fill="white"/>
<path d="M114.519 39.217C114.519 41.6242 113.851 43.527 112.516 44.9238C111.322 46.1672 109.838 46.7882 108.066 46.7882C106.154 46.7882 104.78 46.1185 103.945 44.7792H103.885V52.2354H100.66V36.9735C100.66 35.4602 100.619 33.907 100.54 32.314H103.377L103.557 34.5575H103.617C104.691 32.8671 106.324 32.0234 108.516 32.0234C110.227 32.0234 111.656 32.6828 112.803 34.0029C113.945 35.3245 114.519 37.062 114.519 39.217ZM111.233 39.3321C111.233 37.9544 110.913 36.8187 110.275 35.9248C109.578 34.9926 108.644 34.5265 107.469 34.5265C106.672 34.5265 105.95 34.7861 105.302 35.2979C104.655 35.8142 104.233 36.4883 104.035 37.3231C103.936 37.7125 103.885 38.0311 103.885 38.2819V40.6419C103.885 41.6714 104.209 42.5402 104.853 43.2497C105.501 43.9577 106.342 44.3131 107.38 44.3131C108.594 44.3131 109.54 43.8559 110.216 42.9443C110.894 42.0313 111.233 40.8277 111.233 39.3321Z" fill="white"/>
<path d="M133.187 40.963C133.187 42.6327 132.593 43.9912 131.399 45.0399C130.087 46.186 128.261 46.7583 125.915 46.7583C123.749 46.7583 122.012 46.3512 120.697 45.5355L121.445 42.9144C122.861 43.7493 124.414 44.1682 126.107 44.1682C127.322 44.1682 128.267 43.8997 128.947 43.3658C129.623 42.8318 129.96 42.115 129.96 41.2211C129.96 40.4246 129.682 39.7535 129.124 39.2092C128.568 38.665 127.641 38.159 126.346 37.6915C122.821 36.4097 121.06 34.532 121.06 32.0629C121.06 30.4492 121.678 29.1261 122.914 28.0966C124.145 27.0656 125.788 26.5508 127.842 26.5508C129.674 26.5508 131.196 26.862 132.411 27.483L131.605 30.0465C130.47 29.4447 129.187 29.1438 127.752 29.1438C126.617 29.1438 125.73 29.4167 125.095 29.9595C124.558 30.4448 124.289 31.0363 124.289 31.7369C124.289 32.5127 124.596 33.1544 125.213 33.6588C125.75 34.1249 126.726 34.6294 128.142 35.1736C129.874 35.8536 131.146 36.6486 131.965 37.5602C132.78 38.4688 133.187 39.606 133.187 40.963Z" fill="white"/>
<path d="M143.851 34.6719H140.296V41.5439C140.296 43.2918 140.922 44.165 142.178 44.165C142.754 44.165 143.232 44.1163 143.61 44.019L143.699 46.407C143.064 46.6386 142.227 46.7551 141.191 46.7551C139.917 46.7551 138.922 46.376 138.203 45.6193C137.488 44.8612 137.128 43.5897 137.128 41.8035V34.6689H135.01V32.3089H137.128V29.7174L140.296 28.7852V32.3089H143.851V34.6719Z" fill="white"/>
<path d="M159.891 39.2731C159.891 41.4487 159.252 43.2349 157.979 44.6317C156.643 46.0699 154.87 46.7867 152.66 46.7867C150.53 46.7867 148.834 46.0979 147.569 44.7202C146.304 43.3426 145.672 41.6036 145.672 39.5076C145.672 37.3143 146.322 35.5177 147.628 34.1209C148.93 32.7226 150.688 32.0234 152.899 32.0234C155.029 32.0234 156.743 32.7123 158.036 34.0914C159.274 35.4292 159.891 37.1564 159.891 39.2731ZM156.545 39.3748C156.545 38.0695 156.259 36.9499 155.679 36.0163C155.003 34.8864 154.036 34.323 152.784 34.323C151.487 34.323 150.502 34.8879 149.826 36.0163C149.247 36.9514 148.961 38.0886 148.961 39.4338C148.961 40.7392 149.247 41.8587 149.826 42.7909C150.523 43.9208 151.498 44.4842 152.755 44.4842C153.986 44.4842 154.953 43.909 155.65 42.7614C156.245 41.8101 156.545 40.6787 156.545 39.3748Z" fill="white"/>
<path d="M170.375 35.0796C170.056 35.0221 169.716 34.9926 169.359 34.9926C168.224 34.9926 167.347 35.41 166.729 36.2464C166.192 36.9839 165.923 37.9161 165.923 39.0415V46.4681H162.699L162.729 36.7715C162.729 35.1401 162.689 33.6548 162.608 32.3155H165.418L165.536 35.0236H165.625C165.965 34.0929 166.502 33.3436 167.238 32.7816C167.956 32.2757 168.732 32.0234 169.569 32.0234C169.867 32.0234 170.136 32.0441 170.375 32.081V35.0796Z" fill="white"/>
<path d="M184.8 38.7206C184.8 39.2841 184.762 39.759 184.682 40.1469H175.006C175.044 41.5452 175.511 42.6146 176.41 43.3521C177.225 44.0114 178.28 44.3418 179.574 44.3418C181.007 44.3418 182.314 44.1191 183.49 43.6722L183.995 45.8552C182.621 46.4393 181 46.7299 179.128 46.7299C176.877 46.7299 175.11 46.0838 173.824 44.7932C172.541 43.5026 171.898 41.7694 171.898 39.5953C171.898 37.461 172.496 35.6836 173.693 34.2661C174.945 32.7528 176.638 31.9961 178.768 31.9961C180.86 31.9961 182.444 32.7528 183.52 34.2661C184.372 35.4682 184.8 36.955 184.8 38.7206ZM181.724 37.9049C181.745 36.9727 181.535 36.1674 181.098 35.4874C180.54 34.6127 179.682 34.1761 178.528 34.1761C177.473 34.1761 176.615 34.6024 175.96 35.4579C175.423 36.1379 175.104 36.9536 175.006 37.9035H181.724V37.9049Z" fill="white"/>
<path d="M74.2041 14.767C74.2041 16.5031 73.6701 17.8099 72.6036 18.6875C71.6157 19.4973 70.2118 19.9029 68.3934 19.9029C67.4917 19.9029 66.7202 19.8646 66.0742 19.7879V10.3022C66.9169 10.1694 67.8246 10.1016 68.8049 10.1016C70.537 10.1016 71.8426 10.4688 72.7231 11.2034C73.7094 12.0338 74.2041 13.2212 74.2041 14.767ZM72.5325 14.8098C72.5325 13.6843 72.2269 12.8215 71.6157 12.2197C71.0045 11.6193 70.1119 11.3184 68.9365 11.3184C68.4372 11.3184 68.0121 11.3509 67.6597 11.4187V18.63C67.8548 18.6595 68.2118 18.6728 68.7307 18.6728C69.944 18.6728 70.8805 18.3439 71.54 17.686C72.1996 17.0282 72.5325 16.0694 72.5325 14.8098Z" fill="white"/>
<path d="M83.0677 16.2833C83.0677 17.3527 82.7545 18.2288 82.1282 18.9162C81.4717 19.6227 80.6018 19.9752 79.5156 19.9752C78.4687 19.9752 77.6352 19.6375 77.0134 18.959C76.3931 18.2819 76.083 17.4279 76.083 16.3984C76.083 15.3216 76.4022 14.4381 77.0436 13.7522C77.6851 13.0663 78.5474 12.7227 79.6336 12.7227C80.6805 12.7227 81.5216 13.0604 82.1585 13.7375C82.7636 14.3953 83.0677 15.2449 83.0677 16.2833ZM81.4233 16.3335C81.4233 15.6918 81.2811 15.1417 80.9982 14.6829C80.6653 14.1283 80.1918 13.851 79.5761 13.851C78.9392 13.851 78.4551 14.1283 78.1223 14.6829C77.8379 15.1417 77.6972 15.7007 77.6972 16.3615C77.6972 17.0031 77.8394 17.5533 78.1223 18.012C78.4657 18.5666 78.9438 18.8439 79.561 18.8439C80.1661 18.8439 80.6411 18.5622 80.983 17.9973C81.2765 17.5297 81.4233 16.9751 81.4233 16.3335Z" fill="white"/>
<path d="M94.9527 12.8633L92.7213 19.8164H91.269L90.3446 16.7971C90.1101 16.0434 89.9195 15.2941 89.7713 14.5507H89.7425C89.6049 15.3147 89.4142 16.0626 89.1692 16.7971L88.1873 19.8164H86.7184L84.6201 12.8633H86.2494L87.0558 16.1688C87.2509 16.9505 87.4113 17.6954 87.5399 18.4004H87.5686C87.6866 17.8193 87.8818 17.0788 88.1571 16.1835L89.1692 12.8648H90.4611L91.4308 16.1127C91.6653 16.9048 91.8559 17.6674 92.0027 18.4019H92.0465C92.154 17.6865 92.3158 16.924 92.5307 16.1127L93.396 12.8648H94.9527V12.8633Z" fill="white"/>
<path d="M103.172 19.814H101.586V15.8315C101.586 14.6043 101.108 13.9907 100.149 13.9907C99.6788 13.9907 99.299 14.1589 99.004 14.4966C98.7121 14.8344 98.5638 15.2327 98.5638 15.6884V19.8125H96.9784V14.8477C96.9784 14.237 96.9587 13.5748 96.9209 12.8579H98.3142L98.3883 13.945H98.4322C98.6168 13.6072 98.8921 13.3284 99.2537 13.1057C99.6833 12.8461 100.164 12.7148 100.691 12.7148C101.356 12.7148 101.91 12.9243 102.35 13.3447C102.898 13.8594 103.172 14.6279 103.172 15.6486V19.814Z" fill="white"/>
<path d="M107.544 19.8154H105.96V9.67188H107.544V19.8154Z" fill="white"/>
<path d="M116.877 16.2833C116.877 17.3527 116.564 18.2288 115.938 18.9162C115.281 19.6227 114.41 19.9752 113.325 19.9752C112.277 19.9752 111.443 19.6375 110.823 18.959C110.203 18.2819 109.893 17.4279 109.893 16.3984C109.893 15.3216 110.212 14.4381 110.853 13.7522C111.495 13.0663 112.357 12.7227 113.442 12.7227C114.49 12.7227 115.33 13.0604 115.968 13.7375C116.573 14.3953 116.877 15.2449 116.877 16.2833ZM115.231 16.3335C115.231 15.6918 115.089 15.1417 114.806 14.6829C114.475 14.1283 114 13.851 113.386 13.851C112.747 13.851 112.263 14.1283 111.932 14.6829C111.647 15.1417 111.507 15.7007 111.507 16.3615C111.507 17.0031 111.649 17.5533 111.932 18.012C112.275 18.5666 112.753 18.8439 113.371 18.8439C113.976 18.8439 114.449 18.5622 114.791 17.9973C115.086 17.5297 115.231 16.9751 115.231 16.3335Z" fill="white"/>
<path d="M124.551 19.8174H123.127L123.009 19.0165H122.965C122.478 19.6552 121.784 19.9752 120.882 19.9752C120.209 19.9752 119.664 19.7643 119.255 19.3454C118.882 18.9649 118.696 18.4914 118.696 17.9294C118.696 17.0798 119.059 16.4323 119.79 15.9839C120.519 15.5355 121.545 15.3157 122.866 15.326V15.1962C122.866 14.2803 122.372 13.823 121.385 13.823C120.681 13.823 120.061 13.9956 119.525 14.3378L119.203 13.323C119.866 12.9233 120.684 12.7227 121.649 12.7227C123.513 12.7227 124.448 13.6814 124.448 15.5989V18.1595C124.448 18.8542 124.483 19.4074 124.551 19.8174ZM122.905 17.4279V16.3556C121.156 16.3261 120.282 16.7937 120.282 17.7568C120.282 18.1197 120.382 18.3911 120.586 18.5725C120.79 18.7539 121.05 18.8439 121.36 18.8439C121.708 18.8439 122.034 18.7362 122.33 18.5224C122.628 18.307 122.811 18.0341 122.879 17.6993C122.896 17.6241 122.905 17.5326 122.905 17.4279Z" fill="white"/>
<path d="M133.56 19.8154H132.153L132.079 18.6989H132.035C131.585 19.5485 130.82 19.9733 129.744 19.9733C128.885 19.9733 128.169 19.6443 127.602 18.9865C127.035 18.3286 126.752 17.4746 126.752 16.4259C126.752 15.3005 127.059 14.3889 127.676 13.6927C128.274 13.0437 129.006 12.7192 129.877 12.7192C130.835 12.7192 131.505 13.0334 131.886 13.6632H131.917V9.67188H133.504V17.9422C133.504 18.6192 133.522 19.2431 133.56 19.8154ZM131.917 16.8831V15.7238C131.917 15.5232 131.902 15.3609 131.873 15.2371C131.784 14.8654 131.591 14.5526 131.299 14.3004C131.004 14.0482 130.649 13.9214 130.239 13.9214C129.647 13.9214 129.185 14.15 128.844 14.6087C128.507 15.0674 128.336 15.653 128.336 16.3684C128.336 17.0557 128.498 17.6133 128.823 18.0425C129.166 18.4997 129.629 18.7284 130.209 18.7284C130.729 18.7284 131.145 18.5381 131.461 18.1561C131.767 17.8035 131.917 17.3787 131.917 16.8831Z" fill="white"/>
<path d="M147.119 16.2833C147.119 17.3527 146.806 18.2288 146.18 18.9162C145.523 19.6227 144.655 19.9752 143.567 19.9752C142.522 19.9752 141.688 19.6375 141.065 18.959C140.445 18.2819 140.135 17.4279 140.135 16.3984C140.135 15.3216 140.454 14.4381 141.095 13.7522C141.737 13.0663 142.599 12.7227 143.687 12.7227C144.732 12.7227 145.575 13.0604 146.21 13.7375C146.815 14.3953 147.119 15.2449 147.119 16.2833ZM145.477 16.3335C145.477 15.6918 145.334 15.1417 145.051 14.6829C144.717 14.1283 144.245 13.851 143.628 13.851C142.992 13.851 142.508 14.1283 142.174 14.6829C141.89 15.1417 141.749 15.7007 141.749 16.3615C141.749 17.0031 141.891 17.5533 142.174 18.012C142.517 18.5666 142.996 18.8439 143.613 18.8439C144.218 18.8439 144.694 18.5622 145.036 17.9973C145.328 17.5297 145.477 16.9751 145.477 16.3335Z" fill="white"/>
<path d="M155.644 19.814H154.06V15.8315C154.06 14.6043 153.582 13.9907 152.621 13.9907C152.151 13.9907 151.771 14.1589 151.478 14.4966C151.184 14.8344 151.037 15.2327 151.037 15.6884V19.8125H149.451V14.8477C149.451 14.237 149.432 13.5748 149.395 12.8579H150.786L150.86 13.945H150.904C151.09 13.6072 151.366 13.3284 151.726 13.1057C152.157 12.8461 152.637 12.7148 153.164 12.7148C153.829 12.7148 154.382 12.9243 154.823 13.3447C155.372 13.8594 155.644 14.6279 155.644 15.6486V19.814Z" fill="white"/>
<path d="M166.314 14.0184H164.568V17.3962C164.568 18.2546 164.878 18.6839 165.493 18.6839C165.777 18.6839 166.013 18.6603 166.199 18.6116L166.24 19.7842C165.927 19.8993 165.515 19.9568 165.008 19.9568C164.382 19.9568 163.895 19.7709 163.543 19.3992C163.189 19.0275 163.013 18.4021 163.013 17.5245V14.0184H161.971V12.8606H163.013V11.5862L164.567 11.1289V12.8591H166.312V14.0184H166.314Z" fill="white"/>
<path d="M174.707 19.8154H173.12V15.8624C173.12 14.6161 172.642 13.9921 171.685 13.9921C170.949 13.9921 170.447 14.3535 170.172 15.0763C170.125 15.2282 170.098 15.414 170.098 15.6323V19.814H168.514V9.67188H170.098V13.8623H170.128C170.627 13.0998 171.343 12.7192 172.27 12.7192C172.927 12.7192 173.47 12.9287 173.901 13.349C174.438 13.8727 174.707 14.6515 174.707 15.681V19.8154Z" fill="white"/>
<path d="M183.365 16.0096C183.365 16.2869 183.343 16.5199 183.306 16.7102H178.551C178.572 17.3975 178.799 17.9212 179.239 18.284C179.642 18.6085 180.16 18.7708 180.796 18.7708C181.499 18.7708 182.141 18.6616 182.719 18.4418L182.967 19.5156C182.291 19.8018 181.495 19.9449 180.573 19.9449C179.469 19.9449 178.599 19.6277 177.97 18.9935C177.338 18.3592 177.024 17.5082 177.024 16.4403C177.024 15.3915 177.316 14.5183 177.905 13.8221C178.519 13.0787 179.35 12.707 180.398 12.707C181.424 12.707 182.203 13.0787 182.729 13.8221C183.154 14.4121 183.365 15.1423 183.365 16.0096ZM181.852 15.6098C181.864 15.1511 181.76 14.7558 181.545 14.4225C181.269 13.9932 180.85 13.7779 180.283 13.7779C179.766 13.7779 179.344 13.9873 179.021 14.4077C178.758 14.7425 178.602 15.1423 178.551 15.6098H181.852Z" fill="white"/>
</svg>
