<svg width="17" height="12" viewBox="0 0 17 12" fill="none" xmlns="http://www.w3.org/2000/svg">
<path d="M0.567712 0.0693735C0.390756 0.0701741 0.248227 0.214302 0.249027 0.391257V10.9189C0.248226 11.0959 0.390753 11.24 0.567712 11.2408H2.42616C2.51184 11.2408 2.59351 11.2072 2.65437 11.1471C2.71442 11.0863 2.74805 11.0046 2.74805 10.9189V8.89553H13.657V10.9189C13.6562 11.0959 13.7995 11.24 13.9765 11.2408H15.8365C15.9214 11.2408 16.0031 11.2064 16.0631 11.1463C16.1232 11.0855 16.1568 11.0038 16.156 10.9189V3.80932C16.1568 3.72445 16.1232 3.64277 16.0631 3.58271C16.0031 3.52186 15.9214 3.48823 15.8365 3.48823H13.9765C13.7995 3.48903 13.6562 3.63235 13.657 3.80931V5.47639H7.14799V5.45797C7.14799 4.2545 6.16953 3.27532 4.96596 3.27532H2.74805V0.391225C2.74805 0.305549 2.71442 0.223876 2.65437 0.163019C2.59351 0.102965 2.51184 0.0693359 2.42616 0.0693359L0.567712 0.0693735ZM0.887198 0.709943H2.10668V3.58441C2.10588 3.58841 2.10668 3.59241 2.10668 3.59642V5.7639C2.10588 5.77431 2.10508 5.78472 2.10508 5.79593V8.57446C2.10508 8.58807 2.10588 8.60088 2.10748 8.61369V10.6003H0.887199L0.887198 0.709943ZM2.74725 3.91689H4.96515C5.82511 3.91689 6.50652 4.59829 6.50652 5.45825V5.47667H2.74796L2.74725 3.91689ZM14.2976 4.12909H15.5147V10.6004H14.2976V4.12909ZM2.74807 6.11725H13.657V8.25439H2.74807V6.11725Z" fill="#8D1F56"/>
</svg>
