<svg width="44" height="44" viewBox="0 0 44 44" fill="none" xmlns="http://www.w3.org/2000/svg">
<path d="M8.32812 8.69922H10.0681V32.6242H8.32812V8.69922Z" fill="#8D1F56"/>
<path d="M36.2557 3.91414L36.7774 0.869141H10.2424L9.19906 1.56584L8.28487 0.869141H4.41406V42.6291H40.5191V3.91414H36.2557ZM38.7791 5.65414V37.8441H29.8172C30.5139 37.0608 30.9913 36.0599 31.1222 34.93L35.9516 5.65405L38.7791 5.65414ZM30.0347 31.1016C29.078 29.8833 27.598 29.1441 25.9464 29.1441C25.7289 29.1441 25.5114 29.1441 25.2939 29.1883L33.6455 9.04739L30.0347 31.1016ZM6.15406 2.60914H7.72076L8.32906 3.04414V6.52414H10.0691V3.08834L10.7658 2.60914H34.4289L22.988 30.276L23.7713 30.6244L24.2063 31.3635C24.728 31.0593 25.338 30.8843 25.9463 30.8843C27.8596 30.8843 29.4263 32.451 29.4263 34.3643C29.4263 36.2776 27.8596 37.8443 25.9463 37.8443H10.0688V34.7993H8.3288V37.8443H6.1538L6.15406 2.60914ZM6.15406 40.8891V39.5841H38.7791V40.8891H6.15406Z" fill="#8D1F56"/>
</svg>
