<svg width="35" height="35" viewBox="0 0 35 35" fill="none" xmlns="http://www.w3.org/2000/svg">
<rect width="35" height="35" rx="6.24324" fill="white"/>
<path d="M22.9337 27C22.5663 26.9383 22.1966 26.8907 21.8315 26.8133C20.472 26.4783 19.1681 25.9472 17.9631 25.2365C16.0666 24.1876 14.3475 22.849 12.8693 21.2673C11.0709 19.3234 9.57459 17.181 8.6311 14.6904C8.2653 13.7938 8.05492 12.8425 8.00938 11.8765C7.93794 10.9205 8.27705 9.97939 8.94194 9.28667C9.50478 8.7134 10.0488 8.11827 10.6548 7.59579C11.5905 6.79526 12.6094 6.79526 13.513 7.63328C14.4675 8.5244 15.3899 9.46005 16.2769 10.4128V10.412C16.952 11.136 16.952 12.256 16.2769 12.9808C15.8052 13.5143 15.2824 14.0001 14.7839 14.5093C14.7384 14.5522 14.6897 14.5889 14.6073 14.6639H14.6065C15.9386 17.0615 17.9269 19.0343 20.3408 20.3527L21.5308 19.1554H21.5316C21.8236 18.8118 22.1902 18.5377 22.6039 18.3549C23.268 18.0675 24.0396 18.2042 24.5632 18.7017C25.5625 19.6475 26.5367 20.6206 27.4857 21.6196C28.1514 22.3303 28.1734 23.4252 27.5368 24.1618C26.9362 24.8662 26.2714 25.5324 25.5986 26.1783C25.119 26.6165 24.5091 26.8875 23.8615 26.9492C23.8152 26.9601 23.7688 26.9734 23.7241 26.989L22.9337 27ZM23.2312 25.7973V25.7965C23.8992 25.8332 24.5508 25.5778 25.0139 25.0983C25.4645 24.6289 25.9253 24.1704 26.3813 23.7057C26.4402 23.6464 26.4952 23.5839 26.5478 23.5191C26.704 23.3621 26.7903 23.1481 26.7856 22.9271C26.7809 22.706 26.6867 22.496 26.5234 22.3452C26.1561 21.9508 25.7675 21.5767 25.3868 21.1956C24.8907 20.702 24.4 20.206 23.8992 19.7203L23.8984 19.721C23.7509 19.5555 23.5421 19.4586 23.3199 19.4532C23.0978 19.4469 22.8835 19.532 22.7273 19.689C22.6519 19.7507 22.5852 19.8194 22.5153 19.889C22.038 20.3607 21.5662 20.8387 21.0866 21.3049C20.8009 21.6314 20.3236 21.7103 19.9468 21.4947C19.6548 21.3479 19.3651 21.201 19.0833 21.0362L19.0841 21.0355C17.8446 20.2818 16.7221 19.3508 15.7543 18.2723C14.857 17.3578 14.1128 16.3065 13.5508 15.1569C13.2666 14.5329 13.3286 14.2291 13.8192 13.7542C14.3098 13.2794 14.835 12.7756 15.3201 12.2633C15.4787 12.1211 15.5705 11.9204 15.5745 11.7088C15.5776 11.4963 15.4928 11.2925 15.339 11.1457C15.2801 11.0762 15.2181 11.0121 15.1568 10.9481L12.8026 8.59561C12.2987 8.102 11.8512 8.09654 11.3473 8.59561C10.8433 9.09467 10.3684 9.53437 9.90996 10.0334C9.68388 10.2654 9.50256 10.5364 9.37381 10.8332C9.17207 11.4705 9.16421 12.1523 9.34947 12.7943C9.5732 13.7901 9.92409 14.7538 10.3951 15.6614C11.2036 17.2609 12.228 18.7424 13.4408 20.0646C15.5273 22.4279 18.1687 24.2423 21.1298 25.3458C21.8033 25.5996 22.5121 25.748 23.2312 25.7863L23.2312 25.7973Z" fill="#7F1B4E"/>
</svg>
