<svg width="35" height="35" viewBox="0 0 35 35" fill="none" xmlns="http://www.w3.org/2000/svg">
<rect width="35" height="35" rx="6.24324" fill="#802356"/>
<path d="M23.4403 26C23.1097 25.9445 22.7769 25.9016 22.4484 25.832C21.2248 25.5305 20.0513 25.0525 18.9668 24.4128C17.2599 23.4688 15.7128 22.2641 14.3823 20.8406C12.7638 19.0911 11.4171 17.1629 10.568 14.9213C10.2388 14.1144 10.0494 13.2583 10.0084 12.3888C9.94415 11.5285 10.2493 10.6815 10.8477 10.058C11.3543 9.54206 11.8439 9.00644 12.3893 8.53621C13.2314 7.81574 14.1485 7.81574 14.9617 8.56995C15.8208 9.37196 16.6509 10.214 17.4492 11.0715V11.0708C18.0568 11.7224 18.0568 12.7304 17.4492 13.3827C17.0246 13.8628 16.5541 14.3 16.1055 14.7583C16.0645 14.797 16.0207 14.83 15.9465 14.8975H15.9458C17.1447 17.0554 18.9342 18.8309 21.1067 20.0174L22.1777 18.9399H22.1785C22.4413 18.6306 22.7712 18.3839 23.1435 18.2194C23.7412 17.9607 24.4357 18.0838 24.9069 18.5315C25.8063 19.3827 26.683 20.2586 27.5372 21.1576C28.1363 21.7973 28.1561 22.7827 27.5831 23.4456C27.0426 24.0796 26.4442 24.6792 25.8388 25.2605C25.4071 25.6548 24.8582 25.8988 24.2753 25.9543C24.2336 25.9641 24.192 25.9761 24.1517 25.9901L23.4403 26ZM23.7081 24.9175V24.9168C24.3093 24.9499 24.8957 24.72 25.3125 24.2884C25.718 23.866 26.1327 23.4534 26.5432 23.0352C26.5962 22.9817 26.6457 22.9255 26.693 22.8672C26.8336 22.7259 26.9113 22.5333 26.9071 22.3344C26.9028 22.1354 26.818 21.9464 26.6711 21.8107C26.3405 21.4557 25.9907 21.119 25.6481 20.776C25.2016 20.3318 24.76 19.8854 24.3093 19.4482L24.3086 19.4489C24.1758 19.2999 23.9879 19.2128 23.7879 19.2078C23.588 19.2022 23.3951 19.2788 23.2545 19.4201C23.1867 19.4756 23.1267 19.5375 23.0638 19.6001C22.6342 20.0246 22.2096 20.4548 21.778 20.8744C21.5208 21.1682 21.0912 21.2392 20.7521 21.0452C20.4893 20.9131 20.2286 20.7809 19.975 20.6326L19.9757 20.6319C18.8601 19.9536 17.8499 19.1157 16.9788 18.1451C16.1713 17.322 15.5016 16.3759 14.9957 15.3412C14.7399 14.7796 14.7957 14.5062 15.2373 14.0788C15.6789 13.6514 16.1515 13.1981 16.5881 12.737C16.7308 12.609 16.8135 12.4284 16.817 12.2379C16.8198 12.0467 16.7435 11.8633 16.6051 11.7311C16.5521 11.6685 16.4963 11.6109 16.4412 11.5533L14.3224 9.43605C13.8688 8.9918 13.4661 8.98689 13.0125 9.43605C12.559 9.8852 12.1315 10.2809 11.719 10.7301C11.5155 10.9389 11.3523 11.1828 11.2364 11.4499C11.0549 12.0234 11.0478 12.6371 11.2145 13.2149C11.4159 14.1111 11.7317 14.9785 12.1556 15.7953C12.8832 17.2348 13.8052 18.5682 14.8967 19.7582C16.7746 21.8851 19.1518 23.5181 21.8168 24.5112C22.423 24.7396 23.0609 24.8732 23.7081 24.9076L23.7081 24.9175Z" fill="white"/>
</svg>
