<svg width="42" height="41" viewBox="0 0 42 41" fill="none" xmlns="http://www.w3.org/2000/svg">
<path d="M40.8742 0H1.6593C1.22597 0 0.875 0.350979 0.875 0.78431V39.9998C0.875 40.2076 0.95735 40.4076 1.10441 40.5547C1.25146 40.7018 1.45146 40.7841 1.65931 40.7841H24.8665C25.0743 40.7841 25.2743 40.7018 25.4214 40.5547C25.5685 40.4076 25.6508 40.2076 25.6508 39.9998V26.6035C25.6508 26.1702 25.2998 25.8192 24.8665 25.8192C24.4332 25.8192 24.0822 26.1702 24.0822 26.6035V39.2152H2.44363V27.3881H17.2592C17.467 27.3881 17.667 27.3057 17.8141 27.1587C17.9612 27.0116 18.0435 26.8116 18.0435 26.6038V19.2471C18.0435 18.8137 17.6925 18.4628 17.2592 18.4628C16.8259 18.4628 16.4749 18.8137 16.4749 19.2471V25.8197H2.44389V12.5489H17.2595C17.4673 12.5489 17.6673 12.4666 17.8144 12.3195C17.9614 12.1725 18.0438 11.9725 18.0438 11.7646V1.56884H26.5298V6.99601C26.5298 7.42934 26.8807 7.78032 27.3141 7.78032C27.7474 7.78032 28.0984 7.42934 28.0984 6.99601V1.56884H40.0905V13.2394H27.3143C26.881 13.2394 26.53 13.5903 26.53 14.0237C26.53 14.457 26.881 14.808 27.3143 14.808H40.0905V25.7883H31.7219C31.2886 25.7883 30.9376 26.1393 30.9376 26.5726C30.9376 27.006 31.2886 27.3569 31.7219 27.3569H40.0905V39.2157H33.032C32.5987 39.2157 32.2477 39.5667 32.2477 40C32.2477 40.4333 32.5987 40.7843 33.032 40.7843H40.875C41.0828 40.7843 41.2828 40.702 41.4299 40.5549C41.577 40.4078 41.6593 40.2078 41.6593 40V0.784515C41.6593 0.576675 41.577 0.376674 41.4299 0.229601C41.2829 0.0825268 41.0829 0.000190524 40.875 0.000190524L40.8742 0ZM16.4749 10.9803H2.44385V1.56862H16.4749V10.9803Z" fill="#8D1F56"/>
</svg>
