<svg width="32" height="32" viewBox="0 0 32 32" fill="none" xmlns="http://www.w3.org/2000/svg">
<g filter="url(#filter0_d_2433_34272)">
<rect x="2.33594" y="2" width="27.4615" height="28" rx="3.68316" fill="white"/>
<rect x="2.5201" y="2.18416" width="27.0932" height="27.6317" rx="3.499" stroke="#E1E4ED" stroke-width="0.368316"/>
<path d="M24.0788 7.38477H7.51104C7.32797 7.38477 7.17969 7.53305 7.17969 7.71612V24.2841C7.17969 24.3719 7.21448 24.4564 7.27661 24.5185C7.33874 24.5807 7.42323 24.6154 7.51105 24.6154H17.3157C17.4035 24.6154 17.488 24.5807 17.5502 24.5185C17.6123 24.4564 17.6471 24.3719 17.6471 24.2841V18.6244C17.6471 18.4413 17.4988 18.293 17.3157 18.293C17.1327 18.293 16.9844 18.4413 16.9844 18.6244V23.9526H7.84241V18.9558H14.1018C14.1896 18.9558 14.2741 18.921 14.3362 18.8589C14.3983 18.7968 14.4331 18.7123 14.4331 18.6245V15.5164C14.4331 15.3333 14.2848 15.185 14.1018 15.185C13.9187 15.185 13.7704 15.3333 13.7704 15.5164V18.2932H7.84252V12.6865H14.1019C14.1897 12.6865 14.2742 12.6517 14.3363 12.5896C14.3985 12.5275 14.4332 12.443 14.4332 12.3551V8.04758H18.0184V10.3405C18.0184 10.5236 18.1667 10.6718 18.3498 10.6718C18.5329 10.6718 18.6812 10.5236 18.6812 10.3405V8.04758H23.7476V12.9782H18.3499C18.1668 12.9782 18.0185 13.1265 18.0185 13.3096C18.0185 13.4926 18.1668 13.6409 18.3499 13.6409H23.7476V18.2799H20.2121C20.029 18.2799 19.8807 18.4282 19.8807 18.6113C19.8807 18.7944 20.029 18.9427 20.2121 18.9427H23.7476V23.9528H20.7656C20.5825 23.9528 20.4342 24.1011 20.4342 24.2842C20.4342 24.4673 20.5825 24.6155 20.7656 24.6155H24.0791C24.1669 24.6155 24.2514 24.5807 24.3135 24.5186C24.3757 24.4565 24.4105 24.372 24.4105 24.2842V7.71621C24.4105 7.6284 24.3757 7.5439 24.3135 7.48177C24.2514 7.41963 24.1669 7.38485 24.0791 7.38485L24.0788 7.38477ZM13.7704 12.0238H7.8425V8.04748H13.7704V12.0238Z" fill="#706F70"/>
</g>
<defs>
<filter id="filter0_d_2433_34272" x="0.862673" y="0.895051" width="30.4075" height="30.9465" filterUnits="userSpaceOnUse" color-interpolation-filters="sRGB">
<feFlood flood-opacity="0" result="BackgroundImageFix"/>
<feColorMatrix in="SourceAlpha" type="matrix" values="0 0 0 0 0 0 0 0 0 0 0 0 0 0 0 0 0 0 127 0" result="hardAlpha"/>
<feOffset dy="0.368316"/>
<feGaussianBlur stdDeviation="0.736632"/>
<feComposite in2="hardAlpha" operator="out"/>
<feColorMatrix type="matrix" values="0 0 0 0 0.0969792 0 0 0 0 0.127894 0 0 0 0 0.2375 0 0 0 0.08 0"/>
<feBlend mode="normal" in2="BackgroundImageFix" result="effect1_dropShadow_2433_34272"/>
<feBlend mode="normal" in="SourceGraphic" in2="effect1_dropShadow_2433_34272" result="shape"/>
</filter>
</defs>
</svg>
