<svg width="25" height="26" viewBox="0 0 25 26" fill="none" xmlns="http://www.w3.org/2000/svg">
<g filter="url(#filter0_d_2433_10791)">
<rect x="4.71484" y="6.46484" width="15.518" height="13.7391" fill="white"/>
<path d="M4 17.2328L7.23021 13.1238C8.14617 11.9586 9.89835 11.9205 10.8641 13.0448L13.7041 16.3507M11.2516 13.4959C12.4716 11.9441 14.1714 9.74547 14.2821 9.60242C14.286 9.5973 14.2897 9.59247 14.2937 9.5874C15.2115 8.42974 16.958 8.39426 17.9217 9.516L20.7616 12.8219M6.35251 21.0557H18.7032C20.0024 21.0557 21.0557 20.0024 21.0557 18.7032V6.35251C21.0557 5.05325 20.0024 4 18.7032 4H6.35251C5.05325 4 4 5.05325 4 6.35251V18.7032C4 20.0024 5.05325 21.0557 6.35251 21.0557Z" fill="white"/>
<path d="M4 17.2328L7.23021 13.1238C8.14617 11.9586 9.89835 11.9205 10.8641 13.0448L13.7041 16.3507M11.2516 13.4959C12.4716 11.9441 14.1714 9.74547 14.2821 9.60242C14.286 9.5973 14.2897 9.59247 14.2937 9.5874C15.2115 8.42974 16.958 8.39426 17.9217 9.516L20.7616 12.8219M6.35251 21.0557H18.7032C20.0024 21.0557 21.0557 20.0024 21.0557 18.7032V6.35251C21.0557 5.05325 20.0024 4 18.7032 4H6.35251C5.05325 4 4 5.05325 4 6.35251V18.7032C4 20.0024 5.05325 21.0557 6.35251 21.0557Z" stroke="#6D758F" stroke-width="1.03409" stroke-linecap="round" stroke-linejoin="round"/>
<path d="M18.9321 20.5825H6.25117H6.10618C5.17812 20.5825 4.42578 19.8302 4.42578 18.9021V17.9679C4.42578 17.5831 4.55781 17.2101 4.7998 16.9109L7.78392 13.2225C8.44368 12.407 9.68105 12.3887 10.3647 13.1842L13.3543 16.6627C13.4696 16.797 13.651 16.8543 13.8226 16.8107C14.1592 16.7251 14.2874 16.3147 14.0592 16.0528L11.8394 13.5043L14.7943 9.70157C15.4413 8.86906 16.6861 8.83102 17.3827 9.62247L20.6125 13.2924V18.9021C20.6125 19.8302 19.8602 20.5825 18.9321 20.5825Z" fill="#E1E4ED"/>
</g>
<defs>
<filter id="filter0_d_2433_10791" x="0.123569" y="0.962305" width="24.8115" height="24.8115" filterUnits="userSpaceOnUse" color-interpolation-filters="sRGB">
<feFlood flood-opacity="0" result="BackgroundImageFix"/>
<feColorMatrix in="SourceAlpha" type="matrix" values="0 0 0 0 0 0 0 0 0 0 0 0 0 0 0 0 0 0 127 0" result="hardAlpha"/>
<feOffset dy="0.840202"/>
<feGaussianBlur stdDeviation="1.6804"/>
<feComposite in2="hardAlpha" operator="out"/>
<feColorMatrix type="matrix" values="0 0 0 0 0.0969792 0 0 0 0 0.127894 0 0 0 0 0.2375 0 0 0 0.08 0"/>
<feBlend mode="normal" in2="BackgroundImageFix" result="effect1_dropShadow_2433_10791"/>
<feBlend mode="normal" in="SourceGraphic" in2="effect1_dropShadow_2433_10791" result="shape"/>
</filter>
</defs>
</svg>
