<svg width="204" height="59" viewBox="0 0 204 59" fill="none" xmlns="http://www.w3.org/2000/svg">
<path d="M196.396 59H7.55371C3.40106 59 0 55.6794 0 51.625V7.375C0 3.32059 3.40106 7.56029e-07 7.55371 7.56029e-07H196.396C200.549 7.56029e-07 203.95 3.32059 203.95 7.375V51.625C203.95 55.6794 200.549 59 196.396 59Z" fill="black"/>
<path d="M196.396 1.18184C199.894 1.18184 202.74 3.96037 202.74 7.375V51.625C202.74 55.0396 199.894 57.8182 196.396 57.8182H7.55371C4.05634 57.8182 1.21048 55.0396 1.21048 51.625V7.375C1.21048 3.96037 4.05634 1.18184 7.55371 1.18184H196.396ZM196.396 7.56029e-07H7.55371C3.40106 7.56029e-07 0 3.32059 0 7.375V51.625C0 55.6794 3.40106 59 7.55371 59H196.396C200.549 59 203.95 55.6794 203.95 51.625V7.375C203.95 3.32059 200.549 7.56029e-07 196.396 7.56029e-07Z" fill="#A6A6A6"/>
<path d="M71.6353 15.1087C71.6353 16.3403 71.2576 17.3267 70.5136 18.0623C69.6581 18.9344 68.5439 19.3732 67.1786 19.3732C65.8737 19.3732 64.7595 18.9271 63.8455 18.0476C62.9297 17.1552 62.4727 16.06 62.4727 14.7491C62.4727 13.4382 62.9297 12.343 63.8455 11.458C64.7595 10.5712 65.8737 10.125 67.1786 10.125C67.8282 10.125 68.4476 10.2559 69.0387 10.4993C69.6279 10.7445 70.1076 11.0764 70.455 11.4857L69.6657 12.2638C69.0595 11.565 68.2342 11.2202 67.1786 11.2202C66.2268 11.2202 65.4016 11.5447 64.701 12.1992C64.0079 12.8556 63.6605 13.7056 63.6605 14.7491C63.6605 15.7927 64.0079 16.65 64.701 17.3064C65.4016 17.9536 66.2268 18.2854 67.1786 18.2854C68.1889 18.2854 69.0387 17.9536 69.7091 17.299C70.151 16.8657 70.4022 16.2684 70.4683 15.5051H67.1786V14.4394H71.5673C71.6202 14.6698 71.6353 14.8929 71.6353 15.1087Z" fill="white" stroke="white" stroke-width="0.16" stroke-miterlimit="10"/>
<path d="M78.5981 11.4141H74.4756V14.2166H78.1921V15.2823H74.4756V18.0848H78.5981V19.1707H73.3086V10.3281H78.5981V11.4141Z" fill="white" stroke="white" stroke-width="0.16" stroke-miterlimit="10"/>
<path d="M83.5121 19.1707H82.345V11.4141H79.8164V10.3281H86.0425V11.4141H83.5121V19.1707Z" fill="white" stroke="white" stroke-width="0.16" stroke-miterlimit="10"/>
<path d="M90.5479 19.1707V10.3281H91.713V19.1707H90.5479Z" fill="white" stroke="white" stroke-width="0.16" stroke-miterlimit="10"/>
<path d="M96.8783 19.1707H95.7207V11.4141H93.1826V10.3281H99.4163V11.4141H96.8783V19.1707Z" fill="white" stroke="white" stroke-width="0.16" stroke-miterlimit="10"/>
<path d="M111.204 18.0328C110.311 18.9271 109.204 19.3732 107.884 19.3732C106.557 19.3732 105.45 18.9271 104.557 18.0328C103.665 17.1405 103.222 16.0453 103.222 14.7491C103.222 13.453 103.665 12.3578 104.557 11.4654C105.45 10.5712 106.557 10.125 107.884 10.125C109.197 10.125 110.303 10.5712 111.197 11.4728C112.095 12.3725 112.539 13.4603 112.539 14.7491C112.539 16.0453 112.095 17.1405 111.204 18.0328ZM105.42 17.2917C106.092 17.9536 106.91 18.2854 107.884 18.2854C108.851 18.2854 109.676 17.9536 110.341 17.2917C111.011 16.6297 111.351 15.7798 111.351 14.7491C111.351 13.7185 111.011 12.8685 110.341 12.2066C109.676 11.5447 108.851 11.2128 107.884 11.2128C106.91 11.2128 106.092 11.5447 105.42 12.2066C104.749 12.8685 104.41 13.7185 104.41 14.7491C104.41 15.7798 104.749 16.6297 105.42 17.2917Z" fill="white" stroke="white" stroke-width="0.16" stroke-miterlimit="10"/>
<path d="M114.176 19.1707V10.3281H115.592L119.996 17.2053H120.047L119.996 15.5054V10.3281H121.161V19.1707H119.945L115.333 11.9543H115.282L115.333 13.6616V19.1707H114.176Z" fill="white" stroke="white" stroke-width="0.16" stroke-miterlimit="10"/>
<path d="M102.934 32.0863C99.3861 32.0863 96.4874 34.7228 96.4874 38.3605C96.4874 41.9688 99.3861 44.633 102.934 44.633C106.49 44.633 109.389 41.9688 109.389 38.3605C109.389 34.7228 106.49 32.0863 102.934 32.0863ZM102.934 42.1623C100.988 42.1623 99.3125 40.5933 99.3125 38.3605C99.3125 36.0983 100.988 34.5569 102.934 34.5569C104.881 34.5569 106.564 36.0983 106.564 38.3605C106.564 40.5933 104.881 42.1623 102.934 42.1623ZM88.8676 32.0863C85.3117 32.0863 82.4205 34.7228 82.4205 38.3605C82.4205 41.9688 85.3117 44.633 88.8676 44.633C92.4216 44.633 95.3147 41.9688 95.3147 38.3605C95.3147 34.7228 92.4216 32.0863 88.8676 32.0863ZM88.8676 42.1623C86.9187 42.1623 85.2381 40.5933 85.2381 38.3605C85.2381 36.0983 86.9187 34.5569 88.8676 34.5569C90.8146 34.5569 92.4896 36.0983 92.4896 38.3605C92.4896 40.5933 90.8146 42.1623 88.8676 42.1623ZM72.1286 34.0093V36.6753H78.6493C78.4586 38.1651 77.9487 39.2603 77.1669 40.0236C76.2152 40.9455 74.7327 41.9688 72.1286 41.9688C68.1157 41.9688 64.9734 38.8067 64.9734 34.8888C64.9734 30.9708 68.1157 27.8088 72.1286 27.8088C74.2984 27.8088 75.8771 28.6366 77.0423 29.7097L78.9666 27.8309C77.3369 26.3116 75.169 25.1445 72.1286 25.1445C66.6257 25.1445 62.001 29.5161 62.001 34.8888C62.001 40.2614 66.6257 44.633 72.1286 44.633C75.1029 44.633 77.3369 43.6816 79.0931 41.8968C80.8928 40.1398 81.4536 37.6691 81.4536 35.6742C81.4536 35.0547 81.4008 34.485 81.3064 34.0093H72.1286ZM140.576 36.0761C140.046 34.673 138.409 32.0863 135.074 32.0863C131.769 32.0863 129.017 34.6288 129.017 38.3605C129.017 41.8747 131.741 44.633 135.391 44.633C138.342 44.633 140.046 42.8759 140.746 41.8526L138.556 40.4274C137.825 41.4709 136.83 42.1623 135.391 42.1623C133.961 42.1623 132.936 41.5226 132.279 40.2614L140.873 36.7897L140.576 36.0761ZM131.814 38.1651C131.741 35.7461 133.738 34.5071 135.17 34.5071C136.292 34.5071 137.243 35.0547 137.561 35.8383L131.814 38.1651ZM124.829 44.2513H127.654V25.8138H124.829V44.2513ZM120.202 33.4838H120.108C119.473 32.75 118.263 32.0863 116.729 32.0863C113.512 32.0863 110.569 34.8445 110.569 38.3808C110.569 41.8968 113.512 44.633 116.729 44.633C118.263 44.633 119.473 43.9637 120.108 43.2078H120.202V44.1075C120.202 46.5062 118.89 47.795 116.773 47.795C115.047 47.795 113.976 46.5781 113.534 45.5548L111.077 46.556C111.786 48.2191 113.661 50.2656 116.773 50.2656C120.085 50.2656 122.88 48.3629 122.88 43.7332V32.4679H120.202V33.4838ZM116.971 42.1623C115.024 42.1623 113.394 40.5712 113.394 38.3808C113.394 36.1702 115.024 34.5569 116.971 34.5569C118.89 34.5569 120.402 36.1702 120.402 38.3808C120.402 40.5712 118.89 42.1623 116.971 42.1623ZM153.803 25.8138H147.046V44.2513H149.864V37.2653H153.803C156.932 37.2653 160.001 35.0547 160.001 31.5387C160.001 28.0245 156.925 25.8138 153.803 25.8138ZM153.877 34.7007H149.864V28.3785H153.877C155.98 28.3785 157.181 30.0839 157.181 31.5387C157.181 32.9657 155.98 34.7007 153.877 34.7007ZM171.294 32.0512C169.258 32.0512 167.141 32.9288 166.27 34.874L168.771 35.8973C169.309 34.874 170.298 34.5421 171.345 34.5421C172.806 34.5421 174.289 35.3995 174.311 36.9132V37.1068C173.801 36.8192 172.71 36.3933 171.367 36.3933C168.674 36.3933 165.93 37.8406 165.93 40.5417C165.93 43.0123 168.136 44.6035 170.616 44.6035C172.512 44.6035 173.558 43.7683 174.215 42.7966H174.311V44.2218H177.033V37.1492C177.033 33.8802 174.532 32.0512 171.294 32.0512ZM170.954 42.155C170.032 42.155 168.748 41.7088 168.748 40.5933C168.748 39.1663 170.349 38.6187 171.736 38.6187C172.976 38.6187 173.558 38.886 174.311 39.2382C174.09 40.9455 172.585 42.155 170.954 42.155ZM186.947 32.455L183.708 40.4477H183.612L180.264 32.455H177.225L182.256 43.6244L179.386 49.8397H182.33L190.082 32.455H186.947ZM161.549 44.2513H164.374V25.8138H161.549V44.2513Z" fill="white"/>
<path d="M15.7651 11.1206C15.3213 11.5742 15.0645 12.2804 15.0645 13.1949V45.8145C15.0645 46.729 15.3213 47.4352 15.7651 47.8887L15.8746 47.9883L34.5964 29.7167V29.2853L15.8746 11.0137L15.7651 11.1206Z" fill="url(#paint0_linear_1603_48374)"/>
<path d="M40.8294 35.8086L34.5957 29.715V29.2836L40.837 23.19L40.9767 23.2693L48.368 27.3753C50.4774 28.5405 50.4774 30.458 48.368 31.6307L40.9767 35.7293L40.8294 35.8086Z" fill="url(#paint1_linear_1603_48374)"/>
<path d="M40.977 35.7304L34.596 29.5004L15.7646 47.8881C16.4653 48.6071 17.6078 48.6938 18.907 47.9747L40.977 35.7304Z" fill="url(#paint2_linear_1603_48374)"/>
<path d="M40.977 23.27L18.907 11.0256C17.6078 10.3139 16.4653 10.4006 15.7646 11.1197L34.596 29.5L40.977 23.27Z" fill="url(#paint3_linear_1603_48374)"/>
<defs>
<linearGradient id="paint0_linear_1603_48374" x1="32.9342" y1="46.1542" x2="8.18722" y2="20.8076" gradientUnits="userSpaceOnUse">
<stop stop-color="#00A0FF"/>
<stop offset="0.0066" stop-color="#00A1FF"/>
<stop offset="0.2601" stop-color="#00BEFF"/>
<stop offset="0.5122" stop-color="#00D2FF"/>
<stop offset="0.7604" stop-color="#00DFFF"/>
<stop offset="1" stop-color="#00E3FF"/>
</linearGradient>
<linearGradient id="paint1_linear_1603_48374" x1="51.1147" y1="29.4972" x2="14.5595" y2="29.4972" gradientUnits="userSpaceOnUse">
<stop stop-color="#FFE000"/>
<stop offset="0.4087" stop-color="#FFBD00"/>
<stop offset="0.7754" stop-color="#FFA500"/>
<stop offset="1" stop-color="#FF9C00"/>
</linearGradient>
<linearGradient id="paint2_linear_1603_48374" x1="37.5072" y1="26.1136" x2="3.94836" y2="-8.25843" gradientUnits="userSpaceOnUse">
<stop stop-color="#FF3A44"/>
<stop offset="1" stop-color="#C31162"/>
</linearGradient>
<linearGradient id="paint3_linear_1603_48374" x1="11.0244" y1="58.7401" x2="26.0099" y2="43.3916" gradientUnits="userSpaceOnUse">
<stop stop-color="#32A071"/>
<stop offset="0.0685" stop-color="#2DA771"/>
<stop offset="0.4762" stop-color="#15CF74"/>
<stop offset="0.8009" stop-color="#06E775"/>
<stop offset="1" stop-color="#00F076"/>
</linearGradient>
</defs>
</svg>
