<svg width="26" height="22" viewBox="0 0 26 22" fill="none" xmlns="http://www.w3.org/2000/svg">
<path d="M20.1472 5.59123L20.1473 5.59119C20.7702 5.00287 21.5703 4.67788 22.3983 4.67788C24.2932 4.67788 25.8273 6.35094 25.8273 8.39912C25.8273 9.64338 25.2576 10.795 24.3157 11.484V15.9423C24.3157 17.0783 23.6486 18.0522 22.7135 18.4218C22.742 18.5369 22.7572 18.6585 22.7572 18.7836V19.6295C22.7572 20.4089 22.1727 21.05 21.4457 21.05H20.5735C19.8464 21.05 19.262 20.4088 19.262 19.6295V18.7836C19.262 18.7139 19.2669 18.646 19.2762 18.5793H7.2758C7.28506 18.646 7.29001 18.7139 7.29001 18.7836V19.6295C7.29001 20.4089 6.70556 21.05 5.97851 21.05H5.10629C4.3792 21.05 3.79478 20.4088 3.79478 19.6295V18.7836C3.79478 18.6583 3.81002 18.5377 3.83856 18.4219C2.90338 18.0537 2.23631 17.0797 2.23631 15.9423V11.4839C1.29711 10.7949 0.727344 9.64333 0.727344 8.39912C0.727344 6.35093 2.2616 4.67788 4.15785 4.67788C4.98581 4.67788 5.78591 5.00287 6.40885 5.59119L6.4089 5.59123C6.43163 5.61276 6.45383 5.63453 6.47569 5.65651V3.58846C6.47569 2.13762 7.56312 0.95 8.90822 0.95H17.6465C18.9916 0.95 20.0791 2.1376 20.0791 3.58843L20.1472 5.59123ZM20.1472 5.59123C20.1247 5.61258 20.1023 5.63422 20.0803 5.65617M20.1472 5.59123L20.0803 5.65617M20.0803 5.65617L20.0791 3.58846L20.0803 5.65617ZM6.4331 8.02556C6.43466 8.0418 6.43765 8.05851 6.44231 8.07432C6.46407 8.17792 6.47558 8.28566 6.47558 8.39332V12.4336C6.47558 12.7653 6.72424 13.0417 7.03928 13.0417H19.5166C19.8317 13.0417 20.0803 12.7653 20.0803 12.4336V8.39332C20.0803 8.28496 20.092 8.17651 20.1141 8.0723L20.1143 8.071C20.1153 8.06547 20.1163 8.06003 20.1173 8.05473C20.1189 8.04598 20.1205 8.03761 20.1221 8.02982L20.1222 8.02984L20.1227 8.02658C20.2896 6.80709 21.2703 5.89408 22.3995 5.89408C23.663 5.89408 24.7 7.0144 24.7 8.39912C24.7 9.32599 24.2333 10.1707 23.4858 10.6087L23.4858 10.6087C23.3036 10.7157 23.1909 10.9217 23.1909 11.1431V15.942C23.1909 16.7308 22.6021 17.3643 21.8858 17.3643H4.67143C3.95506 17.3643 3.3663 16.7308 3.3663 15.942V11.1431C3.3663 10.9217 3.25364 10.7157 3.07138 10.6087L3.07129 10.6087C2.32124 10.1707 1.85464 9.32597 1.85464 8.39912C1.85464 7.01298 2.89153 5.89408 4.15641 5.89408C5.28523 5.89408 6.26575 6.80796 6.4331 8.02556ZM6.4331 8.02556C6.43306 8.02517 6.43302 8.02478 6.43299 8.02439L6.48278 8.0198M6.4331 8.02556C6.43314 8.0259 6.43319 8.02625 6.43324 8.02659L6.48278 8.0198M6.48278 8.0198C6.31288 6.78005 5.31357 5.84408 4.15641 5.84408C2.86011 5.84408 1.80464 6.98933 1.80464 8.39912C1.80464 9.34238 2.27953 10.2042 3.04607 10.6519M6.48278 8.0198C6.48411 8.03434 6.48679 8.04887 6.4908 8.06195C6.51355 8.1695 6.52558 8.28141 6.52558 8.39332V12.4336C6.52558 12.7417 6.75568 12.9917 7.03928 12.9917H19.5166C19.8002 12.9917 20.0303 12.7417 20.0303 12.4336V8.39332L3.04607 10.6519M3.04607 10.6519C3.21195 10.7492 3.3163 10.9382 3.3163 11.1431V15.942C3.3163 16.7544 3.92363 17.4143 4.67143 17.4143H21.8858C22.6336 17.4143 23.2409 16.7544 23.2409 15.942V11.1431C23.2409 10.9382 23.3453 10.7492 23.5111 10.6519C24.275 10.2042 24.75 9.34238 24.75 8.39912C24.75 6.99078 23.6944 5.84408 22.3995 5.84408L3.04607 10.6519ZM7.60309 3.58843C7.60309 2.79962 8.19185 2.16617 8.90822 2.16617H17.6479C18.3643 2.16617 18.9531 2.79962 18.9531 3.58843V8.28278V8.28379C18.9531 8.2937 18.9531 8.30609 18.9543 8.31903C18.9531 8.34499 18.9531 8.36952 18.9531 8.39407V8.39469V11.827H7.60309V8.39469V8.39414C7.60309 8.36878 7.60309 8.34344 7.60176 8.31652C7.60179 8.31271 7.60202 8.30859 7.60234 8.30309L7.60237 8.3026C7.60268 8.2971 7.60309 8.29005 7.60309 8.28278V3.58843ZM6.16398 18.7851V19.6309C6.16398 19.747 6.07802 19.8353 5.97988 19.8353H5.10765C5.01049 19.8353 4.92355 19.7481 4.92355 19.6309V18.7851C4.92355 18.669 5.00951 18.5807 5.10765 18.5807H5.97988C6.07704 18.5807 6.16398 18.6679 6.16398 18.7851ZM21.6311 19.6309C21.6311 19.747 21.5451 19.8353 21.447 19.8353H20.5747C20.4776 19.8353 20.3906 19.7481 20.3906 19.6309V18.7851C20.3906 18.669 20.4766 18.5807 20.5747 18.5807H21.447C21.5441 18.5807 21.6311 18.6679 21.6311 18.7851V19.6309Z" fill="#8D1F56" stroke="#8D1F56" stroke-width="0.1"/>
</svg>
