<svg width="23" height="23" viewBox="0 0 23 23" fill="none" xmlns="http://www.w3.org/2000/svg">
<path d="M1.45618 1.00075C1.19508 1.02976 0.997992 1.25084 1.00002 1.51293V10.2199C1.00002 10.503 1.2291 10.7321 1.51221 10.7321H21.4878C21.7709 10.7321 21.9999 10.503 21.9999 10.2199V1.51293C21.9999 1.22982 21.7709 1.00075 21.4878 1.00075H1.51221C1.4932 0.99975 1.47518 0.99975 1.45618 1.00075ZM2.02445 2.0251L20.9756 2.0251V9.70776H2.02445V2.0251ZM1.51221 12.2686C1.22909 12.2686 1.00002 12.4977 1.00002 12.7808V21.4878C1.00002 21.7709 1.2291 22 1.51221 22H21.4878C21.7709 22 22 21.7709 22 21.4878V12.7808C22 12.4977 21.7709 12.2686 21.4878 12.2686H1.51221ZM2.0244 13.293H20.9756V20.9756H2.0244V13.293Z" fill="#8D1F56" stroke="#8D1F56" stroke-width="0.5"/>
</svg>
