<svg width="20" height="20" viewBox="0 0 20 20" fill="none" xmlns="http://www.w3.org/2000/svg">
<path fill-rule="evenodd" clip-rule="evenodd" d="M10.0002 19.5668H12.801C13.8893 19.5668 14.2229 19.1129 14.7393 17.8301C14.8268 17.6129 14.9658 17.2605 15.1338 16.8137H4.8674C5.03459 17.2598 5.17364 17.6129 5.26194 17.8301C5.77756 19.1113 6.11116 19.5668 7.20022 19.5668H10.001H10.0002ZM15.4158 16.041C16.2502 13.7012 17.3908 9.95737 16.8572 8.21837C16.8423 8.16837 16.8259 8.11915 16.8095 8.06993H3.19153C3.17434 8.11915 3.15871 8.16837 3.14387 8.21837C2.61027 9.95743 3.75011 13.7012 4.58527 16.041H15.4173H15.4158ZM16.4845 7.29637C15.6009 5.54871 14.0665 4.57997 13.8243 3.93537C13.5431 3.18537 15.5118 0.43457 15.5118 0.43457H4.48604C4.48604 0.43457 6.45558 3.18537 6.17354 3.93537C5.93136 4.58069 4.39698 5.54787 3.51334 7.29637H16.4845Z" fill="#8D1F56"/>
</svg>
