<svg width="30" height="30" viewBox="0 0 30 30" fill="none" xmlns="http://www.w3.org/2000/svg">
<path d="M14.8813 0C11.9381 4.5299e-09 9.06101 0.872753 6.61381 2.5079C4.1666 4.14304 2.25922 6.46713 1.13286 9.18629C0.00650896 11.9054 -0.288247 14.8975 0.285884 17.7842C0.860016 20.6709 2.27724 23.3225 4.35834 25.4037C6.43945 27.4849 9.09097 28.9023 11.9776 29.4766C14.8642 30.0509 17.8564 29.7563 20.5756 28.6301C23.2948 27.5039 25.619 25.5966 27.2543 23.1495C28.8895 20.7024 29.7625 17.8253 29.7626 14.8821C29.7627 12.9278 29.3779 10.9926 28.6301 9.18705C27.8823 7.38147 26.7862 5.74087 25.4043 4.35893C24.0224 2.97698 22.3819 1.88076 20.5763 1.13285C18.7708 0.384944 16.8356 -3.00788e-09 14.8813 0ZM10.9116 22.0759H7.64459V11.5201H10.9116V22.0759ZM9.26037 10.138C8.87454 10.141 8.49652 10.0292 8.17427 9.81702C7.85203 9.60481 7.60008 9.30166 7.45038 8.94604C7.30068 8.59041 7.26 8.19834 7.33347 7.81955C7.40693 7.44077 7.59124 7.09233 7.86302 6.81846C8.13481 6.54458 8.48183 6.3576 8.86005 6.28124C9.23826 6.20487 9.63063 6.24256 9.98739 6.38953C10.3441 6.5365 10.6492 6.78612 10.8639 7.10673C11.0786 7.42734 11.1932 7.80449 11.1932 8.19033C11.1942 8.44513 11.1449 8.69763 11.0483 8.9334C10.9517 9.16918 10.8097 9.38362 10.6302 9.56448C10.4507 9.74534 10.2373 9.88908 10.0023 9.98748C9.76728 10.0859 9.51517 10.137 9.26037 10.138ZM23.1542 22.0759H19.9029V16.5334C19.9029 15.0134 19.3249 14.1655 18.1236 14.1655C16.8158 14.1655 16.133 15.0489 16.133 16.5334V22.0743H12.9956V11.5201H16.133V12.9419C16.4673 12.4018 16.9356 11.9573 17.4924 11.6518C18.0493 11.3462 18.6757 11.19 19.3109 11.1981C21.5492 11.1981 23.1517 12.5646 23.1517 15.3924L23.1542 22.0759Z" fill="white"/>
</svg>
