<svg width="23" height="23" viewBox="0 0 23 23" fill="none" xmlns="http://www.w3.org/2000/svg">
<path d="M1.45617 1.00075C1.19508 1.02976 0.997992 1.25084 1.00002 1.51293V10.2199C1.00002 10.503 1.2291 10.7321 1.51221 10.7321H10.2195C10.5026 10.7321 10.7317 10.503 10.7317 10.2199V1.51293C10.7317 1.22982 10.5026 1.00075 10.2195 1.00075H1.51221C1.4932 0.99975 1.47518 0.99975 1.45617 1.00075ZM12.7805 1.00075C12.4974 1.00075 12.2683 1.22983 12.2683 1.51293V10.2199C12.2683 10.503 12.4974 10.7321 12.7805 10.7321H21.4878C21.7709 10.7321 22 10.503 22 10.2199V1.51293C22.001 1.24782 21.7999 1.02577 21.5358 1.00075C21.5198 0.99975 21.5038 0.99975 21.4878 1.00075H12.7805ZM2.02445 2.0251H9.70735V9.70776H2.02445V2.0251ZM13.2927 2.0251H20.9756V9.70776H13.2927V2.0251ZM1.51226 12.2686C1.22915 12.2686 1.00007 12.4977 1.00007 12.7808V21.4878C1.00007 21.7709 1.22915 22 1.51226 22H10.2195C10.5027 22 10.7317 21.7709 10.7317 21.4878V12.7808C10.7317 12.4977 10.5027 12.2686 10.2195 12.2686H1.51226ZM12.7805 12.2686C12.4974 12.2686 12.2683 12.4977 12.2683 12.7808V21.4878C12.2683 21.7709 12.4974 22 12.7805 22H21.4878C21.7709 22 22 21.7709 22 21.4878V12.7808C22 12.4977 21.7709 12.2686 21.4878 12.2686H12.7805ZM2.02445 13.293H9.70735V20.9756H2.02445V13.293ZM13.2927 13.293H20.9756V20.9756H13.2927V13.293Z" fill="#8D1F56" stroke="#D0D3D4" stroke-width="0.5"/>
</svg>
