<svg width="26" height="25" viewBox="0 0 26 25" fill="none" xmlns="http://www.w3.org/2000/svg">
<path fill-rule="evenodd" clip-rule="evenodd" d="M22.3765 10.417V12.5H21.3052C21.3169 12.3271 21.3345 12.1552 21.3345 11.9795C21.3345 7.66297 17.3707 4.16697 12.481 4.16697C11.561 4.16697 10.6753 4.291 9.84221 4.51952C9.07853 3.66992 7.98381 3.125 6.75146 3.125V6.02825C5.57373 6.91205 4.66748 8.0634 4.14121 9.375H1.54346V12.5C1.54346 13.0762 2.00831 13.542 2.58448 13.542H3.80421C4.20656 15.2871 5.27003 16.8182 6.75146 17.9307V21.875H9.87646V19.4473C10.7007 19.6709 11.5747 19.792 12.481 19.792C13.3872 19.792 14.2612 19.6709 15.0845 19.4473V21.875H18.2095V17.9307C19.3882 17.046 20.2944 15.8946 20.8197 14.583H22.3764C23.5258 14.583 24.4594 13.6494 24.4594 12.5C24.4594 11.3506 23.5259 10.417 22.3765 10.417Z" fill="#8D1F56"/>
</svg>
