<svg width="23" height="23" viewBox="0 0 23 23" fill="none" xmlns="http://www.w3.org/2000/svg">
<path fill-rule="evenodd" clip-rule="evenodd" d="M11.5001 1.07812C10.6942 1.07812 10.112 1.68546 9.91346 2.43927H8.64307C8.54694 2.43837 8.4553 2.477 8.38791 2.54438C8.31963 2.61176 8.28189 2.7043 8.28189 2.79954V5.07797C8.28189 5.1741 8.31963 5.26574 8.38791 5.33403C8.45529 5.40141 8.54694 5.43915 8.64307 5.43915H14.3597C14.5583 5.43825 14.7182 5.27653 14.7182 5.07798V2.79955C14.7182 2.601 14.5583 2.44018 14.3597 2.43928H13.0866C12.889 1.6855 12.306 1.07812 11.5001 1.07812ZM5.3584 3.45725C4.40516 3.45725 3.62622 4.23439 3.62622 5.18673V20.1915C3.62622 21.1438 4.40516 21.9219 5.3584 21.9219H17.6409C18.5941 21.9219 19.373 21.1438 19.373 20.1915L19.3739 5.18673C19.3739 4.23439 18.595 3.45725 17.6418 3.45725H15.7964V5.07352C15.7991 5.85426 15.1459 6.51371 14.3643 6.51641V6.5173H14.3598H8.64748C7.86224 6.52 7.20099 5.85964 7.2037 5.07442V3.45814L5.3584 3.45725ZM6.4509 7.98802H8.87119C8.96642 7.98802 9.05896 8.02575 9.12635 8.09403C9.19463 8.16141 9.23236 8.25306 9.23147 8.34919V10.766C9.23147 10.9646 9.06975 11.1245 8.87119 11.1236H6.45159C6.25394 11.1227 6.09401 10.9628 6.09312 10.766V8.34919C6.09312 8.15064 6.25304 7.98892 6.45159 7.98802L6.4509 7.98802ZM6.81207 8.70677V10.4048H8.5128V8.70677H6.81207ZM10.8046 9.19731H16.5484C16.7461 9.19821 16.906 9.35903 16.9069 9.55668C16.9069 9.65192 16.8692 9.74356 16.8027 9.81095C16.7353 9.87833 16.6437 9.91697 16.5484 9.91697H10.8046C10.7094 9.91786 10.6169 9.88013 10.5495 9.81185C10.4812 9.74446 10.4435 9.65193 10.4444 9.55669C10.4444 9.46055 10.4821 9.36981 10.5504 9.30242C10.6178 9.23504 10.7094 9.19731 10.8046 9.19731ZM6.45166 12.4334H8.87126V12.4343C8.96649 12.4334 9.05813 12.4711 9.12552 12.5385C9.1938 12.6059 9.23154 12.6975 9.23154 12.7928V15.2096C9.23244 15.3058 9.1947 15.3974 9.12642 15.4648C9.05904 15.5331 8.9665 15.5708 8.87126 15.5699H6.45166C6.2531 15.5699 6.09318 15.4082 6.09318 15.2096V12.7928C6.09408 12.5951 6.254 12.4352 6.45166 12.4343L6.45166 12.4334ZM6.81282 13.1531L6.81193 14.8511H8.51266V13.154L6.81282 13.1531ZM10.8045 13.6418H16.5483C16.6435 13.6418 16.7351 13.6804 16.8025 13.7478C16.869 13.8152 16.9067 13.9068 16.9067 14.0021C16.9058 14.1997 16.7459 14.3597 16.5483 14.3606H10.8045C10.7092 14.3606 10.6176 14.3228 10.5502 14.2563C10.4828 14.189 10.4442 14.0973 10.4442 14.0021C10.4433 13.9068 10.481 13.8143 10.5493 13.7469C10.6167 13.6786 10.7092 13.6409 10.8045 13.6418ZM6.45149 16.8779H8.87109C8.96633 16.8779 9.05887 16.9156 9.12626 16.983C9.19454 17.0504 9.23227 17.1429 9.23137 17.2382V19.655C9.23137 19.8536 9.06966 20.0144 8.8711 20.0135H6.4515C6.25384 20.0126 6.09392 19.8527 6.09302 19.655V17.2382C6.09302 17.0405 6.25294 16.8788 6.45149 16.8779ZM6.81266 17.5967V19.2947H8.5134V17.5967H6.81266ZM10.8052 18.0872H16.549H16.5481C16.7458 18.0881 16.9057 18.248 16.9066 18.4457C16.9066 18.5409 16.8689 18.6326 16.8024 18.7008C16.735 18.7682 16.6434 18.806 16.5481 18.8069H10.8043C10.7091 18.8069 10.6166 18.7691 10.5492 18.7017C10.4809 18.6335 10.4432 18.5418 10.4441 18.4457C10.4441 18.3504 10.4818 18.2588 10.5501 18.1914C10.6175 18.124 10.7091 18.0872 10.8043 18.0872L10.8052 18.0872Z" fill="#8D1F56"/>
</svg>
