<svg width="31" height="30" viewBox="0 0 31 30" fill="none" xmlns="http://www.w3.org/2000/svg">
<path d="M15.643 0C12.6998 0 9.82264 0.872774 7.37542 2.50795C4.9282 4.14313 3.02084 6.46728 1.8945 9.18648C0.768173 11.9057 0.473465 14.8978 1.04766 17.7845C1.62186 20.6712 3.03917 23.3228 5.12036 25.404C7.20155 27.4852 9.85315 28.9025 12.7398 29.4767C15.6265 30.0509 18.6187 29.7562 21.3379 28.6298C24.0571 27.5035 26.3812 25.5961 28.0164 23.1489C29.6516 20.7017 30.5243 17.8246 30.5243 14.8813C30.5243 10.9345 28.9565 7.14942 26.1657 4.35863C23.3749 1.56785 19.5898 0 15.643 0ZM23.8259 18.4349C23.8249 19.6715 23.3331 20.8572 22.4587 21.7316C21.5842 22.6061 20.3986 23.0978 19.1619 23.0989H12.0548C10.8182 23.0978 9.63249 22.6061 8.75805 21.7316C7.88362 20.8572 7.39187 19.6715 7.39078 18.4349V11.3278C7.39187 10.0911 7.88362 8.90544 8.75805 8.031C9.63249 7.15656 10.8182 6.66482 12.0548 6.66373H19.1611C20.3977 6.66482 21.5834 7.15656 22.4579 8.031C23.3323 8.90544 23.824 10.0911 23.8251 11.3278L23.8259 18.4349Z" fill="#707070"/>
<path d="M19.1613 8.00008H12.0542C11.6159 7.99711 11.1813 8.08126 10.7758 8.24763C10.3703 8.414 10.0018 8.65928 9.69188 8.96923C9.38193 9.27918 9.13666 9.64761 8.97029 10.0531C8.80392 10.4587 8.71977 10.8932 8.72273 11.3315V18.4386C8.71977 18.8769 8.80392 19.3115 8.97029 19.717C9.13666 20.1225 9.38193 20.491 9.69188 20.8009C10.0018 21.1109 10.3703 21.3561 10.7758 21.5225C11.1813 21.6889 11.6159 21.773 12.0542 21.7701H19.1613C19.5996 21.773 20.0341 21.6889 20.4397 21.5225C20.8452 21.3561 21.2136 21.1109 21.5236 20.8009C21.8335 20.491 22.0788 20.1225 22.2452 19.717C22.4115 19.3115 22.4957 18.8769 22.4927 18.4386V11.3315C22.4957 10.8932 22.4115 10.4587 22.2452 10.0531C22.0788 9.64761 21.8335 9.27918 21.5236 8.96923C21.2136 8.65928 20.8452 8.414 20.4397 8.24763C20.0341 8.08126 19.5996 7.99711 19.1613 8.00008ZM15.611 19.327C14.7325 19.327 13.8737 19.0665 13.1432 18.5784C12.4127 18.0903 11.8434 17.3966 11.5072 16.5849C11.171 15.7733 11.0831 14.8801 11.2545 14.0185C11.4258 13.1568 11.8489 12.3654 12.4701 11.7442C13.0913 11.1229 13.8828 10.6999 14.7445 10.5285C15.6061 10.3571 16.4992 10.4451 17.3109 10.7813C18.1225 11.1175 18.8163 11.6868 19.3044 12.4173C19.7924 13.1477 20.053 14.0065 20.053 14.8851C20.0503 16.0623 19.5815 17.1906 18.7491 18.0231C17.9166 18.8556 16.7883 19.3244 15.611 19.327ZM20.053 11.1094C19.8773 11.1094 19.7055 11.0573 19.5594 10.9597C19.4133 10.8621 19.2994 10.7233 19.2322 10.561C19.165 10.3987 19.1474 10.2201 19.1816 10.0477C19.2159 9.8754 19.3005 9.7171 19.4248 9.59286C19.549 9.46862 19.7073 9.38401 19.8796 9.34973C20.052 9.31545 20.2306 9.33304 20.3929 9.40028C20.5553 9.46752 20.694 9.58139 20.7916 9.72748C20.8893 9.87358 20.9414 10.0453 20.9414 10.221C20.9415 10.3377 20.9186 10.4533 20.874 10.5611C20.8293 10.669 20.7639 10.767 20.6814 10.8495C20.5989 10.932 20.5009 10.9974 20.3931 11.042C20.2852 11.0866 20.1697 11.1095 20.053 11.1094Z" fill="#707070"/>
<path d="M15.6094 11.7735C14.9944 11.7735 14.3932 11.9558 13.8819 12.2975C13.3706 12.6391 12.972 13.1247 12.7367 13.6929C12.5013 14.2611 12.4398 14.8863 12.5597 15.4894C12.6797 16.0926 12.9759 16.6466 13.4107 17.0814C13.8456 17.5163 14.3996 17.8124 15.0027 17.9324C15.6059 18.0524 16.2311 17.9908 16.7993 17.7555C17.3674 17.5201 17.853 17.1216 18.1947 16.6103C18.5363 16.0989 18.7187 15.4978 18.7187 14.8828C18.7199 14.4741 18.6403 14.0693 18.4845 13.6915C18.3286 13.3137 18.0997 12.9705 17.8107 12.6815C17.5217 12.3925 17.1785 12.1635 16.8007 12.0077C16.4229 11.8519 16.018 11.7723 15.6094 11.7735Z" fill="#707070"/>
</svg>
