<svg width="31" height="30" viewBox="0 0 31 30" fill="none" xmlns="http://www.w3.org/2000/svg">
<path d="M15.4067 0C12.4635 4.5299e-09 9.5864 0.872753 7.1392 2.5079C4.692 4.14304 2.78461 6.46713 1.65825 9.18629C0.5319 11.9054 0.237143 14.8975 0.811275 17.7842C1.38541 20.6709 2.80263 23.3225 4.88373 25.4037C6.96484 27.4849 9.61636 28.9023 12.503 29.4766C15.3896 30.0509 18.3818 29.7563 21.101 28.6301C23.8202 27.5039 26.1444 25.5966 27.7797 23.1495C29.4149 20.7024 30.2879 17.8253 30.288 14.8821C30.2881 12.9278 29.9033 10.9926 29.1555 9.18705C28.4077 7.38147 27.3115 5.74087 25.9297 4.35893C24.5478 2.97698 22.9073 1.88076 21.1017 1.13285C19.2962 0.384944 17.361 -3.00788e-09 15.4067 0ZM11.437 22.0759H8.16998V11.5201H11.437V22.0759ZM9.78576 10.138C9.39993 10.141 9.02191 10.0292 8.69967 9.81702C8.37742 9.60481 8.12547 9.30166 7.97577 8.94604C7.82607 8.59041 7.78539 8.19834 7.85886 7.81955C7.93232 7.44077 8.11663 7.09233 8.38841 6.81846C8.6602 6.54458 9.00723 6.3576 9.38544 6.28124C9.76365 6.20487 10.156 6.24256 10.5128 6.38953C10.8695 6.5365 11.1746 6.78612 11.3893 7.10673C11.604 7.42734 11.7186 7.80449 11.7186 8.19034C11.7196 8.44513 11.6703 8.69763 11.5737 8.9334C11.4771 9.16918 11.335 9.38362 11.1556 9.56448C10.9761 9.74534 10.7627 9.88908 10.5277 9.98748C10.2927 10.0859 10.0406 10.137 9.78576 10.138ZM23.6796 22.0759H20.4283V16.5334C20.4283 15.0134 19.8503 14.1655 18.649 14.1655C17.3412 14.1655 16.6584 15.0489 16.6584 16.5334V22.0743H13.521V11.5201H16.6584V12.9419C16.9927 12.4018 17.461 11.9573 18.0178 11.6518C18.5747 11.3462 19.2011 11.19 19.8363 11.1981C22.0746 11.1981 23.6771 12.5646 23.6771 15.3924L23.6796 22.0759Z" fill="#707070"/>
</svg>
