<svg width="16" height="16" viewBox="0 0 16 16" fill="none" xmlns="http://www.w3.org/2000/svg">
<g clip-path="url(#clip0_996_1404)">
<path d="M11.6588 15.6569C11.3727 15.6086 11.0848 15.5713 10.8005 15.5108C9.74178 15.2486 8.72641 14.8329 7.78809 14.2766C6.31121 13.4557 4.97252 12.408 3.82138 11.17C2.42091 9.64846 1.25572 7.97162 0.520994 6.02222C0.236135 5.32045 0.0723052 4.5759 0.0368445 3.81977C-0.0187832 3.07156 0.24529 2.33495 0.763054 1.79275C1.20135 1.34406 1.62497 0.878255 2.09688 0.469315C2.82553 -0.157257 3.619 -0.157257 4.32265 0.498657C5.06597 1.19613 5.78423 1.92846 6.47501 2.67419V2.67357C7.00073 3.24024 7.00073 4.11684 6.47501 4.68416C6.10762 5.10168 5.70051 5.4819 5.31234 5.88045C5.27688 5.91407 5.23898 5.9428 5.1748 6.00149H5.17418C6.21154 7.87812 7.75987 9.42221 9.63964 10.4541L10.5664 9.517H10.567C10.7944 9.24802 11.0798 9.03347 11.402 8.89043C11.9191 8.66547 12.52 8.77245 12.9278 9.16184C13.7059 9.90212 14.4645 10.6638 15.2036 11.4457C15.722 12.0019 15.7391 12.859 15.2433 13.4354C14.7757 13.9868 14.2579 14.5083 13.7341 15.0138C13.3606 15.3567 12.8856 15.5689 12.3813 15.6171C12.3452 15.6257 12.3092 15.6361 12.2743 15.6483L11.6588 15.6569ZM11.8905 14.7155V14.7149C12.4107 14.7436 12.918 14.5437 13.2787 14.1684C13.6296 13.801 13.9884 13.4422 14.3436 13.0785C14.3894 13.032 14.4322 12.9831 14.4732 12.9324C14.5948 12.8095 14.6621 12.642 14.6584 12.469C14.6547 12.296 14.5814 12.1316 14.4542 12.0136C14.1681 11.7049 13.8656 11.4121 13.5691 11.1138C13.1827 10.7275 12.8007 10.3393 12.4107 9.95908L12.4101 9.95969C12.2952 9.83009 12.1326 9.75429 11.9596 9.75002C11.7866 9.74513 11.6197 9.81176 11.498 9.93463C11.4394 9.98293 11.3874 10.0367 11.333 10.0911C10.9613 10.4603 10.5939 10.8345 10.2204 11.1994C9.99793 11.4549 9.62626 11.5166 9.33284 11.3479C9.10545 11.233 8.87988 11.1181 8.66042 10.9891L8.66103 10.9885C7.6958 10.3986 6.82164 9.66993 6.06799 8.82579C5.36929 8.10997 4.78977 7.28718 4.35207 6.38736C4.13078 5.89894 4.17907 5.66115 4.56112 5.28949C4.94318 4.91782 5.35214 4.52354 5.72992 4.12254C5.8534 4.01128 5.92492 3.85419 5.92797 3.68853C5.93042 3.52226 5.8644 3.36271 5.74458 3.24779C5.69874 3.19338 5.65044 3.14326 5.60276 3.09313L3.76948 1.25187C3.37703 0.865522 3.02859 0.86125 2.63614 1.25187C2.2437 1.64248 1.87386 1.98664 1.51688 2.37725C1.34083 2.55881 1.19963 2.77092 1.09936 3.00321C0.942261 3.50203 0.936143 4.03569 1.08041 4.53816C1.25463 5.31756 1.52788 6.07189 1.89465 6.78223C2.52427 8.03416 3.32201 9.19375 4.26642 10.2286C5.89125 12.0783 7.94816 13.4985 10.254 14.3622C10.7785 14.5608 11.3305 14.677 11.8905 14.7069L11.8905 14.7155Z" fill="#8CB85B"/>
</g>
<defs>
<clipPath id="clip0_996_1404">
<rect width="15.649" height="15.649" fill="white"/>
</clipPath>
</defs>
</svg>
