<svg width="14" height="15" viewBox="0 0 14 15" fill="none" xmlns="http://www.w3.org/2000/svg">
<g clip-path="url(#clip0_709_2248)">
<path d="M11.6016 12.3276L11.7191 12.3276L11.6391 12.2414L11.1062 11.6675C10.9647 11.5151 10.9647 11.2725 11.1062 11.1201C11.2457 10.9699 11.4646 10.9699 11.6041 11.1201L12.8298 12.4401C12.9704 12.5915 12.9725 12.834 12.8286 13.0023L11.6036 14.3215C11.5339 14.3966 11.4409 14.4341 11.3481 14.4341C11.2553 14.4341 11.1628 14.3971 11.0927 14.3215C10.9511 14.1691 10.9511 13.9266 11.0927 13.7741L11.6256 13.2002L11.7056 13.1141L11.5881 13.1141L1.98185 13.1146C1.78677 13.1146 1.61984 12.94 1.61984 12.7208V2.34655V2.21606L1.53104 2.31168L0.998087 2.88563C0.858582 3.03587 0.639666 3.03587 0.50016 2.88563C0.358638 2.73323 0.358638 2.49067 0.50016 2.33826L1.72585 1.01829C1.86535 0.868057 2.08427 0.868057 2.22377 1.01829L3.44946 2.33826C3.59098 2.49067 3.59098 2.73323 3.44946 2.88563L3.44946 2.88564C3.37977 2.96069 3.2868 2.99817 3.194 2.99817C3.10114 2.99817 3.00871 2.96122 2.93853 2.88563L2.40558 2.31168L2.31678 2.21606V2.34655V12.2757V12.327L2.36802 12.327L11.6016 12.3276Z" fill="#8D1F56" stroke="white" stroke-width="0.102491"/>
<path d="M5.35287 2.17995H4.93962C4.74446 2.17995 4.57761 2.00583 4.57761 1.78672C4.57761 1.56695 4.74455 1.39292 4.9391 1.39292H5.35235C5.54702 1.39292 5.71441 1.56709 5.71488 1.78627L5.76612 1.78616H5.71488C5.71488 2.00584 5.5475 2.17995 5.35287 2.17995Z" fill="#8D1F56" stroke="white" stroke-width="0.102491"/>
<path d="M10.0292 2.17995H9.36296C9.16828 2.17995 9.00095 2.00578 9.00095 1.78672C9.00095 1.56703 9.16833 1.39292 9.36296 1.39292H10.0292C10.2237 1.39292 10.3907 1.56701 10.3912 1.78627L10.4424 1.78616H10.3912C10.3912 2.00584 10.2238 2.17995 10.0292 2.17995Z" fill="#8D1F56" stroke="white" stroke-width="0.102491"/>
<path d="M7.68394 2.17995H7.01774C6.82316 2.17995 6.65621 2.00586 6.65574 1.78661L6.60449 1.78672H6.65574C6.65574 1.56703 6.82312 1.39292 7.01774 1.39292H7.68394C7.87862 1.39292 8.04594 1.56709 8.04594 1.78616C8.04594 2.00584 7.87856 2.17995 7.68394 2.17995Z" fill="#8D1F56" stroke="white" stroke-width="0.102491"/>
<path d="M11.2808 1.78672H11.332C11.332 1.56703 11.4994 1.39292 11.694 1.39292H12.1073C12.3024 1.39292 12.4693 1.567 12.4693 1.78672L12.4693 1.78678L12.4698 2.2312C12.4698 2.45088 12.3024 2.62499 12.1078 2.62499C11.9127 2.62499 11.7458 2.4504 11.7458 2.2312V2.17995H11.6945C11.5119 2.17995 11.3325 2.00471 11.332 1.78661L11.2808 1.78672ZM11.2808 1.78672C11.2808 1.54233 11.4676 1.34167 11.694 1.34167H12.1073C12.3342 1.34167 12.5205 1.54234 12.5205 1.78672L11.6945 2.2312C11.4811 2.2312 11.2813 2.03053 11.2808 1.78672Z" fill="#8D1F56" stroke="white" stroke-width="0.102491"/>
<path d="M12.1071 6.15671C12.3022 6.15671 12.4691 6.33131 12.4691 6.55051V7.26795C12.4691 7.48763 12.3017 7.66174 12.1071 7.66174C11.912 7.66174 11.7451 7.48715 11.7451 7.26795V6.55051C11.7451 6.33083 11.9125 6.15671 12.1071 6.15671Z" fill="#8D1F56" stroke="white" stroke-width="0.102491"/>
<path d="M12.1071 3.63145C12.3022 3.63145 12.4691 3.80604 12.4691 4.02524V4.74268C12.4691 4.96236 12.3017 5.13647 12.1071 5.13647C11.912 5.13647 11.7451 4.96188 11.7451 4.74268V4.02524C11.7451 3.80556 11.9125 3.63145 12.1071 3.63145Z" fill="#8D1F56" stroke="white" stroke-width="0.102491"/>
<path d="M11.7456 9.07578C11.7456 8.85609 11.913 8.68198 12.1076 8.68198C12.3037 8.68198 12.4696 8.84314 12.4696 9.07578V9.52082C12.4696 9.7405 12.3022 9.91461 12.1076 9.91461C11.9125 9.91461 11.7456 9.74002 11.7456 9.52082V9.07578Z" fill="#8D1F56" stroke="white" stroke-width="0.102491"/>
</g>
<defs>
<clipPath id="clip0_709_2248">
<rect width="13.3238" height="14.3487" fill="white" transform="translate(-0.00390625 0.481323)"/>
</clipPath>
</defs>
</svg>
