<svg width="13" height="8" viewBox="0 0 13 8" fill="none" xmlns="http://www.w3.org/2000/svg">
<path d="M11.4983 0.614441H1.78392C1.35257 0.614441 1 0.975257 1 1.42047V6.703C1 7.14651 1.35092 7.50903 1.78392 7.50903H11.4995C11.9308 7.50903 12.2834 7.14821 12.2834 6.703L12.2839 1.41931C12.2839 0.975794 11.933 0.613281 11.5 0.613281L11.4983 0.614441ZM1.78392 0.936178H11.4995C11.5491 0.936178 11.5953 0.946374 11.6405 0.961102L6.93144 4.73863C6.76067 4.87514 6.52378 4.87514 6.353 4.73863L1.64295 0.961102C1.68812 0.946375 1.73434 0.936178 1.78392 0.936178ZM1.31291 6.70303V1.41934C1.31291 1.32531 1.33991 1.23808 1.38618 1.16388L4.99777 4.06108L1.38618 6.95944C1.33991 6.88524 1.31291 6.79688 1.31291 6.70286V6.70303ZM11.4984 7.18619H1.78395C1.73437 7.18619 1.68919 7.17599 1.64457 7.16126L5.25348 4.26406L6.16024 4.99078C6.30292 5.10407 6.47204 5.16185 6.64283 5.16185C6.8136 5.16185 6.98273 5.1052 7.12541 4.99078L8.03218 4.26406L11.6428 7.16126C11.5976 7.17599 11.5513 7.18619 11.5034 7.18619H11.4984ZM11.9694 6.70303C11.9694 6.79706 11.9424 6.88429 11.8961 6.95962L8.28453 4.06126L11.8961 1.16405C11.9413 1.23826 11.9694 1.32492 11.9694 1.41951V6.70303Z" fill="#8D1F56" stroke="#8D1F56" stroke-width="0.250754"/>
</svg>
