<svg width="43" height="37" viewBox="0 0 43 37" fill="none" xmlns="http://www.w3.org/2000/svg">
<path d="M31.9739 32.0116L31.824 31.9701V32.1257V35.3487C31.824 35.911 31.3054 36.4296 30.743 36.4296H1.96097C1.3986 36.4296 0.880066 35.911 0.880066 35.3487V17.3599C0.880066 16.7975 1.39859 16.2789 1.96097 16.2789L30.7426 16.2789C30.7427 16.2789 30.7428 16.2789 30.7429 16.2789C31.0217 16.2801 31.2888 16.4243 31.491 16.6393C31.6936 16.8547 31.8174 17.1267 31.824 17.3614V20.5828V20.7387L31.9741 20.6968L41.2458 18.1121C41.5949 18.0407 41.9248 18.0884 42.1706 18.2543C42.4134 18.4182 42.5914 18.7092 42.6174 19.1621L42.6174 33.5486C42.6174 33.5488 42.6174 33.5489 42.6174 33.549C42.6141 33.8704 42.4345 34.1725 42.1674 34.3737C41.9001 34.5749 41.5597 34.6643 41.2494 34.5787L31.9739 32.0116ZM3.16023 18.4408H3.04188V18.5591V34.1494V34.2677H3.16023H29.5438H29.6621V34.1494V18.5591V18.4408H29.5438H3.16023ZM40.4554 20.7328V20.5772L40.3055 20.6187L31.9107 22.9421L31.824 22.9661V23.0562V29.6335V29.7233L31.9105 29.7475L40.3053 32.0897L40.4554 32.1316V31.9758V20.7328ZM1.47969 7.76583C1.47969 3.87036 4.66139 0.68866 8.55686 0.68866C12.4523 0.68866 15.634 3.87036 15.634 7.76583C15.634 11.6613 12.4523 14.843 8.55686 14.843C4.66139 14.843 1.47969 11.6613 1.47969 7.76583ZM17.07 7.76583C17.07 3.87036 20.2517 0.68866 24.1472 0.68866C28.0426 0.68866 31.2243 3.87036 31.2243 7.76583C31.2243 11.6613 28.0426 14.843 24.1472 14.843C20.2517 14.843 17.07 11.6613 17.07 7.76583ZM13.4722 7.76583C13.4722 5.03729 11.2854 2.85047 8.55686 2.85047C5.82832 2.85047 3.6415 5.03729 3.6415 7.76583C3.6415 10.4944 5.82832 12.6812 8.55686 12.6812C11.2854 12.6812 13.4722 10.4944 13.4722 7.76583ZM29.0625 7.76583C29.0625 5.03729 26.8757 2.85047 24.1472 2.85047C21.4186 2.85047 19.2318 5.03729 19.2318 7.76583C19.2318 10.4944 21.4186 12.6812 24.1472 12.6812C26.8757 12.6812 29.0625 10.4944 29.0625 7.76583Z" fill="#8D1F56" stroke="white" stroke-width="0.236695"/>
</svg>
