<svg width="31" height="31" viewBox="0 0 31 31" fill="none" xmlns="http://www.w3.org/2000/svg">
<g filter="url(#filter0_d_1547_48534)">
<g clip-path="url(#clip0_1547_48534)">
<rect x="1.66797" y="1.14258" width="27.2539" height="27.7883" rx="3.65531" fill="white"/>
<path d="M19.8526 20.0151L19.7897 19.9977V20.0629V21.4143C19.7897 21.6501 19.5723 21.8675 19.3365 21.8675H7.26846C7.03266 21.8675 6.81525 21.6501 6.81525 21.4143V13.8717C6.81525 13.6359 7.03266 13.4185 7.26846 13.4185L19.3363 13.4185C19.3364 13.4185 19.3364 13.4185 19.3365 13.4185C19.4533 13.419 19.5653 13.4795 19.6501 13.5696C19.7351 13.6599 19.787 13.774 19.7897 13.8724V15.2231V15.2884L19.8527 15.2709L23.7402 14.1871C23.8866 14.1572 24.0249 14.1772 24.128 14.2468C24.2298 14.3155 24.3044 14.4375 24.3153 14.6274L24.3153 20.6595C24.3153 20.6596 24.3153 20.6597 24.3153 20.6597C24.3139 20.7945 24.2386 20.9211 24.1266 21.0055C24.0146 21.0898 23.8718 21.1273 23.7417 21.0914L19.8526 20.0151ZM7.7713 14.3249H7.72167V14.3746V20.9114V20.961H7.7713H18.8337H18.8833V20.9114V14.3746V14.3249H18.8337H7.7713ZM23.4088 15.286V15.2207L23.346 15.2381L19.8261 16.2123L19.7897 16.2224V16.2601V19.018V19.0556L19.826 19.0657L23.3459 20.0478L23.4088 20.0654V20V15.286ZM7.06666 9.84904C7.06666 8.21571 8.40072 6.88165 10.0341 6.88165C11.6674 6.88165 13.0014 8.21571 13.0014 9.84904C13.0014 11.4824 11.6674 12.8164 10.0341 12.8164C8.40072 12.8164 7.06666 11.4824 7.06666 9.84904ZM13.6035 9.84904C13.6035 8.21571 14.9376 6.88165 16.5709 6.88165C18.2043 6.88165 19.5383 8.21571 19.5383 9.84904C19.5383 11.4824 18.2043 12.8164 16.5709 12.8164C14.9376 12.8164 13.6035 11.4824 13.6035 9.84904ZM12.095 9.84904C12.095 8.70499 11.1781 7.78808 10.0341 7.78808C8.89 7.78808 7.97309 8.70499 7.97309 9.84904C7.97309 10.9931 8.89 11.91 10.0341 11.91C11.1781 11.91 12.095 10.9931 12.095 9.84904ZM18.6319 9.84904C18.6319 8.70499 17.715 7.78808 16.5709 7.78808C15.4269 7.78808 14.51 8.70499 14.51 9.84904C14.51 10.9931 15.4269 11.91 16.5709 11.91C17.715 11.91 18.6319 10.9931 18.6319 9.84904Z" fill="#707070" stroke="white" stroke-width="0.0992438"/>
</g>
<rect x="1.85073" y="1.32534" width="26.8884" height="27.4227" rx="3.47255" stroke="#E1E4ED" stroke-width="0.365531"/>
</g>
<defs>
<filter id="filter0_d_1547_48534" x="0.205844" y="0.0459848" width="30.1782" height="30.7123" filterUnits="userSpaceOnUse" color-interpolation-filters="sRGB">
<feFlood flood-opacity="0" result="BackgroundImageFix"/>
<feColorMatrix in="SourceAlpha" type="matrix" values="0 0 0 0 0 0 0 0 0 0 0 0 0 0 0 0 0 0 127 0" result="hardAlpha"/>
<feOffset dy="0.365531"/>
<feGaussianBlur stdDeviation="0.731062"/>
<feComposite in2="hardAlpha" operator="out"/>
<feColorMatrix type="matrix" values="0 0 0 0 0.0969792 0 0 0 0 0.127894 0 0 0 0 0.2375 0 0 0 0.08 0"/>
<feBlend mode="normal" in2="BackgroundImageFix" result="effect1_dropShadow_1547_48534"/>
<feBlend mode="normal" in="SourceGraphic" in2="effect1_dropShadow_1547_48534" result="shape"/>
</filter>
<clipPath id="clip0_1547_48534">
<rect x="1.66797" y="1.14258" width="27.2539" height="27.7883" rx="3.65531" fill="white"/>
</clipPath>
</defs>
</svg>
