<svg width="49" height="49" viewBox="0 0 49 49" fill="none" xmlns="http://www.w3.org/2000/svg">
<path d="M24.5 1.53125C11.8345 1.53125 1.53125 11.8345 1.53125 24.5C1.53125 37.1655 11.8345 47.4688 24.5 47.4688C37.1655 47.4688 47.4688 37.1655 47.4688 24.5C47.4688 11.8345 37.1655 1.53125 24.5 1.53125ZM24.5 45.9375C20.3867 45.9375 16.7443 42.3678 14.5221 36.9107C17.5425 37.7874 20.9264 38.2812 24.5 38.2812C28.0736 38.2812 31.4595 37.7874 34.4779 36.9107C32.2556 42.3679 28.6111 45.9375 24.5 45.9375ZM24.5 36.75C20.6336 36.75 17.0045 36.1586 13.8695 35.1307C12.8416 31.9955 12.2501 28.3662 12.2501 24.5001C12.2501 20.634 12.8416 17.0046 13.8695 13.8696C17.0047 12.8417 20.6339 12.2503 24.5 12.2503C28.3661 12.2503 31.9955 12.8417 35.1306 13.8696C36.1584 17.0048 36.7499 20.634 36.7499 24.5001C36.7499 28.3662 36.1584 31.9957 35.1306 35.1307C31.9953 36.1586 28.3661 36.75 24.5 36.75ZM12.0893 34.478C6.63215 32.2558 3.0625 28.6112 3.0625 24.5001C3.0625 20.389 6.63225 16.7444 12.0893 14.5223C11.2126 17.5427 10.7188 20.9266 10.7188 24.5001C10.7188 28.0737 11.2126 31.4596 12.0893 34.478ZM24.5 3.06265C28.6133 3.06265 32.2557 6.6324 34.4779 12.0894C31.4575 11.2128 28.0736 10.7189 24.5 10.7189C20.9264 10.7189 17.5405 11.2128 14.5221 12.0894C16.7444 6.6323 20.3889 3.06265 24.5 3.06265ZM36.9107 14.5223C42.3679 16.7445 45.9375 20.389 45.9375 24.5001C45.9375 28.6112 42.3678 32.2559 36.9107 34.478C37.7874 31.4576 38.2812 28.0737 38.2812 24.5001C38.2812 20.9266 37.7874 17.5407 36.9107 14.5223ZM45.0281 18.3312C43.0681 15.9923 40.0345 14.0323 36.3134 12.6884C34.9697 8.96744 33.0097 5.93375 30.6706 3.97375C37.5365 6.04097 42.9608 11.4654 45.0281 18.3312ZM18.3289 3.97179C15.99 5.93179 14.03 8.96538 12.6861 12.6864C8.96514 14.0301 5.93145 15.9901 3.97145 18.3293C6.04057 11.4634 11.4631 6.04106 18.3289 3.97179ZM3.97145 30.6709C5.93145 33.0099 8.96504 34.9699 12.6861 36.3138C14.0298 40.0347 15.9898 43.0684 18.3289 45.0284C11.4631 42.9612 6.03876 37.5368 3.97145 30.6709ZM30.6706 45.0284C33.0095 43.0684 34.9695 40.0348 36.3134 36.3138C40.0344 34.9701 43.0681 33.0101 45.0281 30.6709C42.9608 37.5368 37.5365 42.9611 30.6706 45.0284Z" fill="#8D1F56"/>
<path d="M33.2757 23.8219L17.1978 15.3997C16.9605 15.2753 16.6753 15.2849 16.4475 15.4227C16.2179 15.5605 16.0781 15.8093 16.0781 16.0773V32.921C16.0781 33.189 16.2179 33.4378 16.4475 33.5756C16.57 33.6484 16.7059 33.6866 16.8438 33.6866C16.9663 33.6866 17.0868 33.6579 17.1998 33.5986L33.2776 25.1765C33.5303 25.0444 33.6873 24.7822 33.6873 24.4989C33.6873 24.2137 33.5284 23.9534 33.2776 23.8213L33.2757 23.8219ZM17.6089 31.656V17.3426L31.2716 24.499L17.6089 31.656Z" fill="#8D1F56"/>
<path d="M24.5 9.1875C25.7671 9.1875 26.7969 8.15772 26.7969 6.89062C26.7969 5.62353 25.7671 4.59375 24.5 4.59375C23.2329 4.59375 22.2031 5.62353 22.2031 6.89062C22.2031 8.15772 23.2329 9.1875 24.5 9.1875ZM24.5 6.125C24.9211 6.125 25.2656 6.46953 25.2656 6.89062C25.2656 7.31172 24.9211 7.65625 24.5 7.65625C24.0789 7.65625 23.7344 7.31172 23.7344 6.89062C23.7344 6.46953 24.0789 6.125 24.5 6.125Z" fill="#8D1F56"/>
<path d="M42.875 26.7969C44.1421 26.7969 45.1719 25.7671 45.1719 24.5C45.1719 23.2329 44.1421 22.2031 42.875 22.2031C41.6079 22.2031 40.5781 23.2329 40.5781 24.5C40.5781 25.7671 41.6079 26.7969 42.875 26.7969ZM42.875 23.7344C43.2961 23.7344 43.6406 24.0789 43.6406 24.5C43.6406 24.9211 43.2961 25.2656 42.875 25.2656C42.4539 25.2656 42.1094 24.9211 42.1094 24.5C42.1094 24.0789 42.4539 23.7344 42.875 23.7344Z" fill="#8D1F56"/>
<path d="M25.2656 39.8125C23.9985 39.8125 22.9688 40.8423 22.9688 42.1094C22.9688 43.3765 23.9985 44.4062 25.2656 44.4062C26.5327 44.4062 27.5625 43.3765 27.5625 42.1094C27.5625 40.8423 26.5327 39.8125 25.2656 39.8125ZM25.2656 42.875C24.8445 42.875 24.5 42.5305 24.5 42.1094C24.5 41.6883 24.8445 41.3438 25.2656 41.3438C25.6867 41.3438 26.0312 41.6883 26.0312 42.1094C26.0312 42.5305 25.6867 42.875 25.2656 42.875Z" fill="#8D1F56"/>
<path d="M6.89062 22.2031C5.62353 22.2031 4.59375 23.2329 4.59375 24.5C4.59375 25.7671 5.62353 26.7969 6.89062 26.7969C8.15772 26.7969 9.1875 25.7671 9.1875 24.5C9.1875 23.2329 8.15772 22.2031 6.89062 22.2031ZM6.89062 25.2656C6.46953 25.2656 6.125 24.9211 6.125 24.5C6.125 24.0789 6.46953 23.7344 6.89062 23.7344C7.31172 23.7344 7.65625 24.0789 7.65625 24.5C7.65625 24.9211 7.31172 25.2656 6.89062 25.2656Z" fill="#8D1F56"/>
</svg>
