<svg width="31" height="31" viewBox="0 0 31 31" fill="none" xmlns="http://www.w3.org/2000/svg">
<g filter="url(#filter0_d_1547_48522)">
<rect x="1.57812" y="1.14258" width="27.2539" height="27.7883" rx="3.65531" fill="white"/>
<rect x="1.76089" y="1.32534" width="26.8884" height="27.4227" rx="3.47255" stroke="#E1E4ED" stroke-width="0.365531"/>
<path d="M15.4713 5.10938C9.99872 5.10938 5.54688 9.56122 5.54688 15.0338C5.54688 20.5063 9.99872 24.9581 15.4713 24.9581C20.9438 24.9581 25.3956 20.5063 25.3956 15.0338C25.3956 9.56122 20.9438 5.10938 15.4713 5.10938ZM15.4713 24.2965C13.694 24.2965 12.1202 22.7541 11.16 20.3962C12.4651 20.775 13.9272 20.9884 15.4713 20.9884C17.0153 20.9884 18.4783 20.775 19.7825 20.3962C18.8223 22.7541 17.2476 24.2965 15.4713 24.2965ZM15.4713 20.3268C13.8007 20.3268 12.2326 20.0712 10.878 19.6271C10.4339 18.2724 10.1783 16.7043 10.1783 15.0338C10.1783 13.3634 10.4339 11.7951 10.878 10.4406C12.2327 9.99643 13.8008 9.74088 15.4713 9.74088C17.1417 9.74088 18.7099 9.99643 20.0645 10.4406C20.5087 11.7952 20.7642 13.3634 20.7642 15.0338C20.7642 16.7043 20.5087 18.2725 20.0645 19.6271C18.7099 20.0712 17.1417 20.3268 15.4713 20.3268ZM10.1088 19.3451C7.75088 18.3849 6.2085 16.8102 6.2085 15.0338C6.2085 13.2575 7.75093 11.6827 10.1088 10.7226C9.73002 12.0276 9.51665 13.4897 9.51665 15.0338C9.51665 16.5779 9.73002 18.0409 10.1088 19.3451ZM15.4713 5.77106C17.2485 5.77106 18.8224 7.31349 19.7825 9.67137C18.4775 9.29259 17.0153 9.07921 15.4713 9.07921C13.9272 9.07921 12.4642 9.29259 11.16 9.67137C12.1202 7.31345 13.6949 5.77106 15.4713 5.77106ZM20.8337 10.7226C23.1916 11.6828 24.734 13.2575 24.734 15.0338C24.734 16.8102 23.1916 18.3849 20.8337 19.3451C21.2125 18.04 21.4259 16.5779 21.4259 15.0338C21.4259 13.4897 21.2125 12.0268 20.8337 10.7226ZM24.3411 12.3684C23.4942 11.3577 22.1834 10.5108 20.5756 9.93018C19.995 8.32242 19.1482 7.01162 18.1375 6.16474C21.1041 7.05794 23.4478 9.40173 24.3411 12.3684ZM12.8049 6.16389C11.7942 7.01077 10.9473 8.32153 10.3667 9.92933C8.75892 10.5099 7.44812 11.3568 6.60124 12.3675C7.49527 9.40088 9.83823 7.05798 12.8049 6.16389ZM6.60124 17.7001C7.44812 18.7107 8.75888 19.5576 10.3667 20.1383C10.9473 21.746 11.7941 23.0568 12.8049 23.9037C9.83823 23.0105 7.49449 20.6667 6.60124 17.7001ZM18.1375 23.9037C19.1481 23.0568 19.995 21.7461 20.5756 20.1383C22.1834 19.5577 23.4942 18.7108 24.3411 17.7001C23.4479 20.6667 21.1041 23.0105 18.1375 23.9037Z" fill="#706F70"/>
<path d="M19.2628 14.7392L12.3158 11.1002C12.2133 11.0464 12.0901 11.0506 11.9916 11.1101C11.8924 11.1697 11.832 11.2772 11.832 11.393V18.6708C11.832 18.7866 11.8924 18.8941 11.9916 18.9537C12.0446 18.9851 12.1033 19.0016 12.1628 19.0016C12.2158 19.0016 12.2679 18.9892 12.3167 18.9636L19.2636 15.3245C19.3728 15.2675 19.4406 15.1542 19.4406 15.0318C19.4406 14.9086 19.372 14.7961 19.2636 14.739L19.2628 14.7392ZM12.4935 18.1242V11.9397L18.3969 15.0318L12.4935 18.1242Z" fill="#706F70"/>
<path d="M15.4729 8.41847C16.0204 8.41847 16.4653 7.97352 16.4653 7.42603C16.4653 6.87854 16.0204 6.43359 15.4729 6.43359C14.9254 6.43359 14.4805 6.87854 14.4805 7.42603C14.4805 7.97352 14.9254 8.41847 15.4729 8.41847ZM15.4729 7.09522C15.6549 7.09522 15.8037 7.24408 15.8037 7.42603C15.8037 7.60798 15.6549 7.75685 15.4729 7.75685C15.291 7.75685 15.1421 7.60798 15.1421 7.42603C15.1421 7.24408 15.291 7.09522 15.4729 7.09522Z" fill="#706F70"/>
<path d="M23.4104 16.0259C23.9579 16.0259 24.4028 15.5809 24.4028 15.0335C24.4028 14.486 23.9579 14.041 23.4104 14.041C22.8629 14.041 22.418 14.486 22.418 15.0335C22.418 15.5809 22.8629 16.0259 23.4104 16.0259ZM23.4104 14.7026C23.5924 14.7026 23.7412 14.8515 23.7412 15.0335C23.7412 15.2154 23.5924 15.3643 23.4104 15.3643C23.2285 15.3643 23.0796 15.2154 23.0796 15.0335C23.0796 14.8515 23.2285 14.7026 23.4104 14.7026Z" fill="#706F70"/>
<path d="M15.801 21.6504C15.2535 21.6504 14.8086 22.0953 14.8086 22.6428C14.8086 23.1903 15.2535 23.6353 15.801 23.6353C16.3485 23.6353 16.7935 23.1903 16.7935 22.6428C16.7935 22.0953 16.3485 21.6504 15.801 21.6504ZM15.801 22.9736C15.6191 22.9736 15.4702 22.8248 15.4702 22.6428C15.4702 22.4609 15.6191 22.312 15.801 22.312C15.983 22.312 16.1318 22.4609 16.1318 22.6428C16.1318 22.8248 15.983 22.9736 15.801 22.9736Z" fill="#706F70"/>
<path d="M7.86353 14.041C7.31604 14.041 6.87109 14.486 6.87109 15.0335C6.87109 15.5809 7.31604 16.0259 7.86353 16.0259C8.41102 16.0259 8.85597 15.5809 8.85597 15.0335C8.85597 14.486 8.41102 14.041 7.86353 14.041ZM7.86353 15.3643C7.68158 15.3643 7.53272 15.2154 7.53272 15.0335C7.53272 14.8515 7.68158 14.7026 7.86353 14.7026C8.04548 14.7026 8.19435 14.8515 8.19435 15.0335C8.19435 15.2154 8.04548 15.3643 7.86353 15.3643Z" fill="#706F70"/>
</g>
<defs>
<filter id="filter0_d_1547_48522" x="0.116001" y="0.0459848" width="30.1782" height="30.7123" filterUnits="userSpaceOnUse" color-interpolation-filters="sRGB">
<feFlood flood-opacity="0" result="BackgroundImageFix"/>
<feColorMatrix in="SourceAlpha" type="matrix" values="0 0 0 0 0 0 0 0 0 0 0 0 0 0 0 0 0 0 127 0" result="hardAlpha"/>
<feOffset dy="0.365531"/>
<feGaussianBlur stdDeviation="0.731062"/>
<feComposite in2="hardAlpha" operator="out"/>
<feColorMatrix type="matrix" values="0 0 0 0 0.0969792 0 0 0 0 0.127894 0 0 0 0 0.2375 0 0 0 0.08 0"/>
<feBlend mode="normal" in2="BackgroundImageFix" result="effect1_dropShadow_1547_48522"/>
<feBlend mode="normal" in="SourceGraphic" in2="effect1_dropShadow_1547_48522" result="shape"/>
</filter>
</defs>
</svg>
